<svg width="311" height="255" viewBox="0 0 311 255" fill="none" xmlns="http://www.w3.org/2000/svg">
<g filter="url(#filter0_d_282_2660)">
<rect x="14" y="9" width="283" height="216" rx="20" fill="white"/>
<path d="M63.4133 174.095C51.8602 166.56 38.324 177.235 33 183.514V235.725H257V112.174C245.82 116.484 236.322 115.366 234.525 137.876C233.06 156.236 232.994 169.327 225.208 173.158C217.38 177.01 212.83 154.48 204.977 137.876C198.695 124.594 188.114 141.878 184.21 147.412C177.289 157.044 161.555 136.029 154.736 119.509C145 95.9208 132.196 93.7633 122.526 119.509C112.856 145.255 103.264 124.147 91.2188 137.876C79.1733 151.606 77.8546 183.514 63.4133 174.095Z" fill="url(#paint0_linear_282_2660)"/>
<path d="M33 183.62C38.324 177.332 51.8602 166.643 63.4133 174.188C77.8546 183.62 79.1733 151.671 91.2188 137.924C103.264 124.177 112.856 145.312 122.526 119.533C132.196 93.7541 145 95.9143 154.736 119.533C161.555 136.074 177.289 157.116 184.21 147.472C188.114 141.93 198.695 124.624 204.977 137.924C212.83 154.548 217.38 177.107 225.208 173.25C232.995 169.414 233.06 156.306 234.525 137.924C236.322 115.385 245.82 116.504 257 112.188" stroke="#596CFF" stroke-width="3.5"/>
<path d="M33 189H257" stroke="#7B7B7B" stroke-opacity="0.45" stroke-width="2"/>
<path d="M263.72 186.512C263.72 185.128 263.952 184.048 264.416 183.272C264.888 182.488 265.696 182.096 266.84 182.096C267.984 182.096 268.788 182.488 269.252 183.272C269.724 184.048 269.96 185.128 269.96 186.512C269.96 187.912 269.724 189.008 269.252 189.8C268.788 190.584 267.984 190.976 266.84 190.976C265.696 190.976 264.888 190.584 264.416 189.8C263.952 189.008 263.72 187.912 263.72 186.512ZM268.616 186.512C268.616 185.864 268.572 185.316 268.484 184.868C268.404 184.42 268.236 184.056 267.98 183.776C267.724 183.488 267.344 183.344 266.84 183.344C266.336 183.344 265.956 183.488 265.7 183.776C265.444 184.056 265.272 184.42 265.184 184.868C265.104 185.316 265.064 185.864 265.064 186.512C265.064 187.184 265.104 187.748 265.184 188.204C265.264 188.66 265.432 189.028 265.688 189.308C265.952 189.588 266.336 189.728 266.84 189.728C267.344 189.728 267.724 189.588 267.98 189.308C268.244 189.028 268.416 188.66 268.496 188.204C268.576 187.748 268.616 187.184 268.616 186.512Z" fill="#7B7B7B" fill-opacity="0.73"/>
<path d="M263.54 47.5V46.252H266.036V55H264.656V47.5H263.54ZM267.915 50.512C267.915 49.128 268.147 48.048 268.611 47.272C269.083 46.488 269.891 46.096 271.035 46.096C272.179 46.096 272.983 46.488 273.447 47.272C273.919 48.048 274.155 49.128 274.155 50.512C274.155 51.912 273.919 53.008 273.447 53.8C272.983 54.584 272.179 54.976 271.035 54.976C269.891 54.976 269.083 54.584 268.611 53.8C268.147 53.008 267.915 51.912 267.915 50.512ZM272.811 50.512C272.811 49.864 272.767 49.316 272.679 48.868C272.599 48.42 272.431 48.056 272.175 47.776C271.919 47.488 271.539 47.344 271.035 47.344C270.531 47.344 270.151 47.488 269.895 47.776C269.639 48.056 269.467 48.42 269.379 48.868C269.299 49.316 269.259 49.864 269.259 50.512C269.259 51.184 269.299 51.748 269.379 52.204C269.459 52.66 269.627 53.028 269.883 53.308C270.147 53.588 270.531 53.728 271.035 53.728C271.539 53.728 271.919 53.588 272.175 53.308C272.439 53.028 272.611 52.66 272.691 52.204C272.771 51.748 272.811 51.184 272.811 50.512ZM275.603 50.512C275.603 49.128 275.835 48.048 276.299 47.272C276.771 46.488 277.579 46.096 278.723 46.096C279.867 46.096 280.671 46.488 281.135 47.272C281.607 48.048 281.843 49.128 281.843 50.512C281.843 51.912 281.607 53.008 281.135 53.8C280.671 54.584 279.867 54.976 278.723 54.976C277.579 54.976 276.771 54.584 276.299 53.8C275.835 53.008 275.603 51.912 275.603 50.512ZM280.499 50.512C280.499 49.864 280.455 49.316 280.367 48.868C280.287 48.42 280.119 48.056 279.863 47.776C279.607 47.488 279.227 47.344 278.723 47.344C278.219 47.344 277.839 47.488 277.583 47.776C277.327 48.056 277.155 48.42 277.067 48.868C276.987 49.316 276.947 49.864 276.947 50.512C276.947 51.184 276.987 51.748 277.067 52.204C277.147 52.66 277.315 53.028 277.571 53.308C277.835 53.588 278.219 53.728 278.723 53.728C279.227 53.728 279.607 53.588 279.863 53.308C280.127 53.028 280.299 52.66 280.379 52.204C280.459 51.748 280.499 51.184 280.499 50.512Z" fill="#7B7B7B" fill-opacity="0.73"/>
<path d="M239.875 203H238.874L234.848 196.895V203H233.847V195.322H234.848L238.874 201.416V195.322H239.875V203ZM244.32 203.099C243.756 203.099 243.242 202.971 242.78 202.714C242.326 202.457 241.966 202.094 241.702 201.625C241.446 201.148 241.317 200.598 241.317 199.975C241.317 199.359 241.449 198.816 241.713 198.347C241.985 197.87 242.351 197.507 242.813 197.258C243.275 197.001 243.792 196.873 244.364 196.873C244.936 196.873 245.453 197.001 245.915 197.258C246.377 197.507 246.74 197.867 247.004 198.336C247.276 198.805 247.411 199.352 247.411 199.975C247.411 200.598 247.272 201.148 246.993 201.625C246.722 202.094 246.352 202.457 245.882 202.714C245.413 202.971 244.892 203.099 244.32 203.099ZM244.32 202.219C244.68 202.219 245.017 202.135 245.332 201.966C245.648 201.797 245.901 201.544 246.091 201.207C246.289 200.87 246.388 200.459 246.388 199.975C246.388 199.491 246.293 199.08 246.102 198.743C245.912 198.406 245.662 198.156 245.354 197.995C245.046 197.826 244.713 197.742 244.353 197.742C243.987 197.742 243.649 197.826 243.341 197.995C243.041 198.156 242.799 198.406 242.615 198.743C242.432 199.08 242.34 199.491 242.34 199.975C242.34 200.466 242.428 200.881 242.604 201.218C242.788 201.555 243.03 201.808 243.33 201.977C243.631 202.138 243.961 202.219 244.32 202.219ZM256.868 196.972L254.987 203H253.953L252.501 198.215L251.049 203H250.015L248.123 196.972H249.146L250.532 202.032L252.028 196.972H253.051L254.514 202.043L255.878 196.972H256.868Z" fill="#A4A4A4"/>
<path d="M38.115 196.939C37.9537 196.125 37.4513 195.718 36.608 195.718C35.9553 195.718 35.4677 195.971 35.145 196.477C34.8223 196.976 34.6647 197.801 34.672 198.952C34.8407 198.571 35.1193 198.274 35.508 198.061C35.904 197.841 36.344 197.731 36.828 197.731C37.5833 197.731 38.1847 197.966 38.632 198.435C39.0867 198.904 39.314 199.553 39.314 200.382C39.314 200.881 39.215 201.328 39.017 201.724C38.8263 202.12 38.533 202.435 38.137 202.67C37.7483 202.905 37.2753 203.022 36.718 203.022C35.9627 203.022 35.3723 202.853 34.947 202.516C34.5217 202.179 34.2247 201.713 34.056 201.119C33.8873 200.525 33.803 199.792 33.803 198.919C33.803 196.228 34.7417 194.882 36.619 194.882C37.3377 194.882 37.9023 195.076 38.313 195.465C38.7237 195.854 38.9657 196.345 39.039 196.939H38.115ZM36.619 198.578C36.3037 198.578 36.0067 198.644 35.728 198.776C35.4493 198.901 35.222 199.095 35.046 199.359C34.8773 199.616 34.793 199.931 34.793 200.305C34.793 200.862 34.9543 201.317 35.277 201.669C35.5997 202.014 36.0617 202.186 36.663 202.186C37.1763 202.186 37.5833 202.028 37.884 201.713C38.192 201.39 38.346 200.958 38.346 200.415C38.346 199.843 38.1993 199.396 37.906 199.073C37.6127 198.743 37.1837 198.578 36.619 198.578ZM40.7744 198.941C40.7744 197.68 40.9798 196.697 41.3904 195.993C41.8011 195.282 42.5198 194.926 43.5464 194.926C44.5658 194.926 45.2808 195.282 45.6914 195.993C46.1021 196.697 46.3074 197.68 46.3074 198.941C46.3074 200.224 46.1021 201.222 45.6914 201.933C45.2808 202.644 44.5658 203 43.5464 203C42.5198 203 41.8011 202.644 41.3904 201.933C40.9798 201.222 40.7744 200.224 40.7744 198.941ZM45.3174 198.941C45.3174 198.303 45.2734 197.764 45.1854 197.324C45.1048 196.877 44.9324 196.517 44.6684 196.246C44.4118 195.975 44.0378 195.839 43.5464 195.839C43.0478 195.839 42.6664 195.975 42.4024 196.246C42.1458 196.517 41.9734 196.877 41.8854 197.324C41.8048 197.764 41.7644 198.303 41.7644 198.941C41.7644 199.601 41.8048 200.155 41.8854 200.602C41.9734 201.049 42.1458 201.409 42.4024 201.68C42.6664 201.951 43.0478 202.087 43.5464 202.087C44.0378 202.087 44.4118 201.951 44.6684 201.68C44.9324 201.409 45.1048 201.049 45.1854 200.602C45.2734 200.155 45.3174 199.601 45.3174 198.941ZM53.1333 203.099C52.6713 203.099 52.2569 203.022 51.8903 202.868C51.5236 202.707 51.2339 202.487 51.0213 202.208C50.8086 201.922 50.6913 201.596 50.6693 201.229H51.7033C51.7326 201.53 51.8719 201.775 52.1213 201.966C52.3779 202.157 52.7116 202.252 53.1223 202.252C53.5036 202.252 53.8043 202.168 54.0243 201.999C54.2443 201.83 54.3543 201.618 54.3543 201.361C54.3543 201.097 54.2369 200.903 54.0023 200.778C53.7676 200.646 53.4046 200.518 52.9133 200.393C52.4659 200.276 52.0993 200.158 51.8133 200.041C51.5346 199.916 51.2926 199.737 51.0873 199.502C50.8893 199.26 50.7903 198.945 50.7903 198.556C50.7903 198.248 50.8819 197.966 51.0653 197.709C51.2486 197.452 51.5089 197.251 51.8463 197.104C52.1836 196.95 52.5686 196.873 53.0013 196.873C53.6686 196.873 54.2076 197.042 54.6183 197.379C55.0289 197.716 55.2489 198.178 55.2783 198.765H54.2773C54.2553 198.45 54.1269 198.197 53.8923 198.006C53.6649 197.815 53.3569 197.72 52.9683 197.72C52.6089 197.72 52.3229 197.797 52.1103 197.951C51.8976 198.105 51.7913 198.307 51.7913 198.556C51.7913 198.754 51.8536 198.919 51.9783 199.051C52.1103 199.176 52.2716 199.278 52.4623 199.359C52.6603 199.432 52.9316 199.517 53.2763 199.612C53.7089 199.729 54.0609 199.847 54.3323 199.964C54.6036 200.074 54.8346 200.243 55.0253 200.47C55.2233 200.697 55.3259 200.994 55.3333 201.361C55.3333 201.691 55.2416 201.988 55.0583 202.252C54.8749 202.516 54.6146 202.725 54.2773 202.879C53.9473 203.026 53.5659 203.099 53.1333 203.099ZM62.3563 199.755C62.3563 199.946 62.3453 200.147 62.3233 200.36H57.5053C57.542 200.954 57.7437 201.42 58.1103 201.757C58.4843 202.087 58.9353 202.252 59.4633 202.252C59.896 202.252 60.2553 202.153 60.5413 201.955C60.8347 201.75 61.04 201.478 61.1573 201.141H62.2353C62.074 201.72 61.7513 202.193 61.2673 202.56C60.7833 202.919 60.182 203.099 59.4633 203.099C58.8913 203.099 58.378 202.971 57.9233 202.714C57.476 202.457 57.124 202.094 56.8673 201.625C56.6107 201.148 56.4823 200.598 56.4823 199.975C56.4823 199.352 56.607 198.805 56.8563 198.336C57.1057 197.867 57.454 197.507 57.9013 197.258C58.356 197.001 58.8767 196.873 59.4633 196.873C60.0353 196.873 60.5413 196.998 60.9813 197.247C61.4213 197.496 61.7587 197.841 61.9933 198.281C62.2353 198.714 62.3563 199.205 62.3563 199.755ZM61.3223 199.546C61.3223 199.165 61.238 198.838 61.0693 198.567C60.9007 198.288 60.6697 198.079 60.3763 197.94C60.0903 197.793 59.7713 197.72 59.4193 197.72C58.9133 197.72 58.4807 197.881 58.1213 198.204C57.7693 198.527 57.5677 198.974 57.5163 199.546H61.3223ZM63.4136 199.975C63.4136 199.352 63.5383 198.809 63.7876 198.347C64.037 197.878 64.3816 197.515 64.8216 197.258C65.269 197.001 65.7786 196.873 66.3506 196.873C67.0913 196.873 67.7 197.053 68.1766 197.412C68.6606 197.771 68.9796 198.27 69.1336 198.908H68.0556C67.953 198.541 67.7513 198.252 67.4506 198.039C67.1573 197.826 66.7906 197.72 66.3506 197.72C65.7786 197.72 65.3166 197.918 64.9646 198.314C64.6126 198.703 64.4366 199.256 64.4366 199.975C64.4366 200.701 64.6126 201.262 64.9646 201.658C65.3166 202.054 65.7786 202.252 66.3506 202.252C66.7906 202.252 67.1573 202.149 67.4506 201.944C67.744 201.739 67.9456 201.445 68.0556 201.064H69.1336C68.9723 201.68 68.6496 202.175 68.1656 202.549C67.6816 202.916 67.0766 203.099 66.3506 203.099C65.7786 203.099 65.269 202.971 64.8216 202.714C64.3816 202.457 64.037 202.094 63.7876 201.625C63.5383 201.156 63.4136 200.606 63.4136 199.975ZM73.2083 203.099C72.6436 203.099 72.1303 202.971 71.6683 202.714C71.2136 202.457 70.8543 202.094 70.5903 201.625C70.3336 201.148 70.2053 200.598 70.2053 199.975C70.2053 199.359 70.3373 198.816 70.6013 198.347C70.8726 197.87 71.2393 197.507 71.7013 197.258C72.1633 197.001 72.6803 196.873 73.2523 196.873C73.8243 196.873 74.3413 197.001 74.8033 197.258C75.2653 197.507 75.6283 197.867 75.8923 198.336C76.1636 198.805 76.2993 199.352 76.2993 199.975C76.2993 200.598 76.1599 201.148 75.8813 201.625C75.6099 202.094 75.2396 202.457 74.7703 202.714C74.3009 202.971 73.7803 203.099 73.2083 203.099ZM73.2083 202.219C73.5676 202.219 73.9049 202.135 74.2203 201.966C74.5356 201.797 74.7886 201.544 74.9793 201.207C75.1773 200.87 75.2763 200.459 75.2763 199.975C75.2763 199.491 75.1809 199.08 74.9903 198.743C74.7996 198.406 74.5503 198.156 74.2423 197.995C73.9343 197.826 73.6006 197.742 73.2413 197.742C72.8746 197.742 72.5373 197.826 72.2293 197.995C71.9286 198.156 71.6866 198.406 71.5033 198.743C71.3199 199.08 71.2283 199.491 71.2283 199.975C71.2283 200.466 71.3163 200.881 71.4923 201.218C71.6756 201.555 71.9176 201.808 72.2183 201.977C72.5189 202.138 72.8489 202.219 73.2083 202.219ZM80.6624 196.862C81.3957 196.862 81.9897 197.086 82.4444 197.533C82.8991 197.973 83.1264 198.611 83.1264 199.447V203H82.1364V199.59C82.1364 198.989 81.9861 198.53 81.6854 198.215C81.3847 197.892 80.9741 197.731 80.4534 197.731C79.9254 197.731 79.5037 197.896 79.1884 198.226C78.8804 198.556 78.7264 199.036 78.7264 199.667V203H77.7254V196.972H78.7264V197.83C78.9244 197.522 79.1921 197.284 79.5294 197.115C79.8741 196.946 80.2517 196.862 80.6624 196.862ZM84.4975 199.964C84.4975 199.348 84.6222 198.809 84.8715 198.347C85.1209 197.878 85.4619 197.515 85.8945 197.258C86.3345 197.001 86.8259 196.873 87.3685 196.873C87.8379 196.873 88.2742 196.983 88.6775 197.203C89.0809 197.416 89.3889 197.698 89.6015 198.05V194.86H90.6135V203H89.6015V201.867C89.4035 202.226 89.1102 202.523 88.7215 202.758C88.3329 202.985 87.8782 203.099 87.3575 203.099C86.8222 203.099 86.3345 202.967 85.8945 202.703C85.4619 202.439 85.1209 202.069 84.8715 201.592C84.6222 201.115 84.4975 200.573 84.4975 199.964ZM89.6015 199.975C89.6015 199.52 89.5099 199.124 89.3265 198.787C89.1432 198.45 88.8939 198.193 88.5785 198.017C88.2705 197.834 87.9295 197.742 87.5555 197.742C87.1815 197.742 86.8405 197.83 86.5325 198.006C86.2245 198.182 85.9789 198.439 85.7955 198.776C85.6122 199.113 85.5205 199.509 85.5205 199.964C85.5205 200.426 85.6122 200.829 85.7955 201.174C85.9789 201.511 86.2245 201.772 86.5325 201.955C86.8405 202.131 87.1815 202.219 87.5555 202.219C87.9295 202.219 88.2705 202.131 88.5785 201.955C88.8939 201.772 89.1432 201.511 89.3265 201.174C89.5099 200.829 89.6015 200.43 89.6015 199.975ZM94.5491 203.099C94.0871 203.099 93.6728 203.022 93.3061 202.868C92.9395 202.707 92.6498 202.487 92.4371 202.208C92.2245 201.922 92.1071 201.596 92.0851 201.229H93.1191C93.1485 201.53 93.2878 201.775 93.5371 201.966C93.7938 202.157 94.1275 202.252 94.5381 202.252C94.9195 202.252 95.2201 202.168 95.4401 201.999C95.6601 201.83 95.7701 201.618 95.7701 201.361C95.7701 201.097 95.6528 200.903 95.4181 200.778C95.1835 200.646 94.8205 200.518 94.3291 200.393C93.8818 200.276 93.5151 200.158 93.2291 200.041C92.9505 199.916 92.7085 199.737 92.5031 199.502C92.3051 199.26 92.2061 198.945 92.2061 198.556C92.2061 198.248 92.2978 197.966 92.4811 197.709C92.6645 197.452 92.9248 197.251 93.2621 197.104C93.5995 196.95 93.9845 196.873 94.4171 196.873C95.0845 196.873 95.6235 197.042 96.0341 197.379C96.4448 197.716 96.6648 198.178 96.6941 198.765H95.6931C95.6711 198.45 95.5428 198.197 95.3081 198.006C95.0808 197.815 94.7728 197.72 94.3841 197.72C94.0248 197.72 93.7388 197.797 93.5261 197.951C93.3135 198.105 93.2071 198.307 93.2071 198.556C93.2071 198.754 93.2695 198.919 93.3941 199.051C93.5261 199.176 93.6875 199.278 93.8781 199.359C94.0761 199.432 94.3475 199.517 94.6921 199.612C95.1248 199.729 95.4768 199.847 95.7481 199.964C96.0195 200.074 96.2505 200.243 96.4411 200.47C96.6391 200.697 96.7418 200.994 96.7491 201.361C96.7491 201.691 96.6575 201.988 96.4741 202.252C96.2908 202.516 96.0305 202.725 95.6931 202.879C95.3631 203.026 94.9818 203.099 94.5491 203.099ZM100.941 199.964C100.941 199.348 101.065 198.809 101.315 198.347C101.564 197.878 101.905 197.515 102.338 197.258C102.778 197.001 103.265 196.873 103.801 196.873C104.329 196.873 104.787 196.987 105.176 197.214C105.564 197.441 105.854 197.727 106.045 198.072V196.972H107.057V203H106.045V201.878C105.847 202.23 105.55 202.523 105.154 202.758C104.765 202.985 104.31 203.099 103.79 203.099C103.254 203.099 102.77 202.967 102.338 202.703C101.905 202.439 101.564 202.069 101.315 201.592C101.065 201.115 100.941 200.573 100.941 199.964ZM106.045 199.975C106.045 199.52 105.953 199.124 105.77 198.787C105.586 198.45 105.337 198.193 105.022 198.017C104.714 197.834 104.373 197.742 103.999 197.742C103.625 197.742 103.284 197.83 102.976 198.006C102.668 198.182 102.422 198.439 102.239 198.776C102.055 199.113 101.964 199.509 101.964 199.964C101.964 200.426 102.055 200.829 102.239 201.174C102.422 201.511 102.668 201.772 102.976 201.955C103.284 202.131 103.625 202.219 103.999 202.219C104.373 202.219 104.714 202.131 105.022 201.955C105.337 201.772 105.586 201.511 105.77 201.174C105.953 200.829 106.045 200.43 106.045 199.975ZM111.344 196.873C111.865 196.873 112.32 196.987 112.708 197.214C113.104 197.441 113.398 197.727 113.588 198.072V196.972H114.6V203.132C114.6 203.682 114.483 204.17 114.248 204.595C114.014 205.028 113.676 205.365 113.236 205.607C112.804 205.849 112.298 205.97 111.718 205.97C110.926 205.97 110.266 205.783 109.738 205.409C109.21 205.035 108.899 204.525 108.803 203.88H109.793C109.903 204.247 110.131 204.54 110.475 204.76C110.82 204.987 111.234 205.101 111.718 205.101C112.268 205.101 112.716 204.929 113.06 204.584C113.412 204.239 113.588 203.755 113.588 203.132V201.867C113.39 202.219 113.097 202.512 112.708 202.747C112.32 202.982 111.865 203.099 111.344 203.099C110.809 203.099 110.321 202.967 109.881 202.703C109.449 202.439 109.108 202.069 108.858 201.592C108.609 201.115 108.484 200.573 108.484 199.964C108.484 199.348 108.609 198.809 108.858 198.347C109.108 197.878 109.449 197.515 109.881 197.258C110.321 197.001 110.809 196.873 111.344 196.873ZM113.588 199.975C113.588 199.52 113.497 199.124 113.313 198.787C113.13 198.45 112.881 198.193 112.565 198.017C112.257 197.834 111.916 197.742 111.542 197.742C111.168 197.742 110.827 197.83 110.519 198.006C110.211 198.182 109.966 198.439 109.782 198.776C109.599 199.113 109.507 199.509 109.507 199.964C109.507 200.426 109.599 200.829 109.782 201.174C109.966 201.511 110.211 201.772 110.519 201.955C110.827 202.131 111.168 202.219 111.542 202.219C111.916 202.219 112.257 202.131 112.565 201.955C112.881 201.772 113.13 201.511 113.313 201.174C113.497 200.829 113.588 200.43 113.588 199.975ZM119.031 203.099C118.466 203.099 117.953 202.971 117.491 202.714C117.036 202.457 116.677 202.094 116.413 201.625C116.156 201.148 116.028 200.598 116.028 199.975C116.028 199.359 116.16 198.816 116.424 198.347C116.695 197.87 117.062 197.507 117.524 197.258C117.986 197.001 118.503 196.873 119.075 196.873C119.647 196.873 120.164 197.001 120.626 197.258C121.088 197.507 121.451 197.867 121.715 198.336C121.986 198.805 122.122 199.352 122.122 199.975C122.122 200.598 121.983 201.148 121.704 201.625C121.433 202.094 121.062 202.457 120.593 202.714C120.124 202.971 119.603 203.099 119.031 203.099ZM119.031 202.219C119.39 202.219 119.728 202.135 120.043 201.966C120.358 201.797 120.611 201.544 120.802 201.207C121 200.87 121.099 200.459 121.099 199.975C121.099 199.491 121.004 199.08 120.813 198.743C120.622 198.406 120.373 198.156 120.065 197.995C119.757 197.826 119.423 197.742 119.064 197.742C118.697 197.742 118.36 197.826 118.052 197.995C117.751 198.156 117.509 198.406 117.326 198.743C117.143 199.08 117.051 199.491 117.051 199.975C117.051 200.466 117.139 200.881 117.315 201.218C117.498 201.555 117.74 201.808 118.041 201.977C118.342 202.138 118.672 202.219 119.031 202.219Z" fill="#A4A4A4"/>
</g>
<defs>
<filter id="filter0_d_282_2660" x="0" y="0" width="311" height="254.725" filterUnits="userSpaceOnUse" color-interpolation-filters="sRGB">
<feFlood flood-opacity="0" result="BackgroundImageFix"/>
<feColorMatrix in="SourceAlpha" type="matrix" values="0 0 0 0 0 0 0 0 0 0 0 0 0 0 0 0 0 0 127 0" result="hardAlpha"/>
<feOffset dy="5"/>
<feGaussianBlur stdDeviation="7"/>
<feColorMatrix type="matrix" values="0 0 0 0 0 0 0 0 0 0 0 0 0 0 0 0 0 0 0.05 0"/>
<feBlend mode="normal" in2="BackgroundImageFix" result="effect1_dropShadow_282_2660"/>
<feBlend mode="normal" in="SourceGraphic" in2="effect1_dropShadow_282_2660" result="shape"/>
</filter>
<linearGradient id="paint0_linear_282_2660" x1="145" y1="101" x2="145" y2="235.725" gradientUnits="userSpaceOnUse">
<stop stop-color="#596CFF" stop-opacity="0.22"/>
<stop offset="1" stop-color="white" stop-opacity="0"/>
</linearGradient>
</defs>
</svg>
