<svg width="106" height="106" viewBox="0 0 106 106" fill="none" xmlns="http://www.w3.org/2000/svg">
<mask id="path-1-inside-1_282_2663" fill="white">
<path d="M52.7872 4.47222C52.7872 2.00228 54.7931 -0.0196784 57.2542 0.189332C64.384 0.794841 71.3327 2.84526 77.6707 6.23299C85.3265 10.3251 91.855 16.2422 96.6778 23.46C101.501 30.6778 104.469 38.9737 105.32 47.6127C106.171 56.2518 104.878 64.9673 101.556 72.9873C98.2338 81.0074 92.9852 88.0844 86.2748 93.5914C79.5644 99.0985 71.5995 102.866 63.0854 104.559C54.5714 106.253 45.7711 105.82 37.4641 103.301C30.5869 101.214 24.2236 97.7508 18.7539 93.1374C16.8658 91.5449 16.8772 88.6968 18.6237 86.9503L30.962 74.612C32.7085 72.8655 35.5228 72.9027 37.5388 74.3297C39.8441 75.9614 42.4044 77.2182 45.1256 78.0436C49.2792 79.3036 53.6793 79.5197 57.9363 78.673C62.1933 77.8262 66.1758 75.9426 69.531 73.1891C72.8862 70.4356 75.5105 66.8971 77.1715 62.887C78.8325 58.877 79.4789 54.5193 79.0535 50.1997C78.6281 45.8802 77.1439 41.7323 74.7325 38.1234C72.3211 34.5144 69.0569 31.5559 65.229 29.5099C62.7211 28.1694 60.022 27.2477 57.2381 26.7714C54.8036 26.3548 52.7872 24.3911 52.7872 21.9211L52.7872 4.47222Z"/>
</mask>
<path d="M52.7872 4.47222C52.7872 2.00228 54.7931 -0.0196784 57.2542 0.189332C64.384 0.794841 71.3327 2.84526 77.6707 6.23299C85.3265 10.3251 91.855 16.2422 96.6778 23.46C101.501 30.6778 104.469 38.9737 105.32 47.6127C106.171 56.2518 104.878 64.9673 101.556 72.9873C98.2338 81.0074 92.9852 88.0844 86.2748 93.5914C79.5644 99.0985 71.5995 102.866 63.0854 104.559C54.5714 106.253 45.7711 105.82 37.4641 103.301C30.5869 101.214 24.2236 97.7508 18.7539 93.1374C16.8658 91.5449 16.8772 88.6968 18.6237 86.9503L30.962 74.612C32.7085 72.8655 35.5228 72.9027 37.5388 74.3297C39.8441 75.9614 42.4044 77.2182 45.1256 78.0436C49.2792 79.3036 53.6793 79.5197 57.9363 78.673C62.1933 77.8262 66.1758 75.9426 69.531 73.1891C72.8862 70.4356 75.5105 66.8971 77.1715 62.887C78.8325 58.877 79.4789 54.5193 79.0535 50.1997C78.6281 45.8802 77.1439 41.7323 74.7325 38.1234C72.3211 34.5144 69.0569 31.5559 65.229 29.5099C62.7211 28.1694 60.022 27.2477 57.2381 26.7714C54.8036 26.3548 52.7872 24.3911 52.7872 21.9211L52.7872 4.47222Z" fill="url(#paint0_linear_282_2663)" stroke="white" stroke-width="3.57778" mask="url(#path-1-inside-1_282_2663)"/>
<g opacity="0.5">
<mask id="path-2-inside-2_282_2663" fill="white">
<path d="M4.58414 49.5075C2.11989 49.3399 0.23875 47.2011 0.614277 44.7599C2.39537 33.1813 7.98864 22.4761 16.5734 14.3813C25.1582 6.28646 36.1733 1.33122 47.8364 0.232835C50.2955 0.00125176 52.3201 2.00469 52.3429 4.47453L52.5033 21.9227C52.5261 24.3926 50.5278 26.3747 48.0971 26.8136C43.0945 27.717 38.425 30.0532 34.6803 33.5841C30.9357 37.1151 28.3294 41.6394 27.1339 46.5804C26.5531 48.9811 24.4571 50.8596 21.9928 50.6919L4.58414 49.5075Z"/>
</mask>
<path d="M4.58414 49.5075C2.11989 49.3399 0.23875 47.2011 0.614277 44.7599C2.39537 33.1813 7.98864 22.4761 16.5734 14.3813C25.1582 6.28646 36.1733 1.33122 47.8364 0.232835C50.2955 0.00125176 52.3201 2.00469 52.3429 4.47453L52.5033 21.9227C52.5261 24.3926 50.5278 26.3747 48.0971 26.8136C43.0945 27.717 38.425 30.0532 34.6803 33.5841C30.9357 37.1151 28.3294 41.6394 27.1339 46.5804C26.5531 48.9811 24.4571 50.8596 21.9928 50.6919L4.58414 49.5075Z" fill="black" fill-opacity="0.2" stroke="white" stroke-width="3.57778" mask="url(#path-2-inside-2_282_2663)"/>
</g>
<g opacity="0.8">
<mask id="path-3-inside-3_282_2663" fill="white">
<path d="M18.6235 86.9505C16.8769 88.697 14.0289 88.7084 12.4364 86.8204C8.55704 82.2209 5.48532 76.9833 3.36405 71.3292C1.24278 65.6751 0.111341 59.7096 0.00801873 53.6934C-0.0343943 51.2239 2.11835 49.3591 4.58265 49.5258L21.9918 50.7036C24.4561 50.8703 26.2793 53.0146 26.5305 55.4717C26.7602 57.7183 27.2779 59.9322 28.0755 62.0581C28.8731 64.184 29.9394 66.1921 31.2441 68.0354C32.6711 70.0514 32.7082 72.8658 30.9617 74.6123L18.6235 86.9505Z"/>
</mask>
<path d="M18.6235 86.9505C16.8769 88.697 14.0289 88.7084 12.4364 86.8204C8.55704 82.2209 5.48532 76.9833 3.36405 71.3292C1.24278 65.6751 0.111341 59.7096 0.00801873 53.6934C-0.0343943 51.2239 2.11835 49.3591 4.58265 49.5258L21.9918 50.7036C24.4561 50.8703 26.2793 53.0146 26.5305 55.4717C26.7602 57.7183 27.2779 59.9322 28.0755 62.0581C28.8731 64.184 29.9394 66.1921 31.2441 68.0354C32.6711 70.0514 32.7082 72.8658 30.9617 74.6123L18.6235 86.9505Z" fill="url(#paint1_linear_282_2663)" stroke="white" stroke-width="3.57778" mask="url(#path-3-inside-3_282_2663)"/>
</g>
<defs>
<linearGradient id="paint0_linear_282_2663" x1="71.5777" y1="53.3683" x2="56.2843" y2="-206.893" gradientUnits="userSpaceOnUse">
<stop stop-color="#7899EF"/>
<stop offset="1" stop-color="#1B59F8" stop-opacity="0"/>
</linearGradient>
<linearGradient id="paint1_linear_282_2663" x1="33.9965" y1="52.2055" x2="49.2898" y2="312.466" gradientUnits="userSpaceOnUse">
<stop stop-color="#52459F"/>
<stop offset="1" stop-color="#1B59F8" stop-opacity="0.46"/>
</linearGradient>
</defs>
</svg>
