<svg width="26" height="26" viewBox="0 0 26 26" fill="none" xmlns="http://www.w3.org/2000/svg">
<path d="M9.45833 25.1667H16.7083C22.75 25.1667 25.1667 22.75 25.1667 16.7083V9.45833C25.1667 3.41667 22.75 1 16.7083 1H9.45833C3.41667 1 1 3.41667 1 9.45833V16.7083C1 22.75 3.41667 25.1667 9.45833 25.1667Z" stroke="#292D32" stroke-width="1.5" stroke-linecap="round" stroke-linejoin="round"/>
<path d="M12 15C11.8022 15 11.6089 15.0587 11.4444 15.1685C11.28 15.2784 11.1518 15.4346 11.0761 15.6173C11.0004 15.8 10.9806 16.0011 11.0192 16.1951C11.0578 16.3891 11.153 16.5673 11.2929 16.7071C11.4327 16.847 11.6109 16.9422 11.8049 16.9808C11.9989 17.0194 12.2 16.9996 12.3827 16.9239C12.5654 16.8482 12.7216 16.72 12.8315 16.5556C12.9413 16.3911 13 16.1978 13 16C13.0002 15.8686 12.9745 15.7385 12.9243 15.6171C12.8741 15.4957 12.8004 15.3854 12.7075 15.2925C12.6146 15.1996 12.5043 15.1259 12.3829 15.0757C12.2615 15.0255 12.1314 14.9998 12 15Z" fill="#474747"/>
<path d="M14.75 4H7.75C7.28718 4.00167 6.8439 4.19213 6.51745 4.5296C6.191 4.86706 6.00805 5.32395 6.00875 5.8L6 20.2C5.9993 20.6761 6.18225 21.1329 6.5087 21.4704C6.83515 21.8079 7.27843 21.9983 7.74125 22H18.25C18.7137 21.9986 19.158 21.8085 19.4859 21.4712C19.8138 21.134 19.9986 20.677 20 20.2V9.4L14.75 4ZM15.5051 17.4622L14.7176 18.8635C14.6929 18.9048 14.6552 18.9361 14.6108 18.9523C14.5664 18.9685 14.518 18.9686 14.4735 18.9526L13.4891 18.5476C13.2865 18.709 13.0641 18.8421 12.8276 18.9436L12.6789 20.0137C12.6703 20.0613 12.6459 20.1043 12.6098 20.1354C12.5737 20.1664 12.5282 20.1836 12.4811 20.1838H10.9061C10.8588 20.1846 10.8127 20.1677 10.7765 20.1363C10.7403 20.1048 10.7164 20.061 10.7093 20.0128L10.5605 18.9445C10.3197 18.846 10.0939 18.7124 9.89025 18.5476L8.91375 18.9526C8.86931 18.97 8.82029 18.9705 8.77553 18.954C8.73077 18.9375 8.69322 18.9051 8.66963 18.8626L7.88213 17.4622C7.86014 17.4199 7.85283 17.3712 7.86143 17.3241C7.87002 17.2769 7.89399 17.2342 7.92938 17.203L8.76413 16.5307C8.73265 16.2671 8.73265 16.0005 8.76413 15.7369L7.92938 15.0646C7.8924 15.0345 7.86724 14.9917 7.85855 14.9441C7.84987 14.8965 7.85824 14.8472 7.88213 14.8054L8.66963 13.4041C8.69424 13.3625 8.73201 13.3308 8.77662 13.3144C8.82122 13.298 8.86995 13.2979 8.91463 13.3141L9.89025 13.7191C10.0967 13.5593 10.3215 13.4263 10.5596 13.3231L10.7093 12.2539C10.7176 12.2063 10.7418 12.1632 10.7778 12.1319C10.8137 12.1007 10.8591 12.0834 10.9061 12.0829H12.4811C12.5276 12.0824 12.5726 12.0995 12.6075 12.1311C12.6424 12.1627 12.6647 12.2064 12.6701 12.2539L12.8198 13.3231C13.0602 13.4213 13.2857 13.5547 13.4891 13.7191L14.4656 13.3141C14.5102 13.2965 14.5594 13.2959 14.6043 13.3124C14.6493 13.3289 14.687 13.3614 14.7106 13.4041L15.4981 14.8054C15.52 14.8478 15.5272 14.8966 15.5184 14.9437C15.5097 14.9909 15.4855 15.0335 15.45 15.0646L14.6153 15.7369C14.6377 15.8676 14.6483 16.0002 14.6468 16.1329C14.6444 16.2661 14.6339 16.3989 14.6153 16.5307L15.4579 17.203C15.4933 17.2342 15.5172 17.2769 15.5258 17.3241C15.5344 17.3712 15.5271 17.4199 15.5051 17.4622V17.4622ZM13.875 10.3V5.35L18.6875 10.3H13.875Z" fill="#474747"/>
</svg>
