<svg width="27" height="27" viewBox="0 0 27 27" fill="none" xmlns="http://www.w3.org/2000/svg">
<path d="M9.92485 9.04335C9.68112 9.04335 9.47475 9.12919 9.30576 9.30088C9.13677 9.47322 9.05227 9.67627 9.05227 9.91002C9.05227 10.1576 9.13677 10.364 9.30576 10.5291C9.47475 10.6941 9.68112 10.7767 9.92485 10.7767C10.1686 10.7767 10.3685 10.6941 10.5244 10.5291C10.6804 10.364 10.7584 10.1642 10.7584 9.92983C10.7584 9.68287 10.6804 9.47322 10.5244 9.30088C10.3685 9.12919 10.1686 9.04335 9.92485 9.04335ZM9.92485 16.2035C9.68112 16.2035 9.47475 16.286 9.30576 16.4511C9.13677 16.6162 9.05227 16.8156 9.05227 17.0494C9.05227 17.297 9.13677 17.5066 9.30576 17.6783C9.47475 17.8507 9.68112 17.9368 9.92485 17.9368C10.1686 17.9368 10.3685 17.8507 10.5244 17.6783C10.6804 17.5066 10.7584 17.3039 10.7584 17.0702C10.7584 16.8226 10.6804 16.6162 10.5244 16.4511C10.3685 16.286 10.1686 16.2035 9.92485 16.2035ZM7 12.8398V7H20V12.8398H7ZM7.89403 7.90827V11.9316H19.106V7.90827H7.89403ZM7 20V14.1602H20V20H7ZM7.89403 15.0684V19.0917H19.106V15.0684H7.89403Z" fill="#292D32"/>
<path d="M9.87471 25.5832H17.1247C23.1664 25.5832 25.583 23.1665 25.583 17.1248V9.87484C25.583 3.83317 23.1664 1.4165 17.1247 1.4165H9.87471C3.83305 1.4165 1.41638 3.83317 1.41638 9.87484V17.1248C1.41638 23.1665 3.83305 25.5832 9.87471 25.5832Z" stroke="#292D32" stroke-width="1.5" stroke-linecap="round" stroke-linejoin="round"/>
</svg>
