<svg width="19" height="19" viewBox="0 0 19 19" fill="none" xmlns="http://www.w3.org/2000/svg">
<path d="M8.61061 16.25C10.3116 16.2496 11.9636 15.6802 13.3036 14.6323L17.5164 18.8451L18.8715 17.49L14.6586 13.2772C15.7071 11.9371 16.2769 10.2848 16.2773 8.58329C16.2773 4.35608 12.8378 0.916626 8.61061 0.916626C4.3834 0.916626 0.943939 4.35608 0.943939 8.58329C0.943939 12.8105 4.3834 16.25 8.61061 16.25ZM8.61061 2.83329C11.7817 2.83329 14.3606 5.41217 14.3606 8.58329C14.3606 11.7544 11.7817 14.3333 8.61061 14.3333C5.43948 14.3333 2.86061 11.7544 2.86061 8.58329C2.86061 5.41217 5.43948 2.83329 8.61061 2.83329Z" fill="#B7B7B7"/>
</svg>
