<svg width="15" height="15" viewBox="0 0 15 15" fill="none" xmlns="http://www.w3.org/2000/svg">
<path d="M6.88477 0.117188H8.11523C8.22461 0.117188 8.2793 0.171875 8.2793 0.28125V14.7188C8.2793 14.8281 8.22461 14.8828 8.11523 14.8828H6.88477C6.77539 14.8828 6.7207 14.8281 6.7207 14.7188V0.28125C6.7207 0.171875 6.77539 0.117188 6.88477 0.117188Z" fill="white"/>
<path d="M0.609375 6.7207H14.3906C14.5 6.7207 14.5547 6.77539 14.5547 6.88477V8.11523C14.5547 8.22461 14.5 8.2793 14.3906 8.2793H0.609375C0.5 8.2793 0.445312 8.22461 0.445312 8.11523V6.88477C0.445312 6.77539 0.5 6.7207 0.609375 6.7207Z" fill="white"/>
</svg>
