<svg width="28" height="28" viewBox="0 0 28 28" fill="none" xmlns="http://www.w3.org/2000/svg">
<path d="M14.2534 13.1217C14.2195 13.1217 14.1969 13.1217 14.163 13.1217C14.1066 13.1104 14.0275 13.1104 13.9598 13.1217C10.685 13.02 8.21191 10.4453 8.21191 7.27216C8.21191 4.04252 10.8431 1.41138 14.0727 1.41138C17.3023 1.41138 19.9335 4.04252 19.9335 7.27216C19.9222 10.4453 17.4379 13.02 14.2873 13.1217C14.276 13.1217 14.2647 13.1217 14.2534 13.1217ZM14.0727 3.10525C11.7803 3.10525 9.90578 4.97979 9.90578 7.27216C9.90578 9.53066 11.6674 11.3487 13.9146 11.4278C13.9711 11.4165 14.1292 11.4165 14.276 11.4278C16.4893 11.3262 18.2283 9.50807 18.2396 7.27216C18.2396 4.97979 16.3651 3.10525 14.0727 3.10525Z" fill="#7B7B7B"/>
<path d="M14.2647 25.4644C12.0514 25.4644 9.82676 24.8998 8.14419 23.7706C6.57454 22.7316 5.71631 21.3088 5.71631 19.7617C5.71631 18.2147 6.57454 16.7805 8.14419 15.7303C11.5319 13.4831 17.0201 13.4831 20.3852 15.7303C21.9436 16.7692 22.8131 18.1921 22.8131 19.7391C22.8131 21.2862 21.9549 22.7204 20.3852 23.7706C18.6913 24.8998 16.478 25.4644 14.2647 25.4644ZM9.08146 17.1532C7.99739 17.8759 7.41018 18.8019 7.41018 19.773C7.41018 20.7329 8.00868 21.6589 9.08146 22.3703C11.8933 24.2561 16.6361 24.2561 19.4479 22.3703C20.532 21.6476 21.1192 20.7216 21.1192 19.7504C21.1192 18.7906 20.5207 17.8646 19.4479 17.1532C16.6361 15.2786 11.8933 15.2786 9.08146 17.1532Z" fill="#7B7B7B"/>
</svg>
