<svg width="311" height="244" viewBox="0 0 311 244" fill="none" xmlns="http://www.w3.org/2000/svg">
<g filter="url(#filter0_d_282_2661)">
<rect x="14" y="9" width="283" height="216" rx="20" fill="white"/>
<path d="M33 189H257" stroke="#7B7B7B" stroke-opacity="0.45" stroke-width="2"/>
<path d="M263.72 186.512C263.72 185.128 263.952 184.048 264.416 183.272C264.888 182.488 265.696 182.096 266.84 182.096C267.984 182.096 268.788 182.488 269.252 183.272C269.724 184.048 269.96 185.128 269.96 186.512C269.96 187.912 269.724 189.008 269.252 189.8C268.788 190.584 267.984 190.976 266.84 190.976C265.696 190.976 264.888 190.584 264.416 189.8C263.952 189.008 263.72 187.912 263.72 186.512ZM268.616 186.512C268.616 185.864 268.572 185.316 268.484 184.868C268.404 184.42 268.236 184.056 267.98 183.776C267.724 183.488 267.344 183.344 266.84 183.344C266.336 183.344 265.956 183.488 265.7 183.776C265.444 184.056 265.272 184.42 265.184 184.868C265.104 185.316 265.064 185.864 265.064 186.512C265.064 187.184 265.104 187.748 265.184 188.204C265.264 188.66 265.432 189.028 265.688 189.308C265.952 189.588 266.336 189.728 266.84 189.728C267.344 189.728 267.724 189.588 267.98 189.308C268.244 189.028 268.416 188.66 268.496 188.204C268.576 187.748 268.616 187.184 268.616 186.512Z" fill="#7B7B7B" fill-opacity="0.73"/>
<path d="M263.54 47.5V46.252H266.036V55H264.656V47.5H263.54ZM267.915 50.512C267.915 49.128 268.147 48.048 268.611 47.272C269.083 46.488 269.891 46.096 271.035 46.096C272.179 46.096 272.983 46.488 273.447 47.272C273.919 48.048 274.155 49.128 274.155 50.512C274.155 51.912 273.919 53.008 273.447 53.8C272.983 54.584 272.179 54.976 271.035 54.976C269.891 54.976 269.083 54.584 268.611 53.8C268.147 53.008 267.915 51.912 267.915 50.512ZM272.811 50.512C272.811 49.864 272.767 49.316 272.679 48.868C272.599 48.42 272.431 48.056 272.175 47.776C271.919 47.488 271.539 47.344 271.035 47.344C270.531 47.344 270.151 47.488 269.895 47.776C269.639 48.056 269.467 48.42 269.379 48.868C269.299 49.316 269.259 49.864 269.259 50.512C269.259 51.184 269.299 51.748 269.379 52.204C269.459 52.66 269.627 53.028 269.883 53.308C270.147 53.588 270.531 53.728 271.035 53.728C271.539 53.728 271.919 53.588 272.175 53.308C272.439 53.028 272.611 52.66 272.691 52.204C272.771 51.748 272.811 51.184 272.811 50.512ZM275.603 50.512C275.603 49.128 275.835 48.048 276.299 47.272C276.771 46.488 277.579 46.096 278.723 46.096C279.867 46.096 280.671 46.488 281.135 47.272C281.607 48.048 281.843 49.128 281.843 50.512C281.843 51.912 281.607 53.008 281.135 53.8C280.671 54.584 279.867 54.976 278.723 54.976C277.579 54.976 276.771 54.584 276.299 53.8C275.835 53.008 275.603 51.912 275.603 50.512ZM280.499 50.512C280.499 49.864 280.455 49.316 280.367 48.868C280.287 48.42 280.119 48.056 279.863 47.776C279.607 47.488 279.227 47.344 278.723 47.344C278.219 47.344 277.839 47.488 277.583 47.776C277.327 48.056 277.155 48.42 277.067 48.868C276.987 49.316 276.947 49.864 276.947 50.512C276.947 51.184 276.987 51.748 277.067 52.204C277.147 52.66 277.315 53.028 277.571 53.308C277.835 53.588 278.219 53.728 278.723 53.728C279.227 53.728 279.607 53.588 279.863 53.308C280.127 53.028 280.299 52.66 280.379 52.204C280.459 51.748 280.499 51.184 280.499 50.512Z" fill="#7B7B7B" fill-opacity="0.73"/>
<path d="M33 186H153.694V104H257" stroke="#756AB3" stroke-width="3"/>
<path d="M239.875 202H238.874L234.848 195.895V202H233.847V194.322H234.848L238.874 200.416V194.322H239.875V202ZM244.32 202.099C243.756 202.099 243.242 201.971 242.78 201.714C242.326 201.457 241.966 201.094 241.702 200.625C241.446 200.148 241.317 199.598 241.317 198.975C241.317 198.359 241.449 197.816 241.713 197.347C241.985 196.87 242.351 196.507 242.813 196.258C243.275 196.001 243.792 195.873 244.364 195.873C244.936 195.873 245.453 196.001 245.915 196.258C246.377 196.507 246.74 196.867 247.004 197.336C247.276 197.805 247.411 198.352 247.411 198.975C247.411 199.598 247.272 200.148 246.993 200.625C246.722 201.094 246.352 201.457 245.882 201.714C245.413 201.971 244.892 202.099 244.32 202.099ZM244.32 201.219C244.68 201.219 245.017 201.135 245.332 200.966C245.648 200.797 245.901 200.544 246.091 200.207C246.289 199.87 246.388 199.459 246.388 198.975C246.388 198.491 246.293 198.08 246.102 197.743C245.912 197.406 245.662 197.156 245.354 196.995C245.046 196.826 244.713 196.742 244.353 196.742C243.987 196.742 243.649 196.826 243.341 196.995C243.041 197.156 242.799 197.406 242.615 197.743C242.432 198.08 242.34 198.491 242.34 198.975C242.34 199.466 242.428 199.881 242.604 200.218C242.788 200.555 243.03 200.808 243.33 200.977C243.631 201.138 243.961 201.219 244.32 201.219ZM256.868 195.972L254.987 202H253.953L252.501 197.215L251.049 202H250.015L248.123 195.972H249.146L250.532 201.032L252.028 195.972H253.051L254.514 201.043L255.878 195.972H256.868Z" fill="#A4A4A4"/>
<path d="M38.115 195.939C37.9537 195.125 37.4513 194.718 36.608 194.718C35.9553 194.718 35.4677 194.971 35.145 195.477C34.8223 195.976 34.6647 196.801 34.672 197.952C34.8407 197.571 35.1193 197.274 35.508 197.061C35.904 196.841 36.344 196.731 36.828 196.731C37.5833 196.731 38.1847 196.966 38.632 197.435C39.0867 197.904 39.314 198.553 39.314 199.382C39.314 199.881 39.215 200.328 39.017 200.724C38.8263 201.12 38.533 201.435 38.137 201.67C37.7483 201.905 37.2753 202.022 36.718 202.022C35.9627 202.022 35.3723 201.853 34.947 201.516C34.5217 201.179 34.2247 200.713 34.056 200.119C33.8873 199.525 33.803 198.792 33.803 197.919C33.803 195.228 34.7417 193.882 36.619 193.882C37.3377 193.882 37.9023 194.076 38.313 194.465C38.7237 194.854 38.9657 195.345 39.039 195.939H38.115ZM36.619 197.578C36.3037 197.578 36.0067 197.644 35.728 197.776C35.4493 197.901 35.222 198.095 35.046 198.359C34.8773 198.616 34.793 198.931 34.793 199.305C34.793 199.862 34.9543 200.317 35.277 200.669C35.5997 201.014 36.0617 201.186 36.663 201.186C37.1763 201.186 37.5833 201.028 37.884 200.713C38.192 200.39 38.346 199.958 38.346 199.415C38.346 198.843 38.1993 198.396 37.906 198.073C37.6127 197.743 37.1837 197.578 36.619 197.578ZM40.7744 197.941C40.7744 196.68 40.9798 195.697 41.3904 194.993C41.8011 194.282 42.5198 193.926 43.5464 193.926C44.5658 193.926 45.2808 194.282 45.6914 194.993C46.1021 195.697 46.3074 196.68 46.3074 197.941C46.3074 199.224 46.1021 200.222 45.6914 200.933C45.2808 201.644 44.5658 202 43.5464 202C42.5198 202 41.8011 201.644 41.3904 200.933C40.9798 200.222 40.7744 199.224 40.7744 197.941ZM45.3174 197.941C45.3174 197.303 45.2734 196.764 45.1854 196.324C45.1048 195.877 44.9324 195.517 44.6684 195.246C44.4118 194.975 44.0378 194.839 43.5464 194.839C43.0478 194.839 42.6664 194.975 42.4024 195.246C42.1458 195.517 41.9734 195.877 41.8854 196.324C41.8048 196.764 41.7644 197.303 41.7644 197.941C41.7644 198.601 41.8048 199.155 41.8854 199.602C41.9734 200.049 42.1458 200.409 42.4024 200.68C42.6664 200.951 43.0478 201.087 43.5464 201.087C44.0378 201.087 44.4118 200.951 44.6684 200.68C44.9324 200.409 45.1048 200.049 45.1854 199.602C45.2734 199.155 45.3174 198.601 45.3174 197.941ZM53.1333 202.099C52.6713 202.099 52.2569 202.022 51.8903 201.868C51.5236 201.707 51.2339 201.487 51.0213 201.208C50.8086 200.922 50.6913 200.596 50.6693 200.229H51.7033C51.7326 200.53 51.8719 200.775 52.1213 200.966C52.3779 201.157 52.7116 201.252 53.1223 201.252C53.5036 201.252 53.8043 201.168 54.0243 200.999C54.2443 200.83 54.3543 200.618 54.3543 200.361C54.3543 200.097 54.2369 199.903 54.0023 199.778C53.7676 199.646 53.4046 199.518 52.9133 199.393C52.4659 199.276 52.0993 199.158 51.8133 199.041C51.5346 198.916 51.2926 198.737 51.0873 198.502C50.8893 198.26 50.7903 197.945 50.7903 197.556C50.7903 197.248 50.8819 196.966 51.0653 196.709C51.2486 196.452 51.5089 196.251 51.8463 196.104C52.1836 195.95 52.5686 195.873 53.0013 195.873C53.6686 195.873 54.2076 196.042 54.6183 196.379C55.0289 196.716 55.2489 197.178 55.2783 197.765H54.2773C54.2553 197.45 54.1269 197.197 53.8923 197.006C53.6649 196.815 53.3569 196.72 52.9683 196.72C52.6089 196.72 52.3229 196.797 52.1103 196.951C51.8976 197.105 51.7913 197.307 51.7913 197.556C51.7913 197.754 51.8536 197.919 51.9783 198.051C52.1103 198.176 52.2716 198.278 52.4623 198.359C52.6603 198.432 52.9316 198.517 53.2763 198.612C53.7089 198.729 54.0609 198.847 54.3323 198.964C54.6036 199.074 54.8346 199.243 55.0253 199.47C55.2233 199.697 55.3259 199.994 55.3333 200.361C55.3333 200.691 55.2416 200.988 55.0583 201.252C54.8749 201.516 54.6146 201.725 54.2773 201.879C53.9473 202.026 53.5659 202.099 53.1333 202.099ZM62.3563 198.755C62.3563 198.946 62.3453 199.147 62.3233 199.36H57.5053C57.542 199.954 57.7437 200.42 58.1103 200.757C58.4843 201.087 58.9353 201.252 59.4633 201.252C59.896 201.252 60.2553 201.153 60.5413 200.955C60.8347 200.75 61.04 200.478 61.1573 200.141H62.2353C62.074 200.72 61.7513 201.193 61.2673 201.56C60.7833 201.919 60.182 202.099 59.4633 202.099C58.8913 202.099 58.378 201.971 57.9233 201.714C57.476 201.457 57.124 201.094 56.8673 200.625C56.6107 200.148 56.4823 199.598 56.4823 198.975C56.4823 198.352 56.607 197.805 56.8563 197.336C57.1057 196.867 57.454 196.507 57.9013 196.258C58.356 196.001 58.8767 195.873 59.4633 195.873C60.0353 195.873 60.5413 195.998 60.9813 196.247C61.4213 196.496 61.7587 196.841 61.9933 197.281C62.2353 197.714 62.3563 198.205 62.3563 198.755ZM61.3223 198.546C61.3223 198.165 61.238 197.838 61.0693 197.567C60.9007 197.288 60.6697 197.079 60.3763 196.94C60.0903 196.793 59.7713 196.72 59.4193 196.72C58.9133 196.72 58.4807 196.881 58.1213 197.204C57.7693 197.527 57.5677 197.974 57.5163 198.546H61.3223ZM63.4136 198.975C63.4136 198.352 63.5383 197.809 63.7876 197.347C64.037 196.878 64.3816 196.515 64.8216 196.258C65.269 196.001 65.7786 195.873 66.3506 195.873C67.0913 195.873 67.7 196.053 68.1766 196.412C68.6606 196.771 68.9796 197.27 69.1336 197.908H68.0556C67.953 197.541 67.7513 197.252 67.4506 197.039C67.1573 196.826 66.7906 196.72 66.3506 196.72C65.7786 196.72 65.3166 196.918 64.9646 197.314C64.6126 197.703 64.4366 198.256 64.4366 198.975C64.4366 199.701 64.6126 200.262 64.9646 200.658C65.3166 201.054 65.7786 201.252 66.3506 201.252C66.7906 201.252 67.1573 201.149 67.4506 200.944C67.744 200.739 67.9456 200.445 68.0556 200.064H69.1336C68.9723 200.68 68.6496 201.175 68.1656 201.549C67.6816 201.916 67.0766 202.099 66.3506 202.099C65.7786 202.099 65.269 201.971 64.8216 201.714C64.3816 201.457 64.037 201.094 63.7876 200.625C63.5383 200.156 63.4136 199.606 63.4136 198.975ZM73.2083 202.099C72.6436 202.099 72.1303 201.971 71.6683 201.714C71.2136 201.457 70.8543 201.094 70.5903 200.625C70.3336 200.148 70.2053 199.598 70.2053 198.975C70.2053 198.359 70.3373 197.816 70.6013 197.347C70.8726 196.87 71.2393 196.507 71.7013 196.258C72.1633 196.001 72.6803 195.873 73.2523 195.873C73.8243 195.873 74.3413 196.001 74.8033 196.258C75.2653 196.507 75.6283 196.867 75.8923 197.336C76.1636 197.805 76.2993 198.352 76.2993 198.975C76.2993 199.598 76.1599 200.148 75.8813 200.625C75.6099 201.094 75.2396 201.457 74.7703 201.714C74.3009 201.971 73.7803 202.099 73.2083 202.099ZM73.2083 201.219C73.5676 201.219 73.9049 201.135 74.2203 200.966C74.5356 200.797 74.7886 200.544 74.9793 200.207C75.1773 199.87 75.2763 199.459 75.2763 198.975C75.2763 198.491 75.1809 198.08 74.9903 197.743C74.7996 197.406 74.5503 197.156 74.2423 196.995C73.9343 196.826 73.6006 196.742 73.2413 196.742C72.8746 196.742 72.5373 196.826 72.2293 196.995C71.9286 197.156 71.6866 197.406 71.5033 197.743C71.3199 198.08 71.2283 198.491 71.2283 198.975C71.2283 199.466 71.3163 199.881 71.4923 200.218C71.6756 200.555 71.9176 200.808 72.2183 200.977C72.5189 201.138 72.8489 201.219 73.2083 201.219ZM80.6624 195.862C81.3957 195.862 81.9897 196.086 82.4444 196.533C82.8991 196.973 83.1264 197.611 83.1264 198.447V202H82.1364V198.59C82.1364 197.989 81.9861 197.53 81.6854 197.215C81.3847 196.892 80.9741 196.731 80.4534 196.731C79.9254 196.731 79.5037 196.896 79.1884 197.226C78.8804 197.556 78.7264 198.036 78.7264 198.667V202H77.7254V195.972H78.7264V196.83C78.9244 196.522 79.1921 196.284 79.5294 196.115C79.8741 195.946 80.2517 195.862 80.6624 195.862ZM84.4975 198.964C84.4975 198.348 84.6222 197.809 84.8715 197.347C85.1209 196.878 85.4619 196.515 85.8945 196.258C86.3345 196.001 86.8259 195.873 87.3685 195.873C87.8379 195.873 88.2742 195.983 88.6775 196.203C89.0809 196.416 89.3889 196.698 89.6015 197.05V193.86H90.6135V202H89.6015V200.867C89.4035 201.226 89.1102 201.523 88.7215 201.758C88.3329 201.985 87.8782 202.099 87.3575 202.099C86.8222 202.099 86.3345 201.967 85.8945 201.703C85.4619 201.439 85.1209 201.069 84.8715 200.592C84.6222 200.115 84.4975 199.573 84.4975 198.964ZM89.6015 198.975C89.6015 198.52 89.5099 198.124 89.3265 197.787C89.1432 197.45 88.8939 197.193 88.5785 197.017C88.2705 196.834 87.9295 196.742 87.5555 196.742C87.1815 196.742 86.8405 196.83 86.5325 197.006C86.2245 197.182 85.9789 197.439 85.7955 197.776C85.6122 198.113 85.5205 198.509 85.5205 198.964C85.5205 199.426 85.6122 199.829 85.7955 200.174C85.9789 200.511 86.2245 200.772 86.5325 200.955C86.8405 201.131 87.1815 201.219 87.5555 201.219C87.9295 201.219 88.2705 201.131 88.5785 200.955C88.8939 200.772 89.1432 200.511 89.3265 200.174C89.5099 199.829 89.6015 199.43 89.6015 198.975ZM94.5491 202.099C94.0871 202.099 93.6728 202.022 93.3061 201.868C92.9395 201.707 92.6498 201.487 92.4371 201.208C92.2245 200.922 92.1071 200.596 92.0851 200.229H93.1191C93.1485 200.53 93.2878 200.775 93.5371 200.966C93.7938 201.157 94.1275 201.252 94.5381 201.252C94.9195 201.252 95.2201 201.168 95.4401 200.999C95.6601 200.83 95.7701 200.618 95.7701 200.361C95.7701 200.097 95.6528 199.903 95.4181 199.778C95.1835 199.646 94.8205 199.518 94.3291 199.393C93.8818 199.276 93.5151 199.158 93.2291 199.041C92.9505 198.916 92.7085 198.737 92.5031 198.502C92.3051 198.26 92.2061 197.945 92.2061 197.556C92.2061 197.248 92.2978 196.966 92.4811 196.709C92.6645 196.452 92.9248 196.251 93.2621 196.104C93.5995 195.95 93.9845 195.873 94.4171 195.873C95.0845 195.873 95.6235 196.042 96.0341 196.379C96.4448 196.716 96.6648 197.178 96.6941 197.765H95.6931C95.6711 197.45 95.5428 197.197 95.3081 197.006C95.0808 196.815 94.7728 196.72 94.3841 196.72C94.0248 196.72 93.7388 196.797 93.5261 196.951C93.3135 197.105 93.2071 197.307 93.2071 197.556C93.2071 197.754 93.2695 197.919 93.3941 198.051C93.5261 198.176 93.6875 198.278 93.8781 198.359C94.0761 198.432 94.3475 198.517 94.6921 198.612C95.1248 198.729 95.4768 198.847 95.7481 198.964C96.0195 199.074 96.2505 199.243 96.4411 199.47C96.6391 199.697 96.7418 199.994 96.7491 200.361C96.7491 200.691 96.6575 200.988 96.4741 201.252C96.2908 201.516 96.0305 201.725 95.6931 201.879C95.3631 202.026 94.9818 202.099 94.5491 202.099ZM100.941 198.964C100.941 198.348 101.065 197.809 101.315 197.347C101.564 196.878 101.905 196.515 102.338 196.258C102.778 196.001 103.265 195.873 103.801 195.873C104.329 195.873 104.787 195.987 105.176 196.214C105.564 196.441 105.854 196.727 106.045 197.072V195.972H107.057V202H106.045V200.878C105.847 201.23 105.55 201.523 105.154 201.758C104.765 201.985 104.31 202.099 103.79 202.099C103.254 202.099 102.77 201.967 102.338 201.703C101.905 201.439 101.564 201.069 101.315 200.592C101.065 200.115 100.941 199.573 100.941 198.964ZM106.045 198.975C106.045 198.52 105.953 198.124 105.77 197.787C105.586 197.45 105.337 197.193 105.022 197.017C104.714 196.834 104.373 196.742 103.999 196.742C103.625 196.742 103.284 196.83 102.976 197.006C102.668 197.182 102.422 197.439 102.239 197.776C102.055 198.113 101.964 198.509 101.964 198.964C101.964 199.426 102.055 199.829 102.239 200.174C102.422 200.511 102.668 200.772 102.976 200.955C103.284 201.131 103.625 201.219 103.999 201.219C104.373 201.219 104.714 201.131 105.022 200.955C105.337 200.772 105.586 200.511 105.77 200.174C105.953 199.829 106.045 199.43 106.045 198.975ZM111.344 195.873C111.865 195.873 112.32 195.987 112.708 196.214C113.104 196.441 113.398 196.727 113.588 197.072V195.972H114.6V202.132C114.6 202.682 114.483 203.17 114.248 203.595C114.014 204.028 113.676 204.365 113.236 204.607C112.804 204.849 112.298 204.97 111.718 204.97C110.926 204.97 110.266 204.783 109.738 204.409C109.21 204.035 108.899 203.525 108.803 202.88H109.793C109.903 203.247 110.131 203.54 110.475 203.76C110.82 203.987 111.234 204.101 111.718 204.101C112.268 204.101 112.716 203.929 113.06 203.584C113.412 203.239 113.588 202.755 113.588 202.132V200.867C113.39 201.219 113.097 201.512 112.708 201.747C112.32 201.982 111.865 202.099 111.344 202.099C110.809 202.099 110.321 201.967 109.881 201.703C109.449 201.439 109.108 201.069 108.858 200.592C108.609 200.115 108.484 199.573 108.484 198.964C108.484 198.348 108.609 197.809 108.858 197.347C109.108 196.878 109.449 196.515 109.881 196.258C110.321 196.001 110.809 195.873 111.344 195.873ZM113.588 198.975C113.588 198.52 113.497 198.124 113.313 197.787C113.13 197.45 112.881 197.193 112.565 197.017C112.257 196.834 111.916 196.742 111.542 196.742C111.168 196.742 110.827 196.83 110.519 197.006C110.211 197.182 109.966 197.439 109.782 197.776C109.599 198.113 109.507 198.509 109.507 198.964C109.507 199.426 109.599 199.829 109.782 200.174C109.966 200.511 110.211 200.772 110.519 200.955C110.827 201.131 111.168 201.219 111.542 201.219C111.916 201.219 112.257 201.131 112.565 200.955C112.881 200.772 113.13 200.511 113.313 200.174C113.497 199.829 113.588 199.43 113.588 198.975ZM119.031 202.099C118.466 202.099 117.953 201.971 117.491 201.714C117.036 201.457 116.677 201.094 116.413 200.625C116.156 200.148 116.028 199.598 116.028 198.975C116.028 198.359 116.16 197.816 116.424 197.347C116.695 196.87 117.062 196.507 117.524 196.258C117.986 196.001 118.503 195.873 119.075 195.873C119.647 195.873 120.164 196.001 120.626 196.258C121.088 196.507 121.451 196.867 121.715 197.336C121.986 197.805 122.122 198.352 122.122 198.975C122.122 199.598 121.983 200.148 121.704 200.625C121.433 201.094 121.062 201.457 120.593 201.714C120.124 201.971 119.603 202.099 119.031 202.099ZM119.031 201.219C119.39 201.219 119.728 201.135 120.043 200.966C120.358 200.797 120.611 200.544 120.802 200.207C121 199.87 121.099 199.459 121.099 198.975C121.099 198.491 121.004 198.08 120.813 197.743C120.622 197.406 120.373 197.156 120.065 196.995C119.757 196.826 119.423 196.742 119.064 196.742C118.697 196.742 118.36 196.826 118.052 196.995C117.751 197.156 117.509 197.406 117.326 197.743C117.143 198.08 117.051 198.491 117.051 198.975C117.051 199.466 117.139 199.881 117.315 200.218C117.498 200.555 117.74 200.808 118.041 200.977C118.342 201.138 118.672 201.219 119.031 201.219Z" fill="#A4A4A4"/>
</g>
<path d="M257 45L257 189" stroke="#7B7B7B" stroke-opacity="0.45" stroke-width="2"/>
<rect x="155" y="105" width="102" height="81" fill="url(#paint0_linear_282_2661)"/>
<defs>
<filter id="filter0_d_282_2661" x="0" y="0" width="311" height="244" filterUnits="userSpaceOnUse" color-interpolation-filters="sRGB">
<feFlood flood-opacity="0" result="BackgroundImageFix"/>
<feColorMatrix in="SourceAlpha" type="matrix" values="0 0 0 0 0 0 0 0 0 0 0 0 0 0 0 0 0 0 127 0" result="hardAlpha"/>
<feOffset dy="5"/>
<feGaussianBlur stdDeviation="7"/>
<feColorMatrix type="matrix" values="0 0 0 0 0 0 0 0 0 0 0 0 0 0 0 0 0 0 0.05 0"/>
<feBlend mode="normal" in2="BackgroundImageFix" result="effect1_dropShadow_282_2661"/>
<feBlend mode="normal" in="SourceGraphic" in2="effect1_dropShadow_282_2661" result="shape"/>
</filter>
<linearGradient id="paint0_linear_282_2661" x1="206" y1="105" x2="206" y2="186" gradientUnits="userSpaceOnUse">
<stop stop-color="#8E88B4"/>
<stop offset="1" stop-color="white"/>
</linearGradient>
</defs>
</svg>
