<svg width="1707" height="814" viewBox="0 0 1707 814" fill="none" xmlns="http://www.w3.org/2000/svg">
<rect width="1707" height="814" rx="40" fill="#FAFAFA"/>
<rect width="1707" height="814" rx="40" fill="url(#paint0_radial_50_901)" fill-opacity="0.9"/>
<path d="M1063.32 202.06V210.88C1063.32 212.12 1063.62 213.04 1064.22 213.64C1064.83 214.24 1065.68 214.54 1066.76 214.54C1067.83 214.54 1068.66 214.24 1069.26 213.64C1069.87 213.04 1070.18 212.12 1070.18 210.88V202.06H1072V210.86C1072 212.02 1071.77 213 1071.3 213.8C1070.83 214.587 1070.2 215.173 1069.4 215.56C1068.61 215.947 1067.73 216.14 1066.74 216.14C1065.75 216.14 1064.86 215.947 1064.06 215.56C1063.27 215.173 1062.65 214.587 1062.18 213.8C1061.73 213 1061.5 212.02 1061.5 210.86V202.06H1063.32ZM1078.92 216.18C1078.08 216.18 1077.32 216.04 1076.66 215.76C1075.99 215.467 1075.46 215.067 1075.08 214.56C1074.69 214.04 1074.48 213.447 1074.44 212.78H1076.32C1076.37 213.327 1076.62 213.773 1077.08 214.12C1077.54 214.467 1078.15 214.64 1078.9 214.64C1079.59 214.64 1080.14 214.487 1080.54 214.18C1080.94 213.873 1081.14 213.487 1081.14 213.02C1081.14 212.54 1080.92 212.187 1080.5 211.96C1080.07 211.72 1079.41 211.487 1078.52 211.26C1077.7 211.047 1077.04 210.833 1076.52 210.62C1076.01 210.393 1075.57 210.067 1075.2 209.64C1074.84 209.2 1074.66 208.627 1074.66 207.92C1074.66 207.36 1074.82 206.847 1075.16 206.38C1075.49 205.913 1075.96 205.547 1076.58 205.28C1077.19 205 1077.89 204.86 1078.68 204.86C1079.89 204.86 1080.87 205.167 1081.62 205.78C1082.36 206.393 1082.76 207.233 1082.82 208.3H1081C1080.96 207.727 1080.72 207.267 1080.3 206.92C1079.88 206.573 1079.32 206.4 1078.62 206.4C1077.96 206.4 1077.44 206.54 1077.06 206.82C1076.67 207.1 1076.48 207.467 1076.48 207.92C1076.48 208.28 1076.59 208.58 1076.82 208.82C1077.06 209.047 1077.35 209.233 1077.7 209.38C1078.06 209.513 1078.55 209.667 1079.18 209.84C1079.96 210.053 1080.6 210.267 1081.1 210.48C1081.59 210.68 1082.01 210.987 1082.36 211.4C1082.72 211.813 1082.9 212.353 1082.92 213.02C1082.92 213.62 1082.75 214.16 1082.42 214.64C1082.08 215.12 1081.61 215.5 1081 215.78C1080.4 216.047 1079.7 216.18 1078.92 216.18ZM1095.49 210.1C1095.49 210.447 1095.47 210.813 1095.43 211.2H1086.67C1086.73 212.28 1087.1 213.127 1087.77 213.74C1088.45 214.34 1089.27 214.64 1090.23 214.64C1091.01 214.64 1091.67 214.46 1092.19 214.1C1092.72 213.727 1093.09 213.233 1093.31 212.62H1095.27C1094.97 213.673 1094.39 214.533 1093.51 215.2C1092.63 215.853 1091.53 216.18 1090.23 216.18C1089.19 216.18 1088.25 215.947 1087.43 215.48C1086.61 215.013 1085.97 214.353 1085.51 213.5C1085.04 212.633 1084.81 211.633 1084.81 210.5C1084.81 209.367 1085.03 208.373 1085.49 207.52C1085.94 206.667 1086.57 206.013 1087.39 205.56C1088.21 205.093 1089.16 204.86 1090.23 204.86C1091.27 204.86 1092.19 205.087 1092.99 205.54C1093.79 205.993 1094.4 206.62 1094.83 207.42C1095.27 208.207 1095.49 209.1 1095.49 210.1ZM1093.61 209.72C1093.61 209.027 1093.45 208.433 1093.15 207.94C1092.84 207.433 1092.42 207.053 1091.89 206.8C1091.37 206.533 1090.79 206.4 1090.15 206.4C1089.23 206.4 1088.44 206.693 1087.79 207.28C1087.15 207.867 1086.78 208.68 1086.69 209.72H1093.61ZM1099.71 206.82C1100.03 206.193 1100.48 205.707 1101.07 205.36C1101.67 205.013 1102.39 204.84 1103.25 204.84V206.72H1102.77C1100.73 206.72 1099.71 207.827 1099.71 210.04V216H1097.89V205.04H1099.71V206.82ZM1110.69 204.84C1112.02 204.84 1113.1 205.247 1113.93 206.06C1114.76 206.86 1115.17 208.02 1115.17 209.54V216H1113.37V209.8C1113.37 208.707 1113.1 207.873 1112.55 207.3C1112 206.713 1111.26 206.42 1110.31 206.42C1109.35 206.42 1108.58 206.72 1108.01 207.32C1107.45 207.92 1107.17 208.793 1107.17 209.94V216H1105.35V205.04H1107.17V206.6C1107.53 206.04 1108.02 205.607 1108.63 205.3C1109.26 204.993 1109.94 204.84 1110.69 204.84ZM1117.46 210.48C1117.46 209.36 1117.69 208.38 1118.14 207.54C1118.59 206.687 1119.21 206.027 1120 205.56C1120.8 205.093 1121.69 204.86 1122.66 204.86C1123.62 204.86 1124.45 205.067 1125.16 205.48C1125.87 205.893 1126.39 206.413 1126.74 207.04V205.04H1128.58V216H1126.74V213.96C1126.38 214.6 1125.84 215.133 1125.12 215.56C1124.41 215.973 1123.59 216.18 1122.64 216.18C1121.67 216.18 1120.79 215.94 1120 215.46C1119.21 214.98 1118.59 214.307 1118.14 213.44C1117.69 212.573 1117.46 211.587 1117.46 210.48ZM1126.74 210.5C1126.74 209.673 1126.57 208.953 1126.24 208.34C1125.91 207.727 1125.45 207.26 1124.88 206.94C1124.32 206.607 1123.7 206.44 1123.02 206.44C1122.34 206.44 1121.72 206.6 1121.16 206.92C1120.6 207.24 1120.15 207.707 1119.82 208.32C1119.49 208.933 1119.32 209.653 1119.32 210.48C1119.32 211.32 1119.49 212.053 1119.82 212.68C1120.15 213.293 1120.6 213.767 1121.16 214.1C1121.72 214.42 1122.34 214.58 1123.02 214.58C1123.7 214.58 1124.32 214.42 1124.88 214.1C1125.45 213.767 1125.91 213.293 1126.24 212.68C1126.57 212.053 1126.74 211.327 1126.74 210.5ZM1144.84 204.84C1145.69 204.84 1146.45 205.02 1147.12 205.38C1147.78 205.727 1148.31 206.253 1148.7 206.96C1149.08 207.667 1149.28 208.527 1149.28 209.54V216H1147.48V209.8C1147.48 208.707 1147.2 207.873 1146.66 207.3C1146.12 206.713 1145.4 206.42 1144.48 206.42C1143.53 206.42 1142.78 206.727 1142.22 207.34C1141.66 207.94 1141.38 208.813 1141.38 209.96V216H1139.58V209.8C1139.58 208.707 1139.3 207.873 1138.76 207.3C1138.22 206.713 1137.5 206.42 1136.58 206.42C1135.63 206.42 1134.88 206.727 1134.32 207.34C1133.76 207.94 1133.48 208.813 1133.48 209.96V216H1131.66V205.04H1133.48V206.62C1133.84 206.047 1134.32 205.607 1134.92 205.3C1135.53 204.993 1136.2 204.84 1136.94 204.84C1137.86 204.84 1138.67 205.047 1139.38 205.46C1140.08 205.873 1140.61 206.48 1140.96 207.28C1141.26 206.507 1141.77 205.907 1142.48 205.48C1143.18 205.053 1143.97 204.84 1144.84 204.84ZM1162.26 210.1C1162.26 210.447 1162.24 210.813 1162.2 211.2H1153.44C1153.51 212.28 1153.88 213.127 1154.54 213.74C1155.22 214.34 1156.04 214.64 1157 214.64C1157.79 214.64 1158.44 214.46 1158.96 214.1C1159.5 213.727 1159.87 213.233 1160.08 212.62H1162.04C1161.75 213.673 1161.16 214.533 1160.28 215.2C1159.4 215.853 1158.31 216.18 1157 216.18C1155.96 216.18 1155.03 215.947 1154.2 215.48C1153.39 215.013 1152.75 214.353 1152.28 213.5C1151.82 212.633 1151.58 211.633 1151.58 210.5C1151.58 209.367 1151.81 208.373 1152.26 207.52C1152.72 206.667 1153.35 206.013 1154.16 205.56C1154.99 205.093 1155.94 204.86 1157 204.86C1158.04 204.86 1158.96 205.087 1159.76 205.54C1160.56 205.993 1161.18 206.62 1161.6 207.42C1162.04 208.207 1162.26 209.1 1162.26 210.1ZM1160.38 209.72C1160.38 209.027 1160.23 208.433 1159.92 207.94C1159.62 207.433 1159.2 207.053 1158.66 206.8C1158.14 206.533 1157.56 206.4 1156.92 206.4C1156 206.4 1155.22 206.693 1154.56 207.28C1153.92 207.867 1153.56 208.68 1153.46 209.72H1160.38Z" fill="#4F4F4F"/>
<path d="M1070.86 351.14C1070.86 352.3 1070.46 353.267 1069.66 354.04C1068.87 354.8 1067.67 355.18 1066.04 355.18H1063.36V361H1061.54V347.06H1066.04C1067.61 347.06 1068.81 347.44 1069.62 348.2C1070.45 348.96 1070.86 349.94 1070.86 351.14ZM1066.04 353.68C1067.05 353.68 1067.8 353.46 1068.28 353.02C1068.76 352.58 1069 351.953 1069 351.14C1069 349.42 1068.01 348.56 1066.04 348.56H1063.36V353.68H1066.04ZM1072.44 355.48C1072.44 354.36 1072.67 353.38 1073.12 352.54C1073.58 351.687 1074.2 351.027 1074.98 350.56C1075.78 350.093 1076.67 349.86 1077.64 349.86C1078.6 349.86 1079.44 350.067 1080.14 350.48C1080.85 350.893 1081.38 351.413 1081.72 352.04V350.04H1083.56V361H1081.72V358.96C1081.36 359.6 1080.82 360.133 1080.1 360.56C1079.4 360.973 1078.57 361.18 1077.62 361.18C1076.65 361.18 1075.77 360.94 1074.98 360.46C1074.2 359.98 1073.58 359.307 1073.12 358.44C1072.67 357.573 1072.44 356.587 1072.44 355.48ZM1081.72 355.5C1081.72 354.673 1081.56 353.953 1081.22 353.34C1080.89 352.727 1080.44 352.26 1079.86 351.94C1079.3 351.607 1078.68 351.44 1078 351.44C1077.32 351.44 1076.7 351.6 1076.14 351.92C1075.58 352.24 1075.14 352.707 1074.8 353.32C1074.47 353.933 1074.3 354.653 1074.3 355.48C1074.3 356.32 1074.47 357.053 1074.8 357.68C1075.14 358.293 1075.58 358.767 1076.14 359.1C1076.7 359.42 1077.32 359.58 1078 359.58C1078.68 359.58 1079.3 359.42 1079.86 359.1C1080.44 358.767 1080.89 358.293 1081.22 357.68C1081.56 357.053 1081.72 356.327 1081.72 355.5ZM1090.52 361.18C1089.68 361.18 1088.92 361.04 1088.26 360.76C1087.59 360.467 1087.06 360.067 1086.68 359.56C1086.29 359.04 1086.08 358.447 1086.04 357.78H1087.92C1087.97 358.327 1088.22 358.773 1088.68 359.12C1089.14 359.467 1089.75 359.64 1090.5 359.64C1091.19 359.64 1091.74 359.487 1092.14 359.18C1092.54 358.873 1092.74 358.487 1092.74 358.02C1092.74 357.54 1092.52 357.187 1092.1 356.96C1091.67 356.72 1091.01 356.487 1090.12 356.26C1089.3 356.047 1088.64 355.833 1088.12 355.62C1087.61 355.393 1087.17 355.067 1086.8 354.64C1086.44 354.2 1086.26 353.627 1086.26 352.92C1086.26 352.36 1086.42 351.847 1086.76 351.38C1087.09 350.913 1087.56 350.547 1088.18 350.28C1088.79 350 1089.49 349.86 1090.28 349.86C1091.49 349.86 1092.47 350.167 1093.22 350.78C1093.96 351.393 1094.36 352.233 1094.42 353.3H1092.6C1092.56 352.727 1092.32 352.267 1091.9 351.92C1091.48 351.573 1090.92 351.4 1090.22 351.4C1089.56 351.4 1089.04 351.54 1088.66 351.82C1088.27 352.1 1088.08 352.467 1088.08 352.92C1088.08 353.28 1088.19 353.58 1088.42 353.82C1088.66 354.047 1088.95 354.233 1089.3 354.38C1089.66 354.513 1090.15 354.667 1090.78 354.84C1091.56 355.053 1092.2 355.267 1092.7 355.48C1093.19 355.68 1093.61 355.987 1093.96 356.4C1094.32 356.813 1094.5 357.353 1094.52 358.02C1094.52 358.62 1094.35 359.16 1094.02 359.64C1093.68 360.12 1093.21 360.5 1092.6 360.78C1092 361.047 1091.3 361.18 1090.52 361.18ZM1100.97 361.18C1100.13 361.18 1099.37 361.04 1098.71 360.76C1098.04 360.467 1097.51 360.067 1097.13 359.56C1096.74 359.04 1096.53 358.447 1096.49 357.78H1098.37C1098.42 358.327 1098.67 358.773 1099.13 359.12C1099.59 359.467 1100.2 359.64 1100.95 359.64C1101.64 359.64 1102.19 359.487 1102.59 359.18C1102.99 358.873 1103.19 358.487 1103.19 358.02C1103.19 357.54 1102.97 357.187 1102.55 356.96C1102.12 356.72 1101.46 356.487 1100.57 356.26C1099.75 356.047 1099.09 355.833 1098.57 355.62C1098.06 355.393 1097.62 355.067 1097.25 354.64C1096.89 354.2 1096.71 353.627 1096.71 352.92C1096.71 352.36 1096.87 351.847 1097.21 351.38C1097.54 350.913 1098.01 350.547 1098.63 350.28C1099.24 350 1099.94 349.86 1100.73 349.86C1101.94 349.86 1102.92 350.167 1103.67 350.78C1104.41 351.393 1104.81 352.233 1104.87 353.3H1103.05C1103.01 352.727 1102.77 352.267 1102.35 351.92C1101.93 351.573 1101.37 351.4 1100.67 351.4C1100.01 351.4 1099.49 351.54 1099.11 351.82C1098.72 352.1 1098.53 352.467 1098.53 352.92C1098.53 353.28 1098.64 353.58 1098.87 353.82C1099.11 354.047 1099.4 354.233 1099.75 354.38C1100.11 354.513 1100.6 354.667 1101.23 354.84C1102.01 355.053 1102.65 355.267 1103.15 355.48C1103.64 355.68 1104.06 355.987 1104.41 356.4C1104.77 356.813 1104.95 357.353 1104.97 358.02C1104.97 358.62 1104.8 359.16 1104.47 359.64C1104.13 360.12 1103.66 360.5 1103.05 360.78C1102.45 361.047 1101.75 361.18 1100.97 361.18ZM1122.14 350.04L1118.72 361H1116.84L1114.2 352.3L1111.56 361H1109.68L1106.24 350.04H1108.1L1110.62 359.24L1113.34 350.04H1115.2L1117.86 359.26L1120.34 350.04H1122.14ZM1128.72 361.18C1127.7 361.18 1126.76 360.947 1125.92 360.48C1125.1 360.013 1124.44 359.353 1123.96 358.5C1123.5 357.633 1123.26 356.633 1123.26 355.5C1123.26 354.38 1123.5 353.393 1123.98 352.54C1124.48 351.673 1125.14 351.013 1125.98 350.56C1126.82 350.093 1127.76 349.86 1128.8 349.86C1129.84 349.86 1130.78 350.093 1131.62 350.56C1132.46 351.013 1133.12 351.667 1133.6 352.52C1134.1 353.373 1134.34 354.367 1134.34 355.5C1134.34 356.633 1134.09 357.633 1133.58 358.5C1133.09 359.353 1132.42 360.013 1131.56 360.48C1130.71 360.947 1129.76 361.18 1128.72 361.18ZM1128.72 359.58C1129.38 359.58 1129.99 359.427 1130.56 359.12C1131.14 358.813 1131.6 358.353 1131.94 357.74C1132.3 357.127 1132.48 356.38 1132.48 355.5C1132.48 354.62 1132.31 353.873 1131.96 353.26C1131.62 352.647 1131.16 352.193 1130.6 351.9C1130.04 351.593 1129.44 351.44 1128.78 351.44C1128.12 351.44 1127.5 351.593 1126.94 351.9C1126.4 352.193 1125.96 352.647 1125.62 353.26C1125.29 353.873 1125.12 354.62 1125.12 355.5C1125.12 356.393 1125.28 357.147 1125.6 357.76C1125.94 358.373 1126.38 358.833 1126.92 359.14C1127.47 359.433 1128.07 359.58 1128.72 359.58ZM1138.56 351.82C1138.88 351.193 1139.33 350.707 1139.92 350.36C1140.52 350.013 1141.24 349.84 1142.1 349.84V351.72H1141.62C1139.58 351.72 1138.56 352.827 1138.56 355.04V361H1136.74V350.04H1138.56V351.82ZM1143.52 355.48C1143.52 354.36 1143.74 353.38 1144.2 352.54C1144.65 351.687 1145.27 351.027 1146.06 350.56C1146.86 350.093 1147.75 349.86 1148.74 349.86C1149.59 349.86 1150.38 350.06 1151.12 350.46C1151.85 350.847 1152.41 351.36 1152.8 352V346.2H1154.64V361H1152.8V358.94C1152.44 359.593 1151.9 360.133 1151.2 360.56C1150.49 360.973 1149.66 361.18 1148.72 361.18C1147.74 361.18 1146.86 360.94 1146.06 360.46C1145.27 359.98 1144.65 359.307 1144.2 358.44C1143.74 357.573 1143.52 356.587 1143.52 355.48ZM1152.8 355.5C1152.8 354.673 1152.63 353.953 1152.3 353.34C1151.96 352.727 1151.51 352.26 1150.94 351.94C1150.38 351.607 1149.76 351.44 1149.08 351.44C1148.4 351.44 1147.78 351.6 1147.22 351.92C1146.66 352.24 1146.21 352.707 1145.88 353.32C1145.54 353.933 1145.38 354.653 1145.38 355.48C1145.38 356.32 1145.54 357.053 1145.88 357.68C1146.21 358.293 1146.66 358.767 1147.22 359.1C1147.78 359.42 1148.4 359.58 1149.08 359.58C1149.76 359.58 1150.38 359.42 1150.94 359.1C1151.51 358.767 1151.96 358.293 1152.3 357.68C1152.63 357.053 1152.8 356.327 1152.8 355.5Z" fill="#4F4F4F"/>
<path d="M230.84 292.448C227.725 292.448 224.909 291.915 222.392 290.848C219.917 289.781 217.955 288.245 216.504 286.24C215.053 284.235 214.307 281.867 214.264 279.136H223.864C223.992 280.971 224.632 282.421 225.784 283.488C226.979 284.555 228.6 285.088 230.648 285.088C232.739 285.088 234.381 284.597 235.576 283.616C236.771 282.592 237.368 281.269 237.368 279.648C237.368 278.325 236.963 277.237 236.152 276.384C235.341 275.531 234.317 274.869 233.08 274.4C231.885 273.888 230.221 273.333 228.088 272.736C225.187 271.883 222.819 271.051 220.984 270.24C219.192 269.387 217.635 268.128 216.312 266.464C215.032 264.757 214.392 262.496 214.392 259.68C214.392 257.035 215.053 254.731 216.376 252.768C217.699 250.805 219.555 249.312 221.944 248.288C224.333 247.221 227.064 246.688 230.136 246.688C234.744 246.688 238.477 247.819 241.336 250.08C244.237 252.299 245.837 255.413 246.136 259.424H236.28C236.195 257.888 235.533 256.629 234.296 255.648C233.101 254.624 231.501 254.112 229.496 254.112C227.747 254.112 226.339 254.56 225.272 255.456C224.248 256.352 223.736 257.653 223.736 259.36C223.736 260.555 224.12 261.557 224.888 262.368C225.699 263.136 226.68 263.776 227.832 264.288C229.027 264.757 230.691 265.312 232.824 265.952C235.725 266.805 238.093 267.659 239.928 268.512C241.763 269.365 243.341 270.645 244.664 272.352C245.987 274.059 246.648 276.299 246.648 279.072C246.648 281.461 246.029 283.68 244.792 285.728C243.555 287.776 241.741 289.419 239.352 290.656C236.963 291.851 234.125 292.448 230.84 292.448ZM258.96 252.32C257.381 252.32 256.059 251.829 254.992 250.848C253.968 249.824 253.456 248.565 253.456 247.072C253.456 245.579 253.968 244.341 254.992 243.36C256.059 242.336 257.381 241.824 258.96 241.824C260.539 241.824 261.84 242.336 262.864 243.36C263.931 244.341 264.464 245.579 264.464 247.072C264.464 248.565 263.931 249.824 262.864 250.848C261.84 251.829 260.539 252.32 258.96 252.32ZM263.376 256.544V292H254.416V256.544H263.376ZM286.117 255.968C288.762 255.968 291.087 256.501 293.093 257.568C295.098 258.592 296.677 259.936 297.829 261.6V256.544H306.853V292.256C306.853 295.541 306.191 298.464 304.869 301.024C303.546 303.627 301.562 305.675 298.917 307.168C296.271 308.704 293.071 309.472 289.317 309.472C284.282 309.472 280.143 308.299 276.901 305.952C273.701 303.605 271.887 300.405 271.461 296.352H280.357C280.826 297.973 281.829 299.253 283.365 300.192C284.943 301.173 286.842 301.664 289.061 301.664C291.663 301.664 293.775 300.875 295.397 299.296C297.018 297.76 297.829 295.413 297.829 292.256V286.752C296.677 288.416 295.077 289.803 293.029 290.912C291.023 292.021 288.719 292.576 286.117 292.576C283.13 292.576 280.399 291.808 277.925 290.272C275.45 288.736 273.487 286.581 272.036 283.808C270.628 280.992 269.924 277.771 269.924 274.144C269.924 270.56 270.628 267.381 272.036 264.608C273.487 261.835 275.429 259.701 277.861 258.208C280.335 256.715 283.087 255.968 286.117 255.968ZM297.829 274.272C297.829 272.096 297.402 270.24 296.549 268.704C295.695 267.125 294.543 265.931 293.093 265.12C291.642 264.267 290.085 263.84 288.421 263.84C286.757 263.84 285.221 264.245 283.812 265.056C282.405 265.867 281.253 267.061 280.357 268.64C279.503 270.176 279.077 272.011 279.077 274.144C279.077 276.277 279.503 278.155 280.357 279.776C281.253 281.355 282.405 282.571 283.812 283.424C285.263 284.277 286.799 284.704 288.421 284.704C290.085 284.704 291.642 284.299 293.093 283.488C294.543 282.635 295.695 281.44 296.549 279.904C297.402 278.325 297.829 276.448 297.829 274.272ZM335.252 256.032C339.476 256.032 342.889 257.376 345.492 260.064C348.094 262.709 349.396 266.421 349.396 271.2V292H340.436V272.416C340.436 269.6 339.732 267.445 338.324 265.952C336.916 264.416 334.996 263.648 332.564 263.648C330.089 263.648 328.126 264.416 326.676 265.952C325.268 267.445 324.564 269.6 324.564 272.416V292H315.604V256.544H324.564V260.96C325.758 259.424 327.273 258.229 329.108 257.376C330.985 256.48 333.033 256.032 335.252 256.032ZM382.126 247.328V292H373.166V247.328H382.126ZM410.627 256.032C414.851 256.032 418.264 257.376 420.867 260.064C423.469 262.709 424.771 266.421 424.771 271.2V292H415.811V272.416C415.811 269.6 415.107 267.445 413.699 265.952C412.291 264.416 410.371 263.648 407.939 263.648C405.464 263.648 403.501 264.416 402.051 265.952C400.643 267.445 399.939 269.6 399.939 272.416V292H390.979V256.544H399.939V260.96C401.133 259.424 402.648 258.229 404.483 257.376C406.36 256.48 408.408 256.032 410.627 256.032ZM458.973 263.904V281.056C458.973 282.251 459.25 283.125 459.805 283.68C460.402 284.192 461.384 284.448 462.749 284.448H466.909V292H461.277C453.725 292 449.949 288.331 449.949 280.992V263.904H445.725V256.544H449.949V247.776H458.973V256.544H466.909V263.904H458.973ZM489.098 292.576C485.684 292.576 482.612 291.829 479.882 290.336C477.151 288.8 474.996 286.645 473.418 283.872C471.882 281.099 471.114 277.899 471.114 274.272C471.114 270.645 471.903 267.445 473.482 264.672C475.103 261.899 477.3 259.765 480.074 258.272C482.847 256.736 485.94 255.968 489.354 255.968C492.767 255.968 495.86 256.736 498.634 258.272C501.407 259.765 503.583 261.899 505.162 264.672C506.783 267.445 507.594 270.645 507.594 274.272C507.594 277.899 506.762 281.099 505.097 283.872C503.476 286.645 501.258 288.8 498.442 290.336C495.668 291.829 492.554 292.576 489.098 292.576ZM489.098 284.768C490.719 284.768 492.234 284.384 493.642 283.616C495.092 282.805 496.244 281.611 497.098 280.032C497.951 278.453 498.378 276.533 498.378 274.272C498.378 270.901 497.482 268.32 495.69 266.528C493.94 264.693 491.786 263.776 489.226 263.776C486.666 263.776 484.511 264.693 482.762 266.528C481.055 268.32 480.202 270.901 480.202 274.272C480.202 277.643 481.034 280.245 482.698 282.08C484.404 283.872 486.538 284.768 489.098 284.768Z" fill="#141414"/>
<path d="M213.24 392.6C213.24 388.205 214.221 384.28 216.184 380.824C218.189 377.325 220.899 374.616 224.312 372.696C227.768 370.733 231.629 369.752 235.896 369.752C240.888 369.752 245.261 371.032 249.016 373.592C252.771 376.152 255.395 379.693 256.888 384.216H246.584C245.56 382.083 244.109 380.483 242.232 379.416C240.397 378.349 238.264 377.816 235.832 377.816C233.229 377.816 230.904 378.435 228.856 379.672C226.851 380.867 225.272 382.573 224.12 384.792C223.011 387.011 222.456 389.613 222.456 392.6C222.456 395.544 223.011 398.147 224.12 400.408C225.272 402.627 226.851 404.355 228.856 405.592C230.904 406.787 233.229 407.384 235.832 407.384C238.264 407.384 240.397 406.851 242.232 405.784C244.109 404.675 245.56 403.053 246.584 400.92H256.888C255.395 405.485 252.771 409.048 249.016 411.608C245.304 414.125 240.931 415.384 235.896 415.384C231.629 415.384 227.768 414.424 224.312 412.504C220.899 410.541 218.189 407.832 216.184 404.376C214.221 400.92 213.24 396.995 213.24 392.6ZM273.501 370.328V415H264.541V370.328H273.501ZM297.778 415.448C294.663 415.448 291.847 414.915 289.33 413.848C286.855 412.781 284.892 411.245 283.442 409.24C281.991 407.235 281.244 404.867 281.202 402.136H290.802C290.93 403.971 291.57 405.421 292.722 406.488C293.916 407.555 295.538 408.088 297.586 408.088C299.676 408.088 301.319 407.597 302.514 406.616C303.708 405.592 304.306 404.269 304.306 402.648C304.306 401.325 303.9 400.237 303.09 399.384C302.279 398.531 301.255 397.869 300.018 397.4C298.823 396.888 297.159 396.333 295.026 395.736C292.124 394.883 289.756 394.051 287.922 393.24C286.13 392.387 284.572 391.128 283.25 389.464C281.97 387.757 281.33 385.496 281.33 382.68C281.33 380.035 281.991 377.731 283.314 375.768C284.636 373.805 286.492 372.312 288.882 371.288C291.271 370.221 294.002 369.688 297.074 369.688C301.682 369.688 305.415 370.819 308.274 373.08C311.175 375.299 312.775 378.413 313.074 382.424H303.218C303.132 380.888 302.471 379.629 301.234 378.648C300.039 377.624 298.439 377.112 296.434 377.112C294.684 377.112 293.276 377.56 292.21 378.456C291.186 379.352 290.674 380.653 290.674 382.36C290.674 383.555 291.058 384.557 291.826 385.368C292.636 386.136 293.618 386.776 294.77 387.288C295.964 387.757 297.628 388.312 299.762 388.952C302.663 389.805 305.031 390.659 306.866 391.512C308.7 392.365 310.279 393.645 311.602 395.352C312.924 397.059 313.586 399.299 313.586 402.072C313.586 404.461 312.967 406.68 311.729 408.728C310.492 410.776 308.679 412.419 306.29 413.656C303.9 414.851 301.063 415.448 297.778 415.448ZM334.428 392.6C334.428 388.205 335.409 384.28 337.372 380.824C339.377 377.325 342.086 374.616 345.5 372.696C348.956 370.733 352.817 369.752 357.084 369.752C362.076 369.752 366.449 371.032 370.204 373.592C373.958 376.152 376.582 379.693 378.076 384.216H367.772C366.748 382.083 365.297 380.483 363.42 379.416C361.585 378.349 359.452 377.816 357.02 377.816C354.417 377.816 352.092 378.435 350.044 379.672C348.038 380.867 346.46 382.573 345.308 384.792C344.198 387.011 343.644 389.613 343.644 392.6C343.644 395.544 344.198 398.147 345.308 400.408C346.46 402.627 348.038 404.355 350.044 405.592C352.092 406.787 354.417 407.384 357.02 407.384C359.452 407.384 361.585 406.851 363.42 405.784C365.297 404.675 366.748 403.053 367.772 400.92H378.076C376.582 405.485 373.958 409.048 370.204 411.608C366.492 414.125 362.118 415.384 357.084 415.384C352.817 415.384 348.956 414.424 345.5 412.504C342.086 410.541 339.377 407.832 337.372 404.376C335.409 400.92 334.428 396.995 334.428 392.6ZM394.689 367.64V415H385.729V367.64H394.689ZM419.285 415.576C415.872 415.576 412.8 414.829 410.069 413.336C407.338 411.8 405.184 409.645 403.605 406.872C402.069 404.099 401.301 400.899 401.301 397.272C401.301 393.645 402.09 390.445 403.669 387.672C405.29 384.899 407.488 382.765 410.261 381.272C413.034 379.736 416.128 378.968 419.541 378.968C422.954 378.968 426.048 379.736 428.821 381.272C431.594 382.765 433.77 384.899 435.349 387.672C436.97 390.445 437.781 393.645 437.781 397.272C437.781 400.899 436.949 404.099 435.285 406.872C433.664 409.645 431.445 411.8 428.629 413.336C425.856 414.829 422.741 415.576 419.285 415.576ZM419.285 407.768C420.906 407.768 422.421 407.384 423.829 406.616C425.28 405.805 426.432 404.611 427.285 403.032C428.138 401.453 428.565 399.533 428.565 397.272C428.565 393.901 427.669 391.32 425.877 389.528C424.128 387.693 421.973 386.776 419.413 386.776C416.853 386.776 414.698 387.693 412.949 389.528C411.242 391.32 410.389 393.901 410.389 397.272C410.389 400.643 411.221 403.245 412.885 405.08C414.592 406.872 416.725 407.768 419.285 407.768ZM477.826 379.544V415H468.802V410.52C467.65 412.056 466.135 413.272 464.258 414.168C462.423 415.021 460.418 415.448 458.242 415.448C455.468 415.448 453.015 414.872 450.882 413.72C448.748 412.525 447.063 410.797 445.826 408.536C444.631 406.232 444.034 403.501 444.034 400.344V379.544H452.994V399.064C452.994 401.88 453.698 404.056 455.106 405.592C456.514 407.085 458.434 407.832 460.866 407.832C463.34 407.832 465.282 407.085 466.69 405.592C468.098 404.056 468.802 401.88 468.802 399.064V379.544H477.826ZM484.362 397.144C484.362 393.56 485.066 390.381 486.474 387.608C487.925 384.835 489.887 382.701 492.362 381.208C494.837 379.715 497.589 378.968 500.618 378.968C502.922 378.968 505.119 379.48 507.21 380.504C509.301 381.485 510.965 382.808 512.202 384.472V367.64H521.29V415H512.202V409.752C511.093 411.501 509.535 412.909 507.53 413.976C505.525 415.043 503.199 415.576 500.554 415.576C497.567 415.576 494.837 414.808 492.362 413.272C489.887 411.736 487.925 409.581 486.474 406.808C485.066 403.992 484.362 400.771 484.362 397.144ZM512.266 397.272C512.266 395.096 511.839 393.24 510.986 391.704C510.133 390.125 508.981 388.931 507.53 388.12C506.079 387.267 504.522 386.84 502.858 386.84C501.194 386.84 499.658 387.245 498.25 388.056C496.842 388.867 495.69 390.061 494.794 391.64C493.941 393.176 493.514 395.011 493.514 397.144C493.514 399.277 493.941 401.155 494.794 402.776C495.69 404.355 496.842 405.571 498.25 406.424C499.701 407.277 501.237 407.704 502.858 407.704C504.522 407.704 506.079 407.299 507.53 406.488C508.981 405.635 510.133 404.44 510.986 402.904C511.839 401.325 512.266 399.448 512.266 397.272Z" fill="#52459F"/>
<path d="M218.52 521.32C217.261 521.32 216.088 521.203 215 520.968C213.933 520.712 213.027 520.413 212.28 520.072L213.112 517.768C213.56 517.939 214.072 518.12 214.648 518.312C215.224 518.504 215.843 518.664 216.504 518.792C217.187 518.899 217.88 518.952 218.584 518.952C219.715 518.952 220.653 518.739 221.4 518.312C222.147 517.885 222.52 517.267 222.52 516.456C222.52 515.965 222.381 515.549 222.104 515.208C221.848 514.845 221.443 514.515 220.888 514.216C220.333 513.917 219.619 513.629 218.744 513.352C217.4 512.925 216.259 512.477 215.32 512.008C214.403 511.517 213.699 510.941 213.208 510.28C212.739 509.597 212.504 508.755 212.504 507.752C212.504 506.856 212.739 506.067 213.208 505.384C213.699 504.68 214.445 504.136 215.448 503.752C216.472 503.347 217.773 503.144 219.352 503.144C220.376 503.144 221.336 503.24 222.232 503.432C223.149 503.603 223.864 503.848 224.376 504.168V506.568C224.013 506.397 223.555 506.227 223 506.056C222.467 505.885 221.88 505.747 221.24 505.64C220.6 505.533 219.939 505.48 219.256 505.48C217.827 505.48 216.813 505.704 216.216 506.152C215.64 506.579 215.352 507.069 215.352 507.624C215.352 508.093 215.48 508.488 215.736 508.808C216.013 509.128 216.472 509.437 217.112 509.736C217.773 510.035 218.659 510.376 219.768 510.76C220.792 511.101 221.731 511.496 222.584 511.944C223.437 512.392 224.109 512.957 224.6 513.64C225.112 514.301 225.368 515.155 225.368 516.2C225.368 517.096 225.144 517.939 224.696 518.728C224.269 519.496 223.555 520.125 222.552 520.616C221.549 521.085 220.205 521.32 218.52 521.32ZM231.521 509.992C230.646 509.992 229.932 509.864 229.377 509.608C228.844 509.331 228.46 508.989 228.225 508.584C227.99 508.157 227.873 507.709 227.873 507.24C227.873 506.92 227.916 506.589 228.001 506.248C228.108 505.907 228.236 505.619 228.385 505.384L230.785 505.768C230.742 505.875 230.689 506.024 230.625 506.216C230.582 506.408 230.561 506.6 230.561 506.792C230.561 507.069 230.636 507.304 230.785 507.496C230.934 507.667 231.212 507.752 231.617 507.752H236.193V509.992H231.521ZM231.521 518.952C230.646 518.952 229.932 518.824 229.377 518.568C228.844 518.291 228.46 517.949 228.225 517.544C227.99 517.117 227.873 516.669 227.873 516.2C227.873 515.88 227.916 515.549 228.001 515.208C228.108 514.867 228.236 514.579 228.385 514.344L230.785 514.728C230.742 514.835 230.689 514.984 230.625 515.176C230.582 515.368 230.561 515.56 230.561 515.752C230.561 516.029 230.636 516.264 230.785 516.456C230.934 516.627 231.212 516.712 231.617 516.712H236.193V518.952H231.521ZM247.07 521.32C244.552 521.32 242.75 520.744 241.661 519.592C240.573 518.44 240.03 516.797 240.03 514.664V503.464H242.878V514.696C242.878 516.125 243.219 517.192 243.902 517.896C244.584 518.6 245.64 518.952 247.07 518.952C248.52 518.952 249.587 518.6 250.27 517.896C250.974 517.192 251.326 516.125 251.326 514.696V503.464H254.174V514.664C254.174 516.797 253.619 518.44 252.51 519.592C251.422 520.744 249.608 521.32 247.07 521.32ZM266.382 521.32C263.865 521.32 262.062 520.744 260.974 519.592C259.886 518.44 259.342 516.797 259.342 514.664V503.464H262.19V514.696C262.19 516.125 262.531 517.192 263.214 517.896C263.897 518.6 264.953 518.952 266.382 518.952C267.833 518.952 268.899 518.6 269.582 517.896C270.286 517.192 270.638 516.125 270.638 514.696V503.464H273.486V514.664C273.486 516.797 272.931 518.44 271.822 519.592C270.734 520.744 268.921 521.32 266.382 521.32ZM278.655 521V509.8C278.655 507.645 279.231 506.003 280.383 504.872C281.535 503.72 283.369 503.144 285.887 503.144C288.425 503.144 290.26 503.72 291.391 504.872C292.543 506.003 293.119 507.645 293.119 509.8V521H290.271V509.8C290.271 508.371 289.897 507.304 289.151 506.6C288.404 505.875 287.305 505.512 285.855 505.512C284.425 505.512 283.337 505.875 282.591 506.6C281.865 507.304 281.503 508.371 281.503 509.8V513.352L281.599 513.384C282.068 512.552 282.644 512.008 283.327 511.752C284.009 511.475 284.969 511.336 286.207 511.336H287.263V513.672H286.207C284.905 513.672 283.913 513.853 283.231 514.216C282.569 514.579 282.111 515.059 281.855 515.656C281.62 516.232 281.503 516.883 281.503 517.608V521H278.655ZM308.583 521V509.32C308.583 507.933 308.263 506.952 307.623 506.376C307.004 505.779 305.959 505.48 304.487 505.48C303.42 505.48 302.396 505.629 301.415 505.928C300.455 506.205 299.537 506.6 298.663 507.112V504.456C299.281 504.136 300.113 503.837 301.159 503.56C302.225 503.283 303.42 503.144 304.743 503.144C305.873 503.144 306.855 503.272 307.687 503.528C308.519 503.763 309.201 504.125 309.735 504.616C310.289 505.107 310.705 505.736 310.983 506.504C311.26 507.251 311.399 508.136 311.399 509.16V521H308.583ZM303.079 521.32C301.201 521.32 299.761 520.893 298.759 520.04C297.777 519.165 297.287 517.917 297.287 516.296C297.287 514.525 297.927 513.16 299.207 512.2C300.508 511.24 302.609 510.675 305.511 510.504L309.159 510.28V512.648L305.895 512.872C303.719 513.021 302.215 513.363 301.383 513.896C300.572 514.429 300.167 515.208 300.167 516.232C300.167 517.192 300.465 517.896 301.063 518.344C301.681 518.792 302.535 519.016 303.623 519.016C303.985 519.016 304.316 518.995 304.615 518.952C304.913 518.888 305.201 518.813 305.479 518.728L305.927 520.872C305.521 521.021 305.073 521.128 304.583 521.192C304.113 521.277 303.612 521.32 303.079 521.32ZM321.552 521V508.552C321.552 507.507 321.307 506.739 320.816 506.248C320.347 505.757 319.547 505.512 318.416 505.512C317.648 505.512 316.923 505.619 316.24 505.832C315.579 506.024 314.939 506.301 314.32 506.664V504.104C314.747 503.891 315.355 503.677 316.144 503.464C316.933 503.251 317.872 503.144 318.96 503.144C320.069 503.144 321.029 503.304 321.84 503.624C322.651 503.944 323.28 504.477 323.728 505.224C324.176 505.949 324.4 506.92 324.4 508.136V521H321.552ZM333.112 521.32C332.28 521.32 331.469 521.235 330.68 521.064C329.912 520.893 329.091 520.573 328.216 520.104L329.112 517.928C329.581 518.205 330.115 518.451 330.712 518.664C331.309 518.856 332.003 518.952 332.792 518.952C334.371 518.952 335.597 518.376 336.472 517.224C337.368 516.051 337.816 514.365 337.816 512.168C337.816 510.013 337.357 508.371 336.44 507.24C335.544 506.088 334.157 505.512 332.28 505.512C331.597 505.512 330.904 505.587 330.2 505.736C329.496 505.885 328.877 506.109 328.344 506.408V504.008C328.963 503.688 329.635 503.464 330.36 503.336C331.107 503.208 331.853 503.144 332.6 503.144C334.52 503.144 336.077 503.528 337.272 504.296C338.467 505.043 339.341 506.088 339.896 507.432C340.451 508.776 340.728 510.355 340.728 512.168C340.728 514.984 340.088 517.213 338.808 518.856C337.549 520.499 335.651 521.32 333.112 521.32ZM351.326 521.32C349.619 521.32 348.275 520.925 347.294 520.136C346.334 519.325 345.651 518.237 345.246 516.872C344.862 515.507 344.67 514.003 344.67 512.36C344.67 510.547 344.851 509.053 345.214 507.88C345.598 506.685 346.131 505.747 346.814 505.064C347.518 504.36 348.35 503.869 349.31 503.592C350.291 503.293 351.369 503.144 352.542 503.144C354.249 503.144 355.635 503.4 356.702 503.912C357.79 504.403 358.59 505.107 359.102 506.024C359.614 506.941 359.87 508.04 359.87 509.32V521H357.054V509.576C357.054 508.253 356.723 507.251 356.062 506.568C355.401 505.864 354.259 505.512 352.638 505.512C351.657 505.512 350.771 505.693 349.982 506.056C349.214 506.419 348.606 507.091 348.158 508.072C347.731 509.053 347.518 510.493 347.518 512.392C347.518 513.629 347.635 514.749 347.87 515.752C348.126 516.733 348.563 517.512 349.182 518.088C349.801 518.664 350.665 518.952 351.774 518.952C352.094 518.952 352.393 518.931 352.67 518.888C352.947 518.845 353.214 518.781 353.47 518.696L353.758 520.904C353.417 521.053 353.022 521.16 352.574 521.224C352.147 521.288 351.731 521.32 351.326 521.32ZM354.373 501.608C354.223 501.373 354.106 501.075 354.021 500.712C353.914 500.328 353.861 499.955 353.861 499.592C353.861 499.144 353.957 498.728 354.149 498.344C354.341 497.939 354.682 497.608 355.173 497.352C355.663 497.096 356.346 496.968 357.221 496.968H361.605V499.176H357.957C357.53 499.176 357.189 499.261 356.933 499.432C356.677 499.581 356.549 499.848 356.549 500.232C356.549 500.381 356.581 500.541 356.645 500.712C356.687 500.883 356.751 501.053 356.837 501.224L354.373 501.608ZM365.285 521.32C364.901 521.32 364.527 521.277 364.165 521.192C363.802 521.128 363.439 521.011 363.077 520.84L363.397 518.856C363.546 518.899 363.717 518.941 363.909 518.984C364.101 519.027 364.282 519.048 364.453 519.048C364.794 519.048 365.039 518.952 365.189 518.76C365.338 518.547 365.413 518.216 365.413 517.768V514.792C365.413 513.469 365.658 512.52 366.149 511.944C366.639 511.347 367.343 510.941 368.261 510.728L368.293 510.632L364.613 509.288V508.232C364.613 507.357 364.89 506.536 365.445 505.768C366.021 504.979 366.853 504.349 367.941 503.88C369.029 503.389 370.33 503.144 371.845 503.144C373.167 503.144 374.383 503.357 375.493 503.784C376.602 504.189 377.487 504.84 378.149 505.736C378.831 506.611 379.173 507.763 379.173 509.192V521H376.325V509.48C376.325 508.051 375.887 507.037 375.013 506.44C374.138 505.821 373.071 505.512 371.813 505.512C370.49 505.512 369.445 505.789 368.677 506.344C367.909 506.877 367.525 507.56 367.525 508.392L371.173 510.12L370.917 511.656C370.127 511.656 369.487 511.912 368.997 512.424C368.506 512.936 368.261 513.757 368.261 514.888V517.992C368.261 519.293 367.973 520.179 367.397 520.648C366.821 521.096 366.117 521.32 365.285 521.32ZM389.302 521V508.552C389.302 507.507 389.057 506.739 388.566 506.248C388.097 505.757 387.297 505.512 386.166 505.512C385.398 505.512 384.673 505.619 383.99 505.832C383.329 506.024 382.689 506.301 382.07 506.664V504.104C382.497 503.891 383.105 503.677 383.894 503.464C384.683 503.251 385.622 503.144 386.71 503.144C387.819 503.144 388.779 503.304 389.59 503.624C390.401 503.944 391.03 504.477 391.478 505.224C391.926 505.949 392.15 506.92 392.15 508.136V521H389.302ZM397.342 521V509.8C397.342 507.645 397.918 506.003 399.07 504.872C400.222 503.72 402.057 503.144 404.574 503.144C407.113 503.144 408.947 503.72 410.078 504.872C411.23 506.003 411.806 507.645 411.806 509.8V521H408.958V509.8C408.958 508.371 408.585 507.304 407.838 506.6C407.091 505.875 405.993 505.512 404.542 505.512C403.113 505.512 402.025 505.875 401.278 506.6C400.553 507.304 400.19 508.371 400.19 509.8V513.352L400.286 513.384C400.755 512.552 401.331 512.008 402.014 511.752C402.697 511.475 403.657 511.336 404.894 511.336H405.95V513.672H404.894C403.593 513.672 402.601 513.853 401.918 514.216C401.257 514.579 400.798 515.059 400.542 515.656C400.307 516.232 400.19 516.883 400.19 517.608V521H397.342ZM420.518 521.32C419.686 521.32 418.876 521.235 418.086 521.064C417.318 520.893 416.497 520.573 415.622 520.104L416.518 517.928C416.988 518.205 417.521 518.451 418.118 518.664C418.716 518.856 419.409 518.952 420.198 518.952C421.777 518.952 423.004 518.376 423.878 517.224C424.774 516.051 425.222 514.365 425.222 512.168C425.222 510.013 424.764 508.371 423.846 507.24C422.95 506.088 421.564 505.512 419.686 505.512C419.004 505.512 418.31 505.587 417.606 505.736C416.902 505.885 416.284 506.109 415.75 506.408V504.008C416.369 503.688 417.041 503.464 417.766 503.336C418.513 503.208 419.26 503.144 420.006 503.144C421.926 503.144 423.484 503.528 424.678 504.296C425.873 505.043 426.748 506.088 427.302 507.432C427.857 508.776 428.134 510.355 428.134 512.168C428.134 514.984 427.494 517.213 426.214 518.856C424.956 520.499 423.057 521.32 420.518 521.32ZM414.021 500.68V499.432L416.357 498.408H427.621V500.68H414.021ZM438.956 521.32C436.93 521.32 435.362 520.84 434.252 519.88C433.164 518.899 432.62 517.437 432.62 515.496V513.544C432.62 512.477 432.77 511.635 433.068 511.016C433.367 510.397 433.687 509.864 434.028 509.416C434.391 508.925 434.7 508.499 434.956 508.136C435.234 507.773 435.372 507.336 435.372 506.824C435.372 506.376 435.255 506.056 435.02 505.864C434.807 505.672 434.53 505.576 434.188 505.576C433.932 505.576 433.655 505.619 433.356 505.704C433.079 505.789 432.802 505.896 432.524 506.024L431.884 503.976C432.268 503.72 432.738 503.539 433.292 503.432C433.868 503.325 434.37 503.272 434.796 503.272C435.586 503.272 436.215 503.411 436.684 503.688C437.175 503.965 437.527 504.349 437.74 504.84C437.954 505.309 438.06 505.864 438.06 506.504C438.06 507.293 437.922 507.944 437.644 508.456C437.388 508.968 437.079 509.469 436.716 509.96C436.354 510.493 436.055 511.005 435.82 511.496C435.586 511.987 435.468 512.627 435.468 513.416V515.304C435.468 516.285 435.628 517.043 435.948 517.576C436.268 518.109 436.695 518.483 437.228 518.696C437.762 518.888 438.338 518.984 438.956 518.984C440.023 518.984 440.834 518.739 441.388 518.248C441.943 517.736 442.22 516.957 442.22 515.912V511.432C442.22 510.643 442.039 510.045 441.676 509.64C441.314 509.213 440.727 509 439.916 509H439.788V507.176H439.948C440.823 507.176 441.442 506.973 441.804 506.568C442.167 506.163 442.38 505.672 442.444 505.096C442.53 504.499 442.572 503.955 442.572 503.464H445.42C445.42 504.595 445.282 505.555 445.004 506.344C444.727 507.133 444.098 507.709 443.116 508.072V508.2C443.714 508.349 444.14 508.605 444.396 508.968C444.674 509.309 444.855 509.704 444.94 510.152C445.026 510.579 445.068 510.995 445.068 511.4V516.072C445.068 517.715 444.556 519.005 443.532 519.944C442.508 520.861 440.983 521.32 438.956 521.32ZM455.302 521V508.552C455.302 507.507 455.057 506.739 454.566 506.248C454.097 505.757 453.297 505.512 452.166 505.512C451.398 505.512 450.673 505.619 449.99 505.832C449.329 506.024 448.689 506.301 448.07 506.664V504.104C448.497 503.891 449.105 503.677 449.894 503.464C450.683 503.251 451.622 503.144 452.71 503.144C453.819 503.144 454.779 503.304 455.59 503.624C456.401 503.944 457.03 504.477 457.478 505.224C457.926 505.949 458.15 506.92 458.15 508.136V521H455.302ZM466.862 521.32C466.03 521.32 465.219 521.235 464.43 521.064C463.662 520.893 462.841 520.573 461.966 520.104L462.862 517.928C463.331 518.205 463.865 518.451 464.462 518.664C465.059 518.856 465.753 518.952 466.542 518.952C468.121 518.952 469.347 518.376 470.222 517.224C471.118 516.051 471.566 514.365 471.566 512.168C471.566 510.013 471.107 508.371 470.19 507.24C469.294 506.088 467.907 505.512 466.03 505.512C465.347 505.512 464.654 505.587 463.95 505.736C463.246 505.885 462.627 506.109 462.094 506.408V504.008C462.713 503.688 463.385 503.464 464.11 503.336C464.857 503.208 465.603 503.144 466.35 503.144C468.27 503.144 469.827 503.528 471.022 504.296C472.217 505.043 473.091 506.088 473.646 507.432C474.201 508.776 474.478 510.355 474.478 512.168C474.478 514.984 473.838 517.213 472.558 518.856C471.299 520.499 469.401 521.32 466.862 521.32ZM460.365 500.68V499.432L462.7 498.408H473.964V500.68H460.365ZM479.188 521V503.464H481.172L481.684 506.248H481.812C482.175 505.288 482.836 504.531 483.796 503.976C484.756 503.421 485.919 503.144 487.284 503.144C488.564 503.144 489.652 503.368 490.548 503.816C491.465 504.243 492.169 504.904 492.66 505.8C493.151 506.696 493.396 507.859 493.396 509.288V521H490.548V509.448C490.548 508.168 490.228 507.197 489.588 506.536C488.948 505.875 487.999 505.544 486.74 505.544C485.737 505.544 484.884 505.779 484.18 506.248C483.476 506.717 482.943 507.357 482.58 508.168C482.217 508.957 482.036 509.853 482.036 510.856V521H479.188ZM505.344 521.288C503.616 521.288 502.229 521.064 501.184 520.616C500.16 520.168 499.413 519.539 498.944 518.728C498.496 517.917 498.272 516.957 498.272 515.848C498.272 514.867 498.411 514.088 498.688 513.512C498.987 512.915 499.349 512.477 499.776 512.2C500.224 511.923 500.683 511.741 501.152 511.656V511.528C500.725 511.4 500.277 511.187 499.808 510.888C499.339 510.589 498.944 510.173 498.624 509.64C498.325 509.107 498.176 508.435 498.176 507.624C498.176 506.877 498.347 506.173 498.688 505.512C499.029 504.851 499.584 504.307 500.352 503.88C501.12 503.453 502.133 503.24 503.392 503.24C503.904 503.24 504.437 503.283 504.992 503.368C505.547 503.432 505.973 503.549 506.272 503.72L505.76 505.928C505.525 505.843 505.216 505.768 504.832 505.704C504.469 505.619 504.085 505.576 503.68 505.576C502.784 505.576 502.123 505.789 501.696 506.216C501.269 506.621 501.056 507.165 501.056 507.848C501.056 508.595 501.237 509.16 501.6 509.544C501.984 509.928 502.464 510.195 503.04 510.344C503.637 510.472 504.256 510.536 504.896 510.536H505.504V512.616H504.896C503.616 512.616 502.667 512.851 502.048 513.32C501.451 513.768 501.152 514.525 501.152 515.592C501.152 516.211 501.269 516.776 501.504 517.288C501.76 517.8 502.187 518.205 502.784 518.504C503.403 518.803 504.256 518.952 505.344 518.952C506.432 518.952 507.275 518.803 507.872 518.504C508.491 518.205 508.928 517.779 509.184 517.224C509.44 516.648 509.568 515.965 509.568 515.176V503.464H512.416V514.984C512.416 517.224 511.84 518.835 510.688 519.816C509.557 520.797 507.776 521.288 505.344 521.288ZM522.552 521V508.552C522.552 507.507 522.307 506.739 521.816 506.248C521.347 505.757 520.547 505.512 519.416 505.512C518.648 505.512 517.923 505.619 517.24 505.832C516.579 506.024 515.939 506.301 515.32 506.664V504.104C515.747 503.891 516.355 503.677 517.144 503.464C517.933 503.251 518.872 503.144 519.96 503.144C521.069 503.144 522.029 503.304 522.84 503.624C523.651 503.944 524.28 504.477 524.728 505.224C525.176 505.949 525.4 506.92 525.4 508.136V521H522.552ZM530.432 521V514.92C530.432 513.576 530.731 512.605 531.328 512.008C531.925 511.389 532.683 510.963 533.6 510.728L533.632 510.632L530.112 509.288V508.232C530.112 507.357 530.4 506.536 530.976 505.768C531.552 504.979 532.373 504.349 533.44 503.88C534.528 503.389 535.819 503.144 537.312 503.144C538.613 503.144 539.819 503.357 540.928 503.784C542.037 504.189 542.923 504.84 543.584 505.736C544.267 506.611 544.608 507.763 544.608 509.192V521H541.76V509.48C541.76 508.051 541.323 507.037 540.448 506.44C539.595 505.821 538.539 505.512 537.28 505.512C535.979 505.512 534.944 505.789 534.176 506.344C533.408 506.877 533.024 507.56 533.024 508.392L536.48 510.12L536.224 511.656C535.435 511.656 534.741 511.923 534.144 512.456C533.568 512.968 533.28 513.789 533.28 514.92V521H530.432ZM554.74 521V508.552C554.74 507.507 554.494 506.739 554.004 506.248C553.534 505.757 552.734 505.512 551.604 505.512C550.836 505.512 550.11 505.619 549.428 505.832C548.766 506.024 548.126 506.301 547.508 506.664V504.104C547.934 503.891 548.542 503.677 549.332 503.464C550.121 503.251 551.06 503.144 552.148 503.144C553.257 503.144 554.217 503.304 555.028 503.624C555.838 503.944 556.468 504.477 556.916 505.224C557.364 505.949 557.588 506.92 557.588 508.136V521H554.74ZM567.708 521.32C566.449 521.32 565.276 521.203 564.188 520.968C563.121 520.712 562.214 520.413 561.468 520.072L562.299 517.768C562.748 517.939 563.26 518.12 563.836 518.312C564.412 518.504 565.03 518.664 565.692 518.792C566.374 518.899 567.068 518.952 567.772 518.952C568.902 518.952 569.841 518.739 570.588 518.312C571.334 517.885 571.708 517.267 571.708 516.456C571.708 515.965 571.569 515.549 571.292 515.208C571.036 514.845 570.63 514.515 570.076 514.216C569.521 513.917 568.806 513.629 567.932 513.352C566.588 512.925 565.446 512.477 564.508 512.008C563.59 511.517 562.886 510.941 562.396 510.28C561.926 509.597 561.692 508.755 561.692 507.752C561.692 506.856 561.926 506.067 562.396 505.384C562.886 504.68 563.633 504.136 564.636 503.752C565.66 503.347 566.961 503.144 568.54 503.144C569.564 503.144 570.524 503.24 571.42 503.432C572.337 503.603 573.052 503.848 573.564 504.168V506.568C573.201 506.397 572.742 506.227 572.188 506.056C571.654 505.885 571.068 505.747 570.428 505.64C569.788 505.533 569.126 505.48 568.444 505.48C567.014 505.48 566.001 505.704 565.404 506.152C564.828 506.579 564.54 507.069 564.54 507.624C564.54 508.093 564.668 508.488 564.924 508.808C565.201 509.128 565.66 509.437 566.3 509.736C566.961 510.035 567.846 510.376 568.956 510.76C569.98 511.101 570.918 511.496 571.772 511.944C572.625 512.392 573.297 512.957 573.788 513.64C574.3 514.301 574.556 515.155 574.556 516.2C574.556 517.096 574.332 517.939 573.884 518.728C573.457 519.496 572.742 520.125 571.74 520.616C570.737 521.085 569.393 521.32 567.708 521.32ZM578.405 521V509.8C578.405 507.645 578.981 506.003 580.133 504.872C581.285 503.72 583.119 503.144 585.637 503.144C588.175 503.144 590.01 503.72 591.141 504.872C592.293 506.003 592.869 507.645 592.869 509.8V521H590.021V509.8C590.021 508.371 589.647 507.304 588.901 506.6C588.154 505.875 587.055 505.512 585.605 505.512C584.175 505.512 583.087 505.875 582.341 506.6C581.615 507.304 581.253 508.371 581.253 509.8V513.352L581.349 513.384C581.818 512.552 582.394 512.008 583.077 511.752C583.759 511.475 584.719 511.336 585.957 511.336H587.013V513.672H585.957C584.655 513.672 583.663 513.853 582.981 514.216C582.319 514.579 581.861 515.059 581.605 515.656C581.37 516.232 581.253 516.883 581.253 517.608V521H578.405ZM604.269 521.32C601.965 521.32 600.237 520.723 599.085 519.528C597.954 518.312 597.389 516.413 597.389 513.832C597.389 513.405 597.399 512.947 597.421 512.456C597.463 511.944 597.506 511.443 597.549 510.952H604.269V513.192H600.237V513.832C600.237 515.176 600.386 516.232 600.685 517C600.983 517.747 601.421 518.269 601.997 518.568C602.594 518.867 603.33 519.016 604.205 519.016C605.165 519.016 605.997 518.835 606.701 518.472C607.405 518.109 607.949 517.448 608.333 516.488C608.717 515.528 608.909 514.152 608.909 512.36C608.909 510.781 608.738 509.491 608.397 508.488C608.055 507.485 607.49 506.739 606.701 506.248C605.933 505.757 604.887 505.512 603.565 505.512C602.882 505.512 602.221 505.576 601.581 505.704C600.941 505.811 600.322 505.981 599.725 506.216C599.127 506.429 598.541 506.707 597.965 507.048V504.392C598.391 504.157 598.914 503.955 599.533 503.784C600.151 503.592 600.834 503.443 601.581 503.336C602.327 503.208 603.106 503.144 603.917 503.144C605.794 503.144 607.309 503.528 608.461 504.296C609.634 505.043 610.487 506.109 611.021 507.496C611.554 508.861 611.821 510.483 611.821 512.36C611.821 514.237 611.575 515.848 611.085 517.192C610.594 518.536 609.794 519.56 608.685 520.264C607.597 520.968 606.125 521.32 604.269 521.32ZM624.884 521.32C623.518 521.32 622.334 521.053 621.332 520.52C620.35 519.965 619.678 519.197 619.316 518.216H619.188L619.028 521H616.692V503.464H619.54V513.608C619.54 514.675 619.721 515.613 620.084 516.424C620.468 517.213 621.012 517.832 621.716 518.28C622.441 518.707 623.305 518.92 624.308 518.92C625.566 518.92 626.505 518.589 627.124 517.928C627.742 517.267 628.052 516.296 628.052 515.016V503.464H630.9V515.208C630.9 516.616 630.654 517.768 630.164 518.664C629.694 519.56 629.012 520.232 628.116 520.68C627.22 521.107 626.142 521.32 624.884 521.32ZM637.98 521L634.812 503.464H637.724L638.972 511.08C639.079 511.699 639.185 512.499 639.292 513.48C639.399 514.461 639.527 515.624 639.676 516.968H639.772C639.964 516.051 640.145 515.229 640.316 514.504C640.508 513.779 640.679 513.128 640.828 512.552C640.999 511.955 641.148 511.432 641.276 510.984L643.42 503.464H645.756L647.932 510.984C648.06 511.432 648.199 511.955 648.348 512.552C648.519 513.128 648.689 513.779 648.86 514.504C649.052 515.229 649.244 516.051 649.436 516.968H649.564C649.692 515.624 649.809 514.461 649.916 513.48C650.023 512.499 650.129 511.699 650.236 511.08L651.516 503.464H654.428L651.26 521H648.476L645.532 511.464C645.383 510.931 645.233 510.376 645.084 509.8C644.956 509.224 644.828 508.467 644.7 507.528H644.572C644.487 508.147 644.391 508.691 644.284 509.16C644.177 509.629 644.071 510.045 643.964 510.408C643.857 510.771 643.751 511.123 643.644 511.464L640.764 521H637.98ZM639.49 500.68V499.432L641.825 498.408H653.089V500.68H639.49ZM661.862 521.32C661.03 521.32 660.219 521.235 659.43 521.064C658.662 520.893 657.841 520.573 656.966 520.104L657.862 517.928C658.331 518.205 658.865 518.451 659.462 518.664C660.059 518.856 660.753 518.952 661.542 518.952C663.121 518.952 664.347 518.376 665.222 517.224C666.118 516.051 666.566 514.365 666.566 512.168C666.566 510.013 666.107 508.371 665.19 507.24C664.294 506.088 662.907 505.512 661.03 505.512C660.347 505.512 659.654 505.587 658.95 505.736C658.246 505.885 657.627 506.109 657.094 506.408V504.008C657.713 503.688 658.385 503.464 659.11 503.336C659.857 503.208 660.603 503.144 661.35 503.144C663.27 503.144 664.827 503.528 666.022 504.296C667.217 505.043 668.091 506.088 668.646 507.432C669.201 508.776 669.478 510.355 669.478 512.168C669.478 514.984 668.838 517.213 667.558 518.856C666.299 520.499 664.401 521.32 661.862 521.32ZM678.06 521.32C677.484 521.32 676.929 521.224 676.396 521.032C675.863 520.84 675.425 520.499 675.084 520.008C674.743 519.517 674.572 518.835 674.572 517.96V503.464H677.42V517.608C677.42 518.099 677.527 518.451 677.74 518.664C677.953 518.877 678.295 518.984 678.764 518.984C678.956 518.984 679.159 518.963 679.372 518.92C679.585 518.877 679.788 518.824 679.98 518.76L680.364 520.84C679.959 521.032 679.564 521.16 679.18 521.224C678.796 521.288 678.423 521.32 678.06 521.32ZM689.425 521.32C687.633 521.32 686.246 520.915 685.265 520.104C684.284 519.272 683.601 518.152 683.217 516.744C682.833 515.315 682.641 513.693 682.641 511.88C682.641 509.789 682.833 508.104 683.217 506.824C683.622 505.544 684.209 504.616 684.977 504.04C685.745 503.443 686.684 503.144 687.793 503.144C688.54 503.144 689.169 503.272 689.681 503.528C690.214 503.784 690.588 504.211 690.801 504.808H690.929C691.142 504.189 691.526 503.763 692.081 503.528C692.636 503.272 693.286 503.144 694.033 503.144C695.42 503.144 696.486 503.517 697.233 504.264C698.001 504.989 698.385 506.109 698.385 507.624V521H695.537V507.656C695.537 506.824 695.356 506.259 694.993 505.96C694.63 505.661 694.172 505.512 693.617 505.512C692.998 505.512 692.54 505.661 692.241 505.96C691.964 506.259 691.793 506.749 691.729 507.432H689.937C689.852 506.685 689.628 506.184 689.265 505.928C688.902 505.651 688.497 505.512 688.049 505.512C687.196 505.512 686.556 506.013 686.129 507.016C685.702 507.997 685.489 509.629 685.489 511.912C685.489 513.384 685.596 514.643 685.809 515.688C686.044 516.733 686.47 517.544 687.089 518.12C687.708 518.675 688.604 518.952 689.777 518.952C690.204 518.952 690.556 518.931 690.833 518.888C691.11 518.845 691.377 518.792 691.633 518.728L691.921 520.904C691.601 521.053 691.217 521.16 690.769 521.224C690.321 521.288 689.873 521.32 689.425 521.32ZM709.769 521.32C707.465 521.32 705.737 520.723 704.585 519.528C703.454 518.312 702.889 516.413 702.889 513.832C702.889 513.405 702.899 512.947 702.921 512.456C702.963 511.944 703.006 511.443 703.049 510.952H709.769V513.192H705.737V513.832C705.737 515.176 705.886 516.232 706.185 517C706.483 517.747 706.921 518.269 707.497 518.568C708.094 518.867 708.83 519.016 709.705 519.016C710.665 519.016 711.497 518.835 712.201 518.472C712.905 518.109 713.449 517.448 713.833 516.488C714.217 515.528 714.409 514.152 714.409 512.36C714.409 510.781 714.238 509.491 713.897 508.488C713.555 507.485 712.99 506.739 712.201 506.248C711.433 505.757 710.387 505.512 709.065 505.512C708.382 505.512 707.721 505.576 707.081 505.704C706.441 505.811 705.822 505.981 705.225 506.216C704.627 506.429 704.041 506.707 703.465 507.048V504.392C703.891 504.157 704.414 503.955 705.033 503.784C705.651 503.592 706.334 503.443 707.081 503.336C707.827 503.208 708.606 503.144 709.417 503.144C711.294 503.144 712.809 503.528 713.961 504.296C715.134 505.043 715.987 506.109 716.521 507.496C717.054 508.861 717.321 510.483 717.321 512.36C717.321 514.237 717.075 515.848 716.585 517.192C716.094 518.536 715.294 519.56 714.185 520.264C713.097 520.968 711.625 521.32 709.769 521.32ZM726.864 521.32C725.605 521.32 724.432 521.203 723.344 520.968C722.277 520.712 721.37 520.413 720.624 520.072L721.456 517.768C721.904 517.939 722.416 518.12 722.992 518.312C723.568 518.504 724.186 518.664 724.848 518.792C725.53 518.899 726.224 518.952 726.928 518.952C728.058 518.952 728.997 518.739 729.744 518.312C730.49 517.885 730.864 517.267 730.864 516.456C730.864 515.965 730.725 515.549 730.448 515.208C730.192 514.845 729.786 514.515 729.232 514.216C728.677 513.917 727.962 513.629 727.088 513.352C725.744 512.925 724.602 512.477 723.664 512.008C722.746 511.517 722.042 510.941 721.552 510.28C721.082 509.597 720.848 508.755 720.848 507.752C720.848 506.856 721.082 506.067 721.552 505.384C722.042 504.68 722.789 504.136 723.792 503.752C724.816 503.347 726.117 503.144 727.696 503.144C728.72 503.144 729.68 503.24 730.576 503.432C731.493 503.603 732.208 503.848 732.72 504.168V506.568C732.357 506.397 731.898 506.227 731.344 506.056C730.81 505.885 730.224 505.747 729.584 505.64C728.944 505.533 728.282 505.48 727.6 505.48C726.17 505.48 725.157 505.704 724.56 506.152C723.984 506.579 723.696 507.069 723.696 507.624C723.696 508.093 723.824 508.488 724.08 508.808C724.357 509.128 724.816 509.437 725.456 509.736C726.117 510.035 727.002 510.376 728.112 510.76C729.136 511.101 730.074 511.496 730.928 511.944C731.781 512.392 732.453 512.957 732.944 513.64C733.456 514.301 733.712 515.155 733.712 516.2C733.712 517.096 733.488 517.939 733.04 518.728C732.613 519.496 731.898 520.125 730.896 520.616C729.893 521.085 728.549 521.32 726.864 521.32ZM728.435 501.608C728.286 501.373 728.169 501.075 728.083 500.712C727.977 500.328 727.923 499.955 727.923 499.592C727.923 499.144 728.019 498.728 728.211 498.344C728.403 497.939 728.745 497.608 729.235 497.352C729.726 497.096 730.409 496.968 731.283 496.968H735.667V499.176H732.019C731.593 499.176 731.251 499.261 730.995 499.432C730.739 499.581 730.611 499.848 730.611 500.232C730.611 500.381 730.643 500.541 730.707 500.712C730.75 500.883 730.814 501.053 730.899 501.224L728.435 501.608Z" fill="black"/>
<path d="M217.56 569.32C216.984 569.32 216.429 569.224 215.896 569.032C215.363 568.84 214.925 568.499 214.584 568.008C214.243 567.517 214.072 566.835 214.072 565.96V551.464H216.92V565.608C216.92 566.099 217.027 566.451 217.24 566.664C217.453 566.877 217.795 566.984 218.264 566.984C218.456 566.984 218.659 566.963 218.872 566.92C219.085 566.877 219.288 566.824 219.48 566.76L219.864 568.84C219.459 569.032 219.064 569.16 218.68 569.224C218.296 569.288 217.923 569.32 217.56 569.32ZM226.296 569.32C225.72 569.32 225.165 569.224 224.632 569.032C224.099 568.84 223.661 568.499 223.32 568.008C222.979 567.517 222.808 566.835 222.808 565.96V551.464H225.656V565.608C225.656 566.099 225.763 566.451 225.976 566.664C226.189 566.877 226.531 566.984 227 566.984C227.192 566.984 227.395 566.963 227.608 566.92C227.821 566.877 228.024 566.824 228.216 566.76L228.6 568.84C228.195 569.032 227.8 569.16 227.416 569.224C227.032 569.288 226.659 569.32 226.296 569.32ZM241.739 569V557.32C241.739 555.933 241.419 554.952 240.779 554.376C240.16 553.779 239.115 553.48 237.643 553.48C236.576 553.48 235.552 553.629 234.571 553.928C233.611 554.205 232.694 554.6 231.819 555.112V552.456C232.438 552.136 233.27 551.837 234.315 551.56C235.382 551.283 236.576 551.144 237.899 551.144C239.03 551.144 240.011 551.272 240.843 551.528C241.675 551.763 242.358 552.125 242.891 552.616C243.446 553.107 243.862 553.736 244.139 554.504C244.416 555.251 244.555 556.136 244.555 557.16V569H241.739ZM236.235 569.32C234.358 569.32 232.918 568.893 231.915 568.04C230.934 567.165 230.443 565.917 230.443 564.296C230.443 562.525 231.083 561.16 232.363 560.2C233.664 559.24 235.766 558.675 238.667 558.504L242.315 558.28V560.648L239.051 560.872C236.875 561.021 235.371 561.363 234.539 561.896C233.728 562.429 233.323 563.208 233.323 564.232C233.323 565.192 233.622 565.896 234.219 566.344C234.838 566.792 235.691 567.016 236.779 567.016C237.142 567.016 237.472 566.995 237.771 566.952C238.07 566.888 238.358 566.813 238.635 566.728L239.083 568.872C238.678 569.021 238.23 569.128 237.739 569.192C237.27 569.277 236.768 569.32 236.235 569.32ZM252.052 557.992C251.178 557.992 250.463 557.864 249.908 557.608C249.375 557.331 248.991 556.989 248.756 556.584C248.522 556.157 248.404 555.709 248.404 555.24C248.404 554.92 248.447 554.589 248.532 554.248C248.639 553.907 248.767 553.619 248.916 553.384L251.316 553.768C251.274 553.875 251.22 554.024 251.156 554.216C251.114 554.408 251.092 554.6 251.092 554.792C251.092 555.069 251.167 555.304 251.316 555.496C251.466 555.667 251.743 555.752 252.148 555.752H256.724V557.992H252.052ZM252.052 566.952C251.178 566.952 250.463 566.824 249.908 566.568C249.375 566.291 248.991 565.949 248.756 565.544C248.522 565.117 248.404 564.669 248.404 564.2C248.404 563.88 248.447 563.549 248.532 563.208C248.639 562.867 248.767 562.579 248.916 562.344L251.316 562.728C251.274 562.835 251.22 562.984 251.156 563.176C251.114 563.368 251.092 563.56 251.092 563.752C251.092 564.029 251.167 564.264 251.316 564.456C251.466 564.627 251.743 564.712 252.148 564.712H256.724V566.952H252.052ZM270.833 569V557.32C270.833 555.933 270.513 554.952 269.873 554.376C269.254 553.779 268.209 553.48 266.737 553.48C265.67 553.48 264.646 553.629 263.665 553.928C262.705 554.205 261.787 554.6 260.913 555.112V552.456C261.531 552.136 262.363 551.837 263.409 551.56C264.475 551.283 265.67 551.144 266.993 551.144C268.123 551.144 269.083 551.272 269.873 551.528C270.683 551.784 271.281 552.253 271.665 552.936C272.411 553.277 272.923 553.811 273.201 554.536C273.499 555.261 273.649 556.136 273.649 557.16V569H270.833ZM265.329 569.32C263.451 569.32 262.011 568.893 261.009 568.04C260.027 567.165 259.537 565.917 259.537 564.296C259.537 562.525 260.177 561.16 261.457 560.2C262.758 559.24 264.859 558.675 267.761 558.504L271.409 558.28V560.648L268.145 560.872C265.969 561.021 264.465 561.363 263.633 561.896C262.822 562.429 262.417 563.208 262.417 564.232C262.417 565.192 262.715 565.896 263.313 566.344C263.931 566.792 264.785 567.016 265.873 567.016C266.235 567.016 266.566 566.995 266.865 566.952C267.163 566.888 267.451 566.813 267.729 566.728L268.177 568.872C267.771 569.021 267.323 569.128 266.833 569.192C266.363 569.277 265.862 569.32 265.329 569.32ZM271.569 553.928L269.969 552.424C270.523 552.339 271.046 552.125 271.537 551.784C272.027 551.443 272.273 550.952 272.273 550.312H275.057C275.057 550.973 274.897 551.56 274.577 552.072C274.278 552.563 273.862 552.968 273.329 553.288C272.795 553.587 272.209 553.8 271.569 553.928ZM283.833 569V556.552C283.833 555.507 283.588 554.739 283.097 554.248C282.628 553.757 281.828 553.512 280.697 553.512C279.929 553.512 279.204 553.619 278.521 553.832C277.86 554.024 277.22 554.301 276.601 554.664V552.104C277.028 551.891 277.636 551.677 278.425 551.464C279.215 551.251 280.153 551.144 281.241 551.144C282.351 551.144 283.311 551.304 284.121 551.624C284.932 551.944 285.561 552.477 286.009 553.224C286.457 553.949 286.681 554.92 286.681 556.136V569H283.833ZM296.801 569.32C295.543 569.32 294.369 569.203 293.281 568.968C292.215 568.712 291.308 568.413 290.561 568.072L291.393 565.768C291.841 565.939 292.353 566.12 292.929 566.312C293.505 566.504 294.124 566.664 294.785 566.792C295.468 566.899 296.161 566.952 296.865 566.952C297.996 566.952 298.935 566.739 299.681 566.312C300.428 565.885 300.801 565.267 300.801 564.456C300.801 563.965 300.663 563.549 300.385 563.208C300.129 562.845 299.724 562.515 299.169 562.216C298.615 561.917 297.9 561.629 297.025 561.352C295.681 560.925 294.54 560.477 293.601 560.008C292.684 559.517 291.98 558.941 291.489 558.28C291.02 557.597 290.785 556.755 290.785 555.752C290.785 554.856 291.02 554.067 291.489 553.384C291.98 552.68 292.727 552.136 293.729 551.752C294.753 551.347 296.055 551.144 297.633 551.144C298.657 551.144 299.617 551.24 300.513 551.432C301.431 551.603 302.145 551.848 302.657 552.168V554.568C302.295 554.397 301.836 554.227 301.281 554.056C300.748 553.885 300.161 553.747 299.521 553.64C298.881 553.533 298.22 553.48 297.537 553.48C296.108 553.48 295.095 553.704 294.497 554.152C293.921 554.579 293.633 555.069 293.633 555.624C293.633 556.093 293.761 556.488 294.017 556.808C294.295 557.128 294.753 557.437 295.393 557.736C296.055 558.035 296.94 558.376 298.049 558.76C299.073 559.101 300.012 559.496 300.865 559.944C301.719 560.392 302.391 560.957 302.881 561.64C303.393 562.301 303.649 563.155 303.649 564.2C303.649 565.096 303.425 565.939 302.977 566.728C302.551 567.496 301.836 568.125 300.833 568.616C299.831 569.085 298.487 569.32 296.801 569.32ZM317.77 569V557.32C317.77 555.933 317.45 554.952 316.81 554.376C316.192 553.779 315.146 553.48 313.674 553.48C312.608 553.48 311.584 553.629 310.602 553.928C309.642 554.205 308.725 554.6 307.85 555.112V552.456C308.469 552.136 309.301 551.837 310.346 551.56C311.413 551.283 312.608 551.144 313.93 551.144C315.061 551.144 316.021 551.272 316.81 551.528C317.621 551.784 318.218 552.253 318.602 552.936C319.349 553.277 319.861 553.811 320.138 554.536C320.437 555.261 320.586 556.136 320.586 557.16V569H317.77ZM312.266 569.32C310.389 569.32 308.949 568.893 307.946 568.04C306.965 567.165 306.474 565.917 306.474 564.296C306.474 562.525 307.114 561.16 308.394 560.2C309.696 559.24 311.797 558.675 314.698 558.504L318.346 558.28V560.648L315.082 560.872C312.906 561.021 311.402 561.363 310.57 561.896C309.76 562.429 309.354 563.208 309.354 564.232C309.354 565.192 309.653 565.896 310.25 566.344C310.869 566.792 311.722 567.016 312.81 567.016C313.173 567.016 313.504 566.995 313.802 566.952C314.101 566.888 314.389 566.813 314.666 566.728L315.114 568.872C314.709 569.021 314.261 569.128 313.77 569.192C313.301 569.277 312.8 569.32 312.266 569.32ZM318.506 553.928L316.906 552.424C317.461 552.339 317.984 552.125 318.474 551.784C318.965 551.443 319.21 550.952 319.21 550.312H321.994C321.994 550.973 321.834 551.56 321.514 552.072C321.216 552.563 320.8 552.968 320.266 553.288C319.733 553.587 319.146 553.8 318.506 553.928ZM331.859 569.32C330.6 569.32 329.512 569.107 328.595 568.68C327.699 568.232 327.005 567.56 326.515 566.664C326.045 565.768 325.811 564.605 325.811 563.176V551.464H328.659V563.016C328.659 564.296 328.979 565.267 329.619 565.928C330.28 566.589 331.229 566.92 332.467 566.92C333.96 566.92 335.112 566.44 335.923 565.48C336.755 564.52 337.171 563.229 337.171 561.608V551.464H340.019V569H337.651L337.523 566.408H337.363C336.979 567.261 336.307 567.965 335.347 568.52C334.408 569.053 333.245 569.32 331.859 569.32ZM349.404 569.32C348.828 569.32 348.273 569.224 347.74 569.032C347.206 568.84 346.769 568.499 346.428 568.008C346.086 567.517 345.916 566.835 345.916 565.96V551.464H348.764V565.608C348.764 566.099 348.87 566.451 349.084 566.664C349.297 566.877 349.638 566.984 350.108 566.984C350.3 566.984 350.502 566.963 350.716 566.92C350.929 566.877 351.132 566.824 351.324 566.76L351.708 568.84C351.302 569.032 350.908 569.16 350.524 569.224C350.14 569.288 349.766 569.32 349.404 569.32ZM354.969 569V551.464H356.953L357.465 554.248H357.593C357.956 553.288 358.617 552.531 359.577 551.976C360.537 551.421 361.7 551.144 363.065 551.144C364.345 551.144 365.433 551.368 366.329 551.816C367.247 552.243 367.951 552.904 368.441 553.8C368.932 554.696 369.177 555.859 369.177 557.288V569H366.329V557.448C366.329 556.168 366.009 555.197 365.369 554.536C364.729 553.875 363.78 553.544 362.521 553.544C361.519 553.544 360.665 553.779 359.961 554.248C359.257 554.717 358.724 555.357 358.361 556.168C357.999 556.957 357.817 557.853 357.817 558.856V569H354.969ZM374.373 569V557.8C374.373 555.645 374.949 554.003 376.101 552.872C377.253 551.72 379.088 551.144 381.605 551.144C382.8 551.144 383.824 551.293 384.677 551.592C385.531 551.869 386.203 552.349 386.693 553.032C387.461 553.416 388.005 554.024 388.325 554.856C388.667 555.688 388.837 556.669 388.837 557.8V569H385.989V557.8C385.989 556.371 385.616 555.304 384.869 554.6C384.144 553.875 383.056 553.512 381.605 553.512C380.155 553.512 379.056 553.875 378.309 554.6C377.584 555.304 377.221 556.371 377.221 557.8V561.352L377.317 561.384C377.808 560.552 378.384 560.008 379.045 559.752C379.728 559.475 380.688 559.336 381.925 559.336H382.981V561.672H381.925C380.645 561.672 379.664 561.853 378.981 562.216C378.299 562.579 377.829 563.059 377.573 563.656C377.339 564.232 377.221 564.883 377.221 565.608V569H374.373ZM386.693 553.928L385.093 552.424C385.648 552.339 386.171 552.125 386.661 551.784C387.152 551.443 387.397 550.952 387.397 550.312H390.181C390.181 550.973 390.021 551.56 389.701 552.072C389.381 552.563 388.955 552.968 388.421 553.288C387.909 553.587 387.333 553.8 386.693 553.928Z" fill="black"/>
<rect x="1060" y="237" width="400" height="61" rx="10" fill="#EAF0F7"/>
<path d="M1084.02 262.352V265.616H1087.86V267.104H1084.02V270.512H1088.34V272H1082.2V260.864H1088.34V262.352H1084.02ZM1095.04 263.04C1095.73 263.04 1096.35 263.184 1096.89 263.472C1097.45 263.76 1097.88 264.187 1098.19 264.752C1098.5 265.317 1098.65 266 1098.65 266.8V272H1096.85V267.072C1096.85 266.283 1096.65 265.68 1096.25 265.264C1095.86 264.837 1095.32 264.624 1094.64 264.624C1093.96 264.624 1093.41 264.837 1093.01 265.264C1092.61 265.68 1092.41 266.283 1092.41 267.072V272H1090.59V263.184H1092.41V264.192C1092.71 263.829 1093.09 263.547 1093.55 263.344C1094.02 263.141 1094.52 263.04 1095.04 263.04ZM1103.11 264.672V269.552C1103.11 269.883 1103.18 270.123 1103.33 270.272C1103.49 270.411 1103.76 270.48 1104.13 270.48H1105.25V272H1103.81C1102.99 272 1102.36 271.808 1101.93 271.424C1101.49 271.04 1101.27 270.416 1101.27 269.552V264.672H1100.23V263.184H1101.27V260.992H1103.11V263.184H1105.25V264.672H1103.11ZM1115.01 267.376C1115.01 267.707 1114.99 268.005 1114.95 268.272H1108.21C1108.27 268.976 1108.53 269.541 1109 269.968C1109.47 270.395 1110.04 270.608 1110.73 270.608C1111.71 270.608 1112.4 270.197 1112.81 269.376H1114.77C1114.51 270.187 1114.02 270.853 1113.32 271.376C1112.63 271.888 1111.76 272.144 1110.73 272.144C1109.88 272.144 1109.13 271.957 1108.45 271.584C1107.79 271.2 1107.27 270.667 1106.89 269.984C1106.51 269.291 1106.33 268.491 1106.33 267.584C1106.33 266.677 1106.51 265.883 1106.87 265.2C1107.24 264.507 1107.76 263.973 1108.42 263.6C1109.09 263.227 1109.86 263.04 1110.73 263.04C1111.56 263.04 1112.3 263.221 1112.95 263.584C1113.6 263.947 1114.11 264.459 1114.47 265.12C1114.83 265.771 1115.01 266.523 1115.01 267.376ZM1113.11 266.8C1113.1 266.128 1112.86 265.589 1112.39 265.184C1111.92 264.779 1111.34 264.576 1110.65 264.576C1110.02 264.576 1109.48 264.779 1109.03 265.184C1108.58 265.579 1108.32 266.117 1108.23 266.8H1113.11ZM1118.63 264.464C1118.9 264.016 1119.25 263.669 1119.69 263.424C1120.14 263.168 1120.67 263.04 1121.27 263.04V264.928H1120.81C1120.09 264.928 1119.55 265.109 1119.18 265.472C1118.81 265.835 1118.63 266.464 1118.63 267.36V272H1116.81V263.184H1118.63V264.464ZM1128.91 260.88V267.968C1128.91 268.811 1129.13 269.445 1129.57 269.872C1130.02 270.299 1130.64 270.512 1131.43 270.512C1132.23 270.512 1132.84 270.299 1133.28 269.872C1133.73 269.445 1133.95 268.811 1133.95 267.968V260.88H1135.78V267.936C1135.78 268.843 1135.58 269.611 1135.19 270.24C1134.79 270.869 1134.26 271.339 1133.6 271.648C1132.94 271.957 1132.21 272.112 1131.41 272.112C1130.61 272.112 1129.88 271.957 1129.22 271.648C1128.57 271.339 1128.05 270.869 1127.67 270.24C1127.28 269.611 1127.09 268.843 1127.09 267.936V260.88H1128.91ZM1141.35 272.144C1140.66 272.144 1140.04 272.021 1139.48 271.776C1138.94 271.52 1138.51 271.179 1138.19 270.752C1137.87 270.315 1137.69 269.829 1137.67 269.296H1139.56C1139.59 269.669 1139.77 269.984 1140.09 270.24C1140.42 270.485 1140.83 270.608 1141.32 270.608C1141.83 270.608 1142.23 270.512 1142.51 270.32C1142.79 270.117 1142.94 269.861 1142.94 269.552C1142.94 269.221 1142.78 268.976 1142.46 268.816C1142.15 268.656 1141.65 268.48 1140.97 268.288C1140.31 268.107 1139.77 267.931 1139.35 267.76C1138.94 267.589 1138.57 267.328 1138.27 266.976C1137.97 266.624 1137.82 266.16 1137.82 265.584C1137.82 265.115 1137.96 264.688 1138.23 264.304C1138.51 263.909 1138.91 263.6 1139.42 263.376C1139.94 263.152 1140.54 263.04 1141.21 263.04C1142.21 263.04 1143.02 263.296 1143.63 263.808C1144.24 264.309 1144.57 264.997 1144.62 265.872H1142.79C1142.76 265.477 1142.6 265.163 1142.31 264.928C1142.03 264.693 1141.64 264.576 1141.15 264.576C1140.67 264.576 1140.3 264.667 1140.04 264.848C1139.79 265.029 1139.66 265.269 1139.66 265.568C1139.66 265.803 1139.74 266 1139.91 266.16C1140.08 266.32 1140.29 266.448 1140.54 266.544C1140.78 266.629 1141.15 266.741 1141.63 266.88C1142.27 267.051 1142.79 267.227 1143.19 267.408C1143.61 267.579 1143.97 267.835 1144.27 268.176C1144.56 268.517 1144.72 268.971 1144.73 269.536C1144.73 270.037 1144.59 270.485 1144.31 270.88C1144.04 271.275 1143.64 271.584 1143.13 271.808C1142.63 272.032 1142.04 272.144 1141.35 272.144ZM1154.78 267.376C1154.78 267.707 1154.76 268.005 1154.72 268.272H1147.98C1148.03 268.976 1148.29 269.541 1148.76 269.968C1149.23 270.395 1149.81 270.608 1150.49 270.608C1151.47 270.608 1152.17 270.197 1152.57 269.376H1154.54C1154.27 270.187 1153.79 270.853 1153.08 271.376C1152.39 271.888 1151.53 272.144 1150.49 272.144C1149.65 272.144 1148.89 271.957 1148.22 271.584C1147.56 271.2 1147.04 270.667 1146.65 269.984C1146.28 269.291 1146.09 268.491 1146.09 267.584C1146.09 266.677 1146.27 265.883 1146.64 265.2C1147.01 264.507 1147.53 263.973 1148.19 263.6C1148.86 263.227 1149.63 263.04 1150.49 263.04C1151.32 263.04 1152.07 263.221 1152.72 263.584C1153.37 263.947 1153.87 264.459 1154.24 265.12C1154.6 265.771 1154.78 266.523 1154.78 267.376ZM1152.88 266.8C1152.87 266.128 1152.63 265.589 1152.16 265.184C1151.69 264.779 1151.11 264.576 1150.41 264.576C1149.78 264.576 1149.24 264.779 1148.8 265.184C1148.35 265.579 1148.08 266.117 1148 266.8H1152.88ZM1158.4 264.464C1158.67 264.016 1159.02 263.669 1159.46 263.424C1159.9 263.168 1160.43 263.04 1161.04 263.04V264.928H1160.58C1159.86 264.928 1159.32 265.109 1158.94 265.472C1158.58 265.835 1158.4 266.464 1158.4 267.36V272H1156.58V263.184H1158.4V264.464ZM1167.16 263.04C1167.86 263.04 1168.48 263.184 1169.02 263.472C1169.57 263.76 1170.01 264.187 1170.32 264.752C1170.62 265.317 1170.78 266 1170.78 266.8V272H1168.97V267.072C1168.97 266.283 1168.77 265.68 1168.38 265.264C1167.98 264.837 1167.45 264.624 1166.76 264.624C1166.08 264.624 1165.54 264.837 1165.13 265.264C1164.74 265.68 1164.54 266.283 1164.54 267.072V272H1162.72V263.184H1164.54V264.192C1164.84 263.829 1165.22 263.547 1165.68 263.344C1166.14 263.141 1166.64 263.04 1167.16 263.04ZM1172.5 267.552C1172.5 266.667 1172.68 265.883 1173.04 265.2C1173.42 264.517 1173.92 263.989 1174.55 263.616C1175.19 263.232 1175.89 263.04 1176.66 263.04C1177.35 263.04 1177.95 263.179 1178.47 263.456C1178.99 263.723 1179.4 264.059 1179.71 264.464V263.184H1181.55V272H1179.71V270.688C1179.4 271.104 1178.98 271.451 1178.45 271.728C1177.92 272.005 1177.31 272.144 1176.63 272.144C1175.87 272.144 1175.18 271.952 1174.55 271.568C1173.92 271.173 1173.42 270.629 1173.04 269.936C1172.68 269.232 1172.5 268.437 1172.5 267.552ZM1179.71 267.584C1179.71 266.976 1179.59 266.448 1179.33 266C1179.08 265.552 1178.76 265.211 1178.35 264.976C1177.95 264.741 1177.51 264.624 1177.04 264.624C1176.57 264.624 1176.14 264.741 1175.73 264.976C1175.32 265.2 1174.99 265.536 1174.74 265.984C1174.49 266.421 1174.37 266.944 1174.37 267.552C1174.37 268.16 1174.49 268.693 1174.74 269.152C1174.99 269.611 1175.32 269.963 1175.73 270.208C1176.15 270.443 1176.58 270.56 1177.04 270.56C1177.51 270.56 1177.95 270.443 1178.35 270.208C1178.76 269.973 1179.08 269.632 1179.33 269.184C1179.59 268.725 1179.71 268.192 1179.71 267.584ZM1194.62 263.04C1195.32 263.04 1195.93 263.184 1196.48 263.472C1197.03 263.76 1197.46 264.187 1197.77 264.752C1198.09 265.317 1198.25 266 1198.25 266.8V272H1196.45V267.072C1196.45 266.283 1196.25 265.68 1195.85 265.264C1195.46 264.837 1194.92 264.624 1194.24 264.624C1193.56 264.624 1193.01 264.837 1192.61 265.264C1192.21 265.68 1192.01 266.283 1192.01 267.072V272H1190.21V267.072C1190.21 266.283 1190.01 265.68 1189.61 265.264C1189.22 264.837 1188.68 264.624 1188 264.624C1187.32 264.624 1186.77 264.837 1186.37 265.264C1185.97 265.68 1185.77 266.283 1185.77 267.072V272H1183.95V263.184H1185.77V264.192C1186.07 263.829 1186.45 263.547 1186.91 263.344C1187.37 263.141 1187.86 263.04 1188.38 263.04C1189.09 263.04 1189.72 263.189 1190.27 263.488C1190.82 263.787 1191.25 264.219 1191.55 264.784C1191.82 264.251 1192.23 263.829 1192.8 263.52C1193.36 263.2 1193.97 263.04 1194.62 263.04ZM1208.66 267.376C1208.66 267.707 1208.63 268.005 1208.59 268.272H1201.86C1201.91 268.976 1202.17 269.541 1202.64 269.968C1203.11 270.395 1203.68 270.608 1204.37 270.608C1205.35 270.608 1206.04 270.197 1206.45 269.376H1208.41C1208.15 270.187 1207.66 270.853 1206.96 271.376C1206.27 271.888 1205.4 272.144 1204.37 272.144C1203.52 272.144 1202.77 271.957 1202.1 271.584C1201.43 271.2 1200.91 270.667 1200.53 269.984C1200.15 269.291 1199.97 268.491 1199.97 267.584C1199.97 266.677 1200.15 265.883 1200.51 265.2C1200.88 264.507 1201.4 263.973 1202.06 263.6C1202.74 263.227 1203.5 263.04 1204.37 263.04C1205.2 263.04 1205.94 263.221 1206.59 263.584C1207.24 263.947 1207.75 264.459 1208.11 265.12C1208.47 265.771 1208.66 266.523 1208.66 267.376ZM1206.75 266.8C1206.74 266.128 1206.5 265.589 1206.03 265.184C1205.56 264.779 1204.98 264.576 1204.29 264.576C1203.66 264.576 1203.12 264.779 1202.67 265.184C1202.22 265.579 1201.96 266.117 1201.87 266.8H1206.75Z" fill="#7B7B7B" fill-opacity="0.79"/>
<rect x="1060" y="382" width="400" height="61" rx="10" fill="#EAF0F7"/>
<path d="M1089.98 410.192C1089.98 410.757 1089.84 411.291 1089.58 411.792C1089.31 412.293 1088.88 412.704 1088.3 413.024C1087.71 413.333 1086.96 413.488 1086.04 413.488H1084.02V418H1082.2V406.88H1086.04C1086.89 406.88 1087.61 407.029 1088.2 407.328C1088.8 407.616 1089.24 408.011 1089.53 408.512C1089.83 409.013 1089.98 409.573 1089.98 410.192ZM1086.04 412C1086.73 412 1087.25 411.845 1087.59 411.536C1087.93 411.216 1088.1 410.768 1088.1 410.192C1088.1 408.976 1087.42 408.368 1086.04 408.368H1084.02V412H1086.04ZM1091.11 413.552C1091.11 412.667 1091.29 411.883 1091.65 411.2C1092.02 410.517 1092.53 409.989 1093.16 409.616C1093.8 409.232 1094.5 409.04 1095.27 409.04C1095.96 409.04 1096.56 409.179 1097.08 409.456C1097.6 409.723 1098.01 410.059 1098.32 410.464V409.184H1100.16V418H1098.32V416.688C1098.01 417.104 1097.59 417.451 1097.06 417.728C1096.53 418.005 1095.92 418.144 1095.24 418.144C1094.48 418.144 1093.78 417.952 1093.16 417.568C1092.53 417.173 1092.02 416.629 1091.65 415.936C1091.29 415.232 1091.11 414.437 1091.11 413.552ZM1098.32 413.584C1098.32 412.976 1098.2 412.448 1097.94 412C1097.69 411.552 1097.37 411.211 1096.96 410.976C1096.56 410.741 1096.12 410.624 1095.65 410.624C1095.18 410.624 1094.74 410.741 1094.34 410.976C1093.93 411.2 1093.6 411.536 1093.35 411.984C1093.1 412.421 1092.98 412.944 1092.98 413.552C1092.98 414.16 1093.1 414.693 1093.35 415.152C1093.6 415.611 1093.93 415.963 1094.34 416.208C1094.76 416.443 1095.19 416.56 1095.65 416.56C1096.12 416.56 1096.56 416.443 1096.96 416.208C1097.37 415.973 1097.69 415.632 1097.94 415.184C1098.2 414.725 1098.32 414.192 1098.32 413.584ZM1105.76 418.144C1105.07 418.144 1104.44 418.021 1103.89 417.776C1103.34 417.52 1102.91 417.179 1102.59 416.752C1102.27 416.315 1102.1 415.829 1102.08 415.296H1103.97C1104 415.669 1104.18 415.984 1104.5 416.24C1104.83 416.485 1105.24 416.608 1105.73 416.608C1106.24 416.608 1106.63 416.512 1106.91 416.32C1107.2 416.117 1107.34 415.861 1107.34 415.552C1107.34 415.221 1107.18 414.976 1106.86 414.816C1106.55 414.656 1106.06 414.48 1105.38 414.288C1104.71 414.107 1104.18 413.931 1103.76 413.76C1103.34 413.589 1102.98 413.328 1102.67 412.976C1102.37 412.624 1102.22 412.16 1102.22 411.584C1102.22 411.115 1102.36 410.688 1102.64 410.304C1102.92 409.909 1103.31 409.6 1103.82 409.376C1104.35 409.152 1104.94 409.04 1105.62 409.04C1106.62 409.04 1107.42 409.296 1108.03 409.808C1108.65 410.309 1108.98 410.997 1109.02 411.872H1107.2C1107.17 411.477 1107.01 411.163 1106.72 410.928C1106.43 410.693 1106.04 410.576 1105.55 410.576C1105.07 410.576 1104.7 410.667 1104.45 410.848C1104.19 411.029 1104.06 411.269 1104.06 411.568C1104.06 411.803 1104.15 412 1104.32 412.16C1104.49 412.32 1104.7 412.448 1104.94 412.544C1105.19 412.629 1105.55 412.741 1106.03 412.88C1106.67 413.051 1107.19 413.227 1107.6 413.408C1108.02 413.579 1108.37 413.835 1108.67 414.176C1108.97 414.517 1109.12 414.971 1109.14 415.536C1109.14 416.037 1109 416.485 1108.72 416.88C1108.44 417.275 1108.05 417.584 1107.54 417.808C1107.03 418.032 1106.44 418.144 1105.76 418.144ZM1114.31 418.144C1113.61 418.144 1112.99 418.021 1112.43 417.776C1111.89 417.52 1111.46 417.179 1111.14 416.752C1110.82 416.315 1110.65 415.829 1110.63 415.296H1112.51C1112.55 415.669 1112.72 415.984 1113.04 416.24C1113.37 416.485 1113.78 416.608 1114.27 416.608C1114.79 416.608 1115.18 416.512 1115.46 416.32C1115.75 416.117 1115.89 415.861 1115.89 415.552C1115.89 415.221 1115.73 414.976 1115.41 414.816C1115.1 414.656 1114.6 414.48 1113.92 414.288C1113.26 414.107 1112.72 413.931 1112.31 413.76C1111.89 413.589 1111.53 413.328 1111.22 412.976C1110.92 412.624 1110.77 412.16 1110.77 411.584C1110.77 411.115 1110.91 410.688 1111.19 410.304C1111.46 409.909 1111.86 409.6 1112.37 409.376C1112.89 409.152 1113.49 409.04 1114.16 409.04C1115.16 409.04 1115.97 409.296 1116.58 409.808C1117.2 410.309 1117.53 410.997 1117.57 411.872H1115.75C1115.71 411.477 1115.55 411.163 1115.27 410.928C1114.98 410.693 1114.59 410.576 1114.1 410.576C1113.62 410.576 1113.25 410.667 1112.99 410.848C1112.74 411.029 1112.61 411.269 1112.61 411.568C1112.61 411.803 1112.7 412 1112.87 412.16C1113.04 412.32 1113.24 412.448 1113.49 412.544C1113.74 412.629 1114.1 412.741 1114.58 412.88C1115.22 413.051 1115.74 413.227 1116.15 413.408C1116.56 413.579 1116.92 413.835 1117.22 414.176C1117.52 414.517 1117.67 414.971 1117.68 415.536C1117.68 416.037 1117.54 416.485 1117.27 416.88C1116.99 417.275 1116.59 417.584 1116.08 417.808C1115.58 418.032 1114.99 418.144 1114.31 418.144ZM1131.49 409.184L1128.76 418H1126.84L1125.06 411.488L1123.29 418H1121.37L1118.61 409.184H1120.47L1122.31 416.272L1124.18 409.184H1126.09L1127.88 416.24L1129.7 409.184H1131.49ZM1136.68 418.144C1135.85 418.144 1135.1 417.957 1134.42 417.584C1133.75 417.2 1133.22 416.667 1132.84 415.984C1132.46 415.291 1132.26 414.491 1132.26 413.584C1132.26 412.688 1132.46 411.893 1132.86 411.2C1133.25 410.507 1133.79 409.973 1134.47 409.6C1135.15 409.227 1135.92 409.04 1136.76 409.04C1137.6 409.04 1138.37 409.227 1139.05 409.6C1139.73 409.973 1140.27 410.507 1140.66 411.2C1141.06 411.893 1141.26 412.688 1141.26 413.584C1141.26 414.48 1141.05 415.275 1140.65 415.968C1140.24 416.661 1139.69 417.2 1138.98 417.584C1138.29 417.957 1137.52 418.144 1136.68 418.144ZM1136.68 416.56C1137.15 416.56 1137.59 416.448 1137.99 416.224C1138.41 416 1138.74 415.664 1139 415.216C1139.26 414.768 1139.38 414.224 1139.38 413.584C1139.38 412.944 1139.26 412.405 1139.02 411.968C1138.77 411.52 1138.45 411.184 1138.04 410.96C1137.63 410.736 1137.2 410.624 1136.73 410.624C1136.26 410.624 1135.82 410.736 1135.42 410.96C1135.02 411.184 1134.71 411.52 1134.47 411.968C1134.24 412.405 1134.12 412.944 1134.12 413.584C1134.12 414.533 1134.36 415.269 1134.84 415.792C1135.33 416.304 1135.94 416.56 1136.68 416.56ZM1144.88 410.464C1145.15 410.016 1145.5 409.669 1145.94 409.424C1146.39 409.168 1146.92 409.04 1147.52 409.04V410.928H1147.06C1146.34 410.928 1145.8 411.109 1145.43 411.472C1145.06 411.835 1144.88 412.464 1144.88 413.36V418H1143.06V409.184H1144.88V410.464ZM1148.59 413.552C1148.59 412.667 1148.77 411.883 1149.14 411.2C1149.51 410.517 1150.01 409.989 1150.64 409.616C1151.28 409.232 1151.99 409.04 1152.77 409.04C1153.34 409.04 1153.91 409.168 1154.46 409.424C1155.03 409.669 1155.48 410 1155.81 410.416V406.16H1157.65V418H1155.81V416.672C1155.51 417.099 1155.09 417.451 1154.56 417.728C1154.04 418.005 1153.43 418.144 1152.75 418.144C1151.98 418.144 1151.28 417.952 1150.64 417.568C1150.01 417.173 1149.51 416.629 1149.14 415.936C1148.77 415.232 1148.59 414.437 1148.59 413.552ZM1155.81 413.584C1155.81 412.976 1155.68 412.448 1155.42 412C1155.18 411.552 1154.85 411.211 1154.45 410.976C1154.04 410.741 1153.61 410.624 1153.14 410.624C1152.67 410.624 1152.23 410.741 1151.82 410.976C1151.42 411.2 1151.09 411.536 1150.83 411.984C1150.59 412.421 1150.46 412.944 1150.46 413.552C1150.46 414.16 1150.59 414.693 1150.83 415.152C1151.09 415.611 1151.42 415.963 1151.82 416.208C1152.24 416.443 1152.68 416.56 1153.14 416.56C1153.61 416.56 1154.04 416.443 1154.45 416.208C1154.85 415.973 1155.18 415.632 1155.42 415.184C1155.68 414.725 1155.81 414.192 1155.81 413.584Z" fill="#7B7B7B" fill-opacity="0.79"/>
<g filter="url(#filter0_d_50_901)">
<rect x="1060" y="510" width="403" height="62" rx="10" fill="#4461F2" shape-rendering="crispEdges"/>
<path d="M1227.76 549.168C1226.53 549.168 1225.43 548.968 1224.45 548.568C1223.48 548.168 1222.69 547.576 1222.1 546.792C1221.52 546.008 1221.22 545.064 1221.19 543.96H1225.56C1225.62 544.584 1225.84 545.064 1226.2 545.4C1226.57 545.72 1227.05 545.88 1227.64 545.88C1228.25 545.88 1228.73 545.744 1229.08 545.472C1229.44 545.184 1229.61 544.792 1229.61 544.296C1229.61 543.88 1229.47 543.536 1229.18 543.264C1228.91 542.992 1228.56 542.768 1228.15 542.592C1227.75 542.416 1227.17 542.216 1226.42 541.992C1225.33 541.656 1224.44 541.32 1223.76 540.984C1223.07 540.648 1222.48 540.152 1221.98 539.496C1221.48 538.84 1221.24 537.984 1221.24 536.928C1221.24 535.36 1221.8 534.136 1222.94 533.256C1224.08 532.36 1225.56 531.912 1227.38 531.912C1229.24 531.912 1230.73 532.36 1231.87 533.256C1233 534.136 1233.61 535.368 1233.69 536.952H1229.25C1229.22 536.408 1229.02 535.984 1228.65 535.68C1228.28 535.36 1227.81 535.2 1227.24 535.2C1226.74 535.2 1226.34 535.336 1226.04 535.608C1225.73 535.864 1225.58 536.24 1225.58 536.736C1225.58 537.28 1225.84 537.704 1226.35 538.008C1226.86 538.312 1227.66 538.64 1228.75 538.992C1229.84 539.36 1230.72 539.712 1231.39 540.048C1232.08 540.384 1232.67 540.872 1233.16 541.512C1233.66 542.152 1233.91 542.976 1233.91 543.984C1233.91 544.944 1233.66 545.816 1233.16 546.6C1232.68 547.384 1231.98 548.008 1231.05 548.472C1230.12 548.936 1229.03 549.168 1227.76 549.168ZM1238.5 534.216C1237.78 534.216 1237.19 534.008 1236.72 533.592C1236.27 533.16 1236.05 532.632 1236.05 532.008C1236.05 531.368 1236.27 530.84 1236.72 530.424C1237.19 529.992 1237.78 529.776 1238.5 529.776C1239.2 529.776 1239.78 529.992 1240.23 530.424C1240.69 530.84 1240.92 531.368 1240.92 532.008C1240.92 532.632 1240.69 533.16 1240.23 533.592C1239.78 534.008 1239.2 534.216 1238.5 534.216ZM1240.54 535.608V549H1236.43V535.608H1240.54ZM1248.6 535.416C1249.54 535.416 1250.37 535.608 1251.07 535.992C1251.79 536.376 1252.34 536.88 1252.73 537.504V535.608H1256.83V548.976C1256.83 550.208 1256.58 551.32 1256.09 552.312C1255.61 553.32 1254.86 554.12 1253.86 554.712C1252.86 555.304 1251.62 555.6 1250.14 555.6C1248.15 555.6 1246.54 555.128 1245.31 554.184C1244.08 553.256 1243.38 551.992 1243.2 550.392H1247.26C1247.38 550.904 1247.69 551.304 1248.17 551.592C1248.65 551.896 1249.24 552.048 1249.94 552.048C1250.79 552.048 1251.46 551.8 1251.96 551.304C1252.47 550.824 1252.73 550.048 1252.73 548.976V547.08C1252.33 547.704 1251.78 548.216 1251.07 548.616C1250.37 549 1249.54 549.192 1248.6 549.192C1247.5 549.192 1246.5 548.912 1245.6 548.352C1244.7 547.776 1243.99 546.968 1243.46 545.928C1242.95 544.872 1242.7 543.656 1242.7 542.28C1242.7 540.904 1242.95 539.696 1243.46 538.656C1243.99 537.616 1244.7 536.816 1245.6 536.256C1246.5 535.696 1247.5 535.416 1248.6 535.416ZM1252.73 542.304C1252.73 541.28 1252.44 540.472 1251.86 539.88C1251.3 539.288 1250.62 538.992 1249.8 538.992C1248.98 538.992 1248.29 539.288 1247.71 539.88C1247.15 540.456 1246.87 541.256 1246.87 542.28C1246.87 543.304 1247.15 544.12 1247.71 544.728C1248.29 545.32 1248.98 545.616 1249.8 545.616C1250.62 545.616 1251.3 545.32 1251.86 544.728C1252.44 544.136 1252.73 543.328 1252.73 542.304ZM1267.96 535.464C1269.53 535.464 1270.78 535.976 1271.7 537C1272.65 538.008 1273.12 539.4 1273.12 541.176V549H1269.04V541.728C1269.04 540.832 1268.81 540.136 1268.34 539.64C1267.88 539.144 1267.26 538.896 1266.47 538.896C1265.69 538.896 1265.06 539.144 1264.6 539.64C1264.14 540.136 1263.9 540.832 1263.9 541.728V549H1259.8V535.608H1263.9V537.384C1264.32 536.792 1264.88 536.328 1265.58 535.992C1266.29 535.64 1267.08 535.464 1267.96 535.464ZM1285.16 532.152V549H1281.06V532.152H1285.16ZM1296.3 535.464C1297.86 535.464 1299.11 535.976 1300.04 537C1300.98 538.008 1301.46 539.4 1301.46 541.176V549H1297.38V541.728C1297.38 540.832 1297.14 540.136 1296.68 539.64C1296.22 539.144 1295.59 538.896 1294.81 538.896C1294.02 538.896 1293.4 539.144 1292.94 539.64C1292.47 540.136 1292.24 540.832 1292.24 541.728V549H1288.14V535.608H1292.24V537.384C1292.66 536.792 1293.22 536.328 1293.92 535.992C1294.62 535.64 1295.42 535.464 1296.3 535.464Z" fill="white"/>
</g>
<path d="M599 359C591.741 359.023 584.73 361.641 579.233 366.381C575.02 370.011 571.967 374.741 571.181 379.487C561.963 381.522 555 389.552 555 399.249C555 410.513 564.394 419.5 575.795 419.5H624.779C634.761 419.5 643 411.635 643 401.751C643 392.753 636.169 385.422 627.413 384.184C626.077 369.995 613.795 359 599 359ZM611.947 396.697L600.947 407.697C600.692 407.953 600.388 408.156 600.054 408.295C599.72 408.434 599.362 408.505 599 408.505C598.638 408.505 598.28 408.434 597.946 408.295C597.612 408.156 597.308 407.953 597.053 407.697L586.053 396.697C585.797 396.441 585.594 396.138 585.456 395.804C585.318 395.47 585.247 395.112 585.247 394.75C585.247 394.388 585.318 394.03 585.456 393.696C585.594 393.362 585.797 393.059 586.053 392.803C586.569 392.287 587.27 391.997 588 391.997C588.362 391.997 588.72 392.068 589.054 392.206C589.388 392.344 589.691 392.547 589.947 392.803L596.25 399.112V378.25C596.25 377.521 596.54 376.821 597.055 376.305C597.571 375.79 598.271 375.5 599 375.5C599.729 375.5 600.429 375.79 600.945 376.305C601.46 376.821 601.75 377.521 601.75 378.25V399.112L608.053 392.803C608.569 392.287 609.27 391.997 610 391.997C610.73 391.997 611.431 392.287 611.947 392.803C612.463 393.319 612.753 394.02 612.753 394.75C612.753 395.48 612.463 396.181 611.947 396.697V396.697Z" fill="#52459F" fill-opacity="0.68"/>
<defs>
<filter id="filter0_d_50_901" x="1040" y="490" width="483" height="142" filterUnits="userSpaceOnUse" color-interpolation-filters="sRGB">
<feFlood flood-opacity="0" result="BackgroundImageFix"/>
<feColorMatrix in="SourceAlpha" type="matrix" values="0 0 0 0 0 0 0 0 0 0 0 0 0 0 0 0 0 0 127 0" result="hardAlpha"/>
<feOffset dx="20" dy="20"/>
<feGaussianBlur stdDeviation="20"/>
<feComposite in2="hardAlpha" operator="out"/>
<feColorMatrix type="matrix" values="0 0 0 0 0.76441 0 0 0 0 0.801262 0 0 0 0 0.991667 0 0 0 1 0"/>
<feBlend mode="normal" in2="BackgroundImageFix" result="effect1_dropShadow_50_901"/>
<feBlend mode="normal" in="SourceGraphic" in2="effect1_dropShadow_50_901" result="shape"/>
</filter>
<radialGradient id="paint0_radial_50_901" cx="0" cy="0" r="1" gradientUnits="userSpaceOnUse" gradientTransform="translate(469 241.5) rotate(83.9445) scale(322.298 675.876)">
<stop stop-color="#D7D7FA" stop-opacity="0.97"/>
<stop offset="1" stop-color="#DDDDF4" stop-opacity="0"/>
</radialGradient>
</defs>
</svg>
