<svg width="29" height="30" viewBox="0 0 29 30" fill="none" xmlns="http://www.w3.org/2000/svg">
<path d="M9.79696 27.5342H5.01111C2.63003 27.5342 1.48096 26.4325 1.48096 24.158V5.4411C1.48096 3.16663 2.64188 2.06494 5.01111 2.06494H9.79696C12.178 2.06494 13.3271 3.16663 13.3271 5.4411V24.158C13.3271 26.4325 12.1662 27.5342 9.79696 27.5342ZM5.01111 3.84186C3.50665 3.84186 3.25788 4.24463 3.25788 5.4411V24.158C3.25788 25.3545 3.50665 25.7573 5.01111 25.7573H9.79696C11.3014 25.7573 11.5502 25.3545 11.5502 24.158V5.4411C11.5502 4.24463 11.3014 3.84186 9.79696 3.84186H5.01111Z" fill="#52459F"/>
<path d="M23.4194 16.8726H18.6335C16.2525 16.8726 15.1034 15.7709 15.1034 13.4965V5.4411C15.1034 3.16663 16.2643 2.06494 18.6335 2.06494H23.4194C25.8005 2.06494 26.9495 3.16663 26.9495 5.4411V13.4965C26.9495 15.7709 25.7886 16.8726 23.4194 16.8726ZM18.6335 3.84186C17.1291 3.84186 16.8803 4.24463 16.8803 5.4411V13.4965C16.8803 14.6929 17.1291 15.0957 18.6335 15.0957H23.4194C24.9239 15.0957 25.1726 14.6929 25.1726 13.4965V5.4411C25.1726 4.24463 24.9239 3.84186 23.4194 3.84186H18.6335Z" fill="#52459F"/>
<path d="M23.4194 27.5335H18.6335C16.2525 27.5335 15.1034 26.4318 15.1034 24.1574V22.0251C15.1034 19.7506 16.2643 18.6489 18.6335 18.6489H23.4194C25.8005 18.6489 26.9495 19.7506 26.9495 22.0251V24.1574C26.9495 26.4318 25.7886 27.5335 23.4194 27.5335ZM18.6335 20.4258C17.1291 20.4258 16.8803 20.8286 16.8803 22.0251V24.1574C16.8803 25.3538 17.1291 25.7566 18.6335 25.7566H23.4194C24.9239 25.7566 25.1726 25.3538 25.1726 24.1574V22.0251C25.1726 20.8286 24.9239 20.4258 23.4194 20.4258H18.6335Z" fill="#52459F"/>
</svg>
