<svg width="26" height="26" viewBox="0 0 26 26" fill="none" xmlns="http://www.w3.org/2000/svg">
<path d="M9.45833 25.1667H16.7083C22.75 25.1667 25.1667 22.75 25.1667 16.7083V9.45833C25.1667 3.41667 22.75 1 16.7083 1H9.45833C3.41667 1 1 3.41667 1 9.45833V16.7083C1 22.75 3.41667 25.1667 9.45833 25.1667Z" stroke="#292D32" stroke-width="1.5" stroke-linecap="round" stroke-linejoin="round"/>
<path d="M7 14H19V15H7V14Z" fill="#474747"/>
<path d="M19.42 9.68569C19.3577 9.48276 19.2306 9.30586 19.0581 9.18213C18.8855 9.05841 18.6772 8.99469 18.465 9.00075H17.275C17.367 9.33222 17.3423 9.68525 17.205 10.0007H18.475C19 11.4706 19.86 13.8254 20 14.2404V18.0001H6V14.2404C6.14 13.8254 7.525 10.0007 7.525 10.0007H8.79C8.65268 9.68525 8.62796 9.33222 8.72 9.00075H7.535C7.32643 8.99252 7.12086 9.05249 6.94943 9.17158C6.77801 9.29067 6.65007 9.46238 6.585 9.6607C5 14.0004 5 14.0504 5 14.1654V18.0001C5 18.2653 5.10536 18.5196 5.29289 18.7071C5.48043 18.8947 5.73478 19 6 19H20C20.2652 19 20.5196 18.8947 20.7071 18.7071C20.8946 18.5196 21 18.2653 21 18.0001V14.1654C21 14.0504 21 14.0004 19.42 9.68569V9.68569Z" fill="#474747"/>
<path d="M13.4737 13L16.7787 9.60629C16.8404 9.56184 16.8919 9.50408 16.9297 9.43701C16.9675 9.36994 16.9908 9.29517 16.9978 9.21791C17.0047 9.14065 16.9953 9.06274 16.9702 8.98961C16.9451 8.91647 16.9048 8.84986 16.8522 8.79441C16.7996 8.73895 16.7359 8.69598 16.6656 8.66848C16.5952 8.64098 16.5199 8.62961 16.4449 8.63516C16.3699 8.64071 16.2969 8.66305 16.2311 8.70062C16.1653 8.73819 16.1082 8.7901 16.0638 8.85273L13.9917 10.9477V4.53444C13.9917 4.3927 13.9371 4.25676 13.84 4.15653C13.7428 4.05631 13.6111 4 13.4737 4C13.3363 4 13.2045 4.05631 13.1074 4.15653C13.0102 4.25676 12.9557 4.3927 12.9557 4.53444V10.9477L10.8835 8.8367C10.786 8.73677 10.654 8.68091 10.5165 8.68141C10.379 8.68191 10.2474 8.73873 10.1505 8.83937C10.0537 8.94001 9.99952 9.07622 10 9.21804C10.0005 9.35986 10.0556 9.49568 10.1531 9.59561L13.4737 13Z" fill="#474747"/>
</svg>
