<svg width="26" height="26" viewBox="0 0 26 26" fill="none" xmlns="http://www.w3.org/2000/svg">
<path d="M13 4.5C13.6181 4.5 14.2223 4.68328 14.7362 5.02666C15.2501 5.37004 15.6506 5.8581 15.8871 6.42911C16.1236 7.00013 16.1855 7.62847 16.065 8.23466C15.9444 8.84085 15.6467 9.39767 15.2097 9.83471C14.7727 10.2717 14.2158 10.5694 13.6097 10.69C13.0035 10.8105 12.3751 10.7486 11.8041 10.5121C11.2331 10.2756 10.745 9.87506 10.4017 9.36116C10.0583 8.84725 9.875 8.24307 9.875 7.625C9.875 6.7962 10.2042 6.00134 10.7903 5.41529C11.3763 4.82924 12.1712 4.5 13 4.5ZM13 3.25C12.1347 3.25 11.2888 3.50659 10.5694 3.98732C9.84992 4.46805 9.28916 5.15133 8.95803 5.95076C8.62689 6.75019 8.54025 7.62985 8.70906 8.47852C8.87787 9.32719 9.29455 10.1067 9.90641 10.7186C10.5183 11.3304 11.2978 11.7471 12.1465 11.9159C12.9951 12.0847 13.8748 11.9981 14.6742 11.667C15.4737 11.3358 16.1569 10.7751 16.6377 10.0556C17.1184 9.33615 17.375 8.49029 17.375 7.625C17.375 6.46468 16.9141 5.35188 16.0936 4.53141C15.2731 3.71094 14.1603 3.25 13 3.25ZM19.25 20.75H18V17.625C18 17.2146 17.9192 16.8083 17.7621 16.4291C17.6051 16.05 17.3749 15.7055 17.0847 15.4153C16.7945 15.1251 16.45 14.8949 16.0709 14.7379C15.6917 14.5808 15.2854 14.5 14.875 14.5H11.125C10.2962 14.5 9.50134 14.8292 8.91529 15.4153C8.32924 16.0013 8 16.7962 8 17.625V20.75H6.75V17.625C6.75 16.4647 7.21094 15.3519 8.03141 14.5314C8.85188 13.7109 9.96468 13.25 11.125 13.25H14.875C16.0353 13.25 17.1481 13.7109 17.9686 14.5314C18.7891 15.3519 19.25 16.4647 19.25 17.625V20.75Z" fill="#474747"/>
<path d="M9.45833 25.1667H16.7083C22.75 25.1667 25.1667 22.75 25.1667 16.7083V9.45833C25.1667 3.41667 22.75 1 16.7083 1H9.45833C3.41667 1 1 3.41667 1 9.45833V16.7083C1 22.75 3.41667 25.1667 9.45833 25.1667Z" stroke="#292D32" stroke-width="1.5" stroke-linecap="round" stroke-linejoin="round"/>
</svg>
