<svg width="26" height="26" viewBox="0 0 26 26" fill="none" xmlns="http://www.w3.org/2000/svg">
<path d="M9.45833 25.1667H16.7083C22.75 25.1667 25.1667 22.75 25.1667 16.7083V9.45833C25.1667 3.41667 22.75 1 16.7083 1H9.45833C3.41667 1 1 3.41667 1 9.45833V16.7083C1 22.75 3.41667 25.1667 9.45833 25.1667Z" stroke="#292D32" stroke-width="1.5" stroke-linecap="round" stroke-linejoin="round"/>
<path d="M16.75 11.7109H9.25C9.16406 11.7109 9.09375 11.7812 9.09375 11.8672V19.7188C9.09375 19.8047 9.16406 19.875 9.25 19.875H16.75C16.8359 19.875 16.9062 19.8047 16.9062 19.7188V11.8672C16.9062 11.7812 16.8359 11.7109 16.75 11.7109ZM10.3438 12.9609H15.6562V15.2461H10.3438V12.9609ZM15.6562 18.625H10.3438V16.3398H15.6562V18.625Z" fill="#474747"/>
<path d="M11.2812 17.6094C11.2812 17.7751 11.3471 17.9341 11.4643 18.0513C11.5815 18.1685 11.7405 18.2344 11.9062 18.2344C12.072 18.2344 12.231 18.1685 12.3482 18.0513C12.4654 17.9341 12.5312 17.7751 12.5312 17.6094C12.5312 17.4436 12.4654 17.2846 12.3482 17.1674C12.231 17.0502 12.072 16.9844 11.9062 16.9844C11.7405 16.9844 11.5815 17.0502 11.4643 17.1674C11.3471 17.2846 11.2812 17.4436 11.2812 17.6094ZM11.2812 14.1328C11.2812 14.2986 11.3471 14.4575 11.4643 14.5748C11.5815 14.692 11.7405 14.7578 11.9062 14.7578C12.072 14.7578 12.231 14.692 12.3482 14.5748C12.4654 14.4575 12.5312 14.2986 12.5312 14.1328C12.5312 13.9671 12.4654 13.8081 12.3482 13.6909C12.231 13.5737 12.072 13.5078 11.9062 13.5078C11.7405 13.5078 11.5815 13.5737 11.4643 13.6909C11.3471 13.8081 11.2812 13.9671 11.2812 14.1328Z" fill="#474747"/>
<path d="M18.8477 10.2051C17.9532 7.84375 15.6739 6.16406 13.004 6.16406C10.334 6.16406 8.05475 7.8418 7.16021 10.2031C5.47857 10.6465 4.24029 12.1836 4.25006 14.0078C4.26178 16.0469 5.84381 17.7051 7.836 17.8828C7.92779 17.8906 8.00592 17.8184 8.00592 17.7266V16.5469C8.00592 16.4688 7.94732 16.4023 7.8692 16.3926C7.34185 16.3262 6.84381 16.0957 6.461 15.7188C5.99224 15.2598 5.73443 14.6426 5.73443 13.9883C5.73443 13.4414 5.91217 12.9258 6.24615 12.4961C6.57232 12.0781 7.03131 11.7754 7.53717 11.6426L8.2774 11.4473L8.54889 10.7305C8.71685 10.2852 8.95123 9.86719 9.24615 9.49023C9.53717 9.11523 9.88287 8.78711 10.2696 8.51367C11.0723 7.94922 12.0176 7.65039 13.004 7.65039C13.9903 7.65039 14.9356 7.94922 15.7383 8.51563C16.127 8.78906 16.4708 9.11719 16.7618 9.49219C17.0567 9.86914 17.2911 10.2871 17.459 10.7324L17.7286 11.4473L18.4669 11.6426C19.5254 11.9238 20.2657 12.8867 20.2657 13.9863C20.2657 14.6426 20.0079 15.2578 19.5391 15.7168C19.1583 16.0918 18.6622 16.3242 18.1348 16.3906C18.0567 16.4004 18.0001 16.4668 18.0001 16.5449V17.7266C18.0001 17.8184 18.0801 17.8906 18.1719 17.8828C20.1583 17.7031 21.7364 16.0469 21.7501 14.0117C21.7618 12.1875 20.5254 10.6504 18.8477 10.2051V10.2051Z" fill="#474747"/>
</svg>
