<svg width="28" height="28" viewBox="0 0 28 28" fill="none" xmlns="http://www.w3.org/2000/svg">
<path d="M14.0732 18.0912C11.7356 18.0912 9.8385 16.194 9.8385 13.8565C9.8385 11.519 11.7356 9.62183 14.0732 9.62183C16.4107 9.62183 18.3078 11.519 18.3078 13.8565C18.3078 16.194 16.4107 18.0912 14.0732 18.0912ZM14.0732 11.3157C12.6729 11.3157 11.5324 12.4562 11.5324 13.8565C11.5324 15.2568 12.6729 16.3973 14.0732 16.3973C15.4734 16.3973 16.614 15.2568 16.614 13.8565C16.614 12.4562 15.4734 11.3157 14.0732 11.3157Z" fill="#7B7B7B"/>
<path d="M17.698 25.3635C17.4608 25.3635 17.2237 25.3296 16.9866 25.2731C16.2864 25.0812 15.6992 24.6407 15.3266 24.0197L15.1911 23.7938C14.5248 22.642 13.6101 22.642 12.9439 23.7938L12.8196 24.0084C12.447 24.6407 11.8598 25.0924 11.1597 25.2731C10.4482 25.4651 9.71422 25.3635 9.09314 24.9908L7.15083 23.8729C6.46199 23.4776 5.96512 22.834 5.75057 22.0548C5.5473 21.2756 5.64894 20.4738 6.04417 19.785C6.37165 19.2091 6.46199 18.6896 6.27002 18.3621C6.07805 18.0347 5.59247 17.8427 4.92622 17.8427C3.27752 17.8427 1.93372 16.4989 1.93372 14.8502V12.8627C1.93372 11.214 3.27752 9.87021 4.92622 9.87021C5.59247 9.87021 6.07805 9.67824 6.27002 9.35075C6.46199 9.02327 6.38294 8.50382 6.04417 7.9279C5.64894 7.23906 5.5473 6.42601 5.75057 5.65812C5.95383 4.87894 6.4507 4.23527 7.15083 3.84003L9.10443 2.72208C10.3805 1.96549 12.0631 2.40589 12.8309 3.70452L12.9664 3.93037C13.6327 5.0822 14.5474 5.0822 15.2136 3.93037L15.3379 3.71582C16.1058 2.40589 17.7883 1.96549 19.0757 2.73337L21.018 3.85133C21.7068 4.24656 22.2037 4.89023 22.4182 5.66941C22.6215 6.44859 22.5199 7.25036 22.1246 7.9392C21.7972 8.51511 21.7068 9.03457 21.8988 9.36205C22.0908 9.68953 22.5763 9.8815 23.2426 9.8815C24.8913 9.8815 26.2351 11.2253 26.2351 12.874V14.8615C26.2351 16.5102 24.8913 17.854 23.2426 17.854C22.5763 17.854 22.0908 18.0459 21.8988 18.3734C21.7068 18.7009 21.7859 19.2204 22.1246 19.7963C22.5199 20.4851 22.6328 21.2982 22.4182 22.0661C22.215 22.8452 21.7181 23.4889 21.018 23.8841L19.0644 25.0021C18.6353 25.2392 18.1723 25.3635 17.698 25.3635ZM14.0731 21.1853C15.0781 21.1853 16.0154 21.8176 16.6591 22.9356L16.7833 23.1501C16.9188 23.3873 17.1447 23.5567 17.4157 23.6244C17.6867 23.6922 17.9577 23.6583 18.1836 23.5228L20.1372 22.3935C20.4308 22.2242 20.6566 21.9418 20.747 21.6031C20.8373 21.2643 20.7921 20.9142 20.6227 20.6206C19.9791 19.514 19.9 18.3734 20.3969 17.5039C20.8938 16.6344 21.9214 16.1375 23.2087 16.1375C23.9314 16.1375 24.5073 15.5616 24.5073 14.8389V12.8514C24.5073 12.14 23.9314 11.5528 23.2087 11.5528C21.9214 11.5528 20.8938 11.0559 20.3969 10.1864C19.9 9.31688 19.9791 8.17634 20.6227 7.06968C20.7921 6.77607 20.8373 6.42601 20.747 6.08723C20.6566 5.74846 20.4421 5.47744 20.1485 5.29676L18.1949 4.17881C17.7093 3.8852 17.0656 4.05459 16.772 4.55146L16.6478 4.76602C16.0041 5.88397 15.0668 6.51635 14.0618 6.51635C13.0568 6.51635 12.1195 5.88397 11.4758 4.76602L11.3516 4.54017C11.0693 4.06588 10.4369 3.8965 9.95136 4.17881L7.99777 5.30805C7.70416 5.47744 7.47831 5.75975 7.38797 6.09853C7.29763 6.4373 7.3428 6.78737 7.51219 7.08097C8.15586 8.18763 8.23491 9.32817 7.73804 10.1977C7.24117 11.0672 6.21356 11.5641 4.92622 11.5641C4.2035 11.5641 3.62758 12.14 3.62758 12.8627V14.8502C3.62758 15.5616 4.2035 16.1488 4.92622 16.1488C6.21356 16.1488 7.24117 16.6457 7.73804 17.5152C8.23491 18.3847 8.15586 19.5253 7.51219 20.6319C7.3428 20.9255 7.29763 21.2756 7.38797 21.6144C7.47831 21.9531 7.69287 22.2242 7.98647 22.4048L9.94007 23.5228C10.1772 23.6696 10.4595 23.7035 10.7192 23.6357C10.9903 23.568 11.2161 23.3873 11.3629 23.1501L11.4871 22.9356C12.1308 21.8289 13.0681 21.1853 14.0731 21.1853Z" fill="#7B7B7B"/>
</svg>
