<svg width="88" height="88" viewBox="0 0 88 88" fill="none" xmlns="http://www.w3.org/2000/svg">
<path d="M44 11C36.7413 11.0228 29.7301 13.6407 24.233 18.381C20.02 22.011 16.9675 26.741 16.181 31.4875C6.963 33.5225 0 41.5525 0 51.249C0 62.513 9.394 71.5 20.7955 71.5H69.7785C79.761 71.5 88 63.635 88 53.7515C88 44.7535 81.169 37.422 72.413 36.1845C71.0765 21.9945 58.795 11 44 11ZM56.947 48.697L45.947 59.697C45.6915 59.9531 45.3881 60.1563 45.054 60.2949C44.7199 60.4336 44.3617 60.5049 44 60.5049C43.6383 60.5049 43.2801 60.4336 42.946 60.2949C42.6119 60.1563 42.3085 59.9531 42.053 59.697L31.053 48.697C30.7973 48.4413 30.5945 48.1378 30.4561 47.8037C30.3177 47.4696 30.2465 47.1116 30.2465 46.75C30.2465 46.3884 30.3177 46.0304 30.4561 45.6963C30.5945 45.3622 30.7973 45.0587 31.053 44.803C31.5694 44.2866 32.2697 43.9965 33 43.9965C33.3616 43.9965 33.7196 44.0677 34.0537 44.2061C34.3878 44.3445 34.6913 44.5473 34.947 44.803L41.25 51.1115V30.25C41.25 29.5207 41.5397 28.8212 42.0555 28.3055C42.5712 27.7897 43.2707 27.5 44 27.5C44.7293 27.5 45.4288 27.7897 45.9445 28.3055C46.4603 28.8212 46.75 29.5207 46.75 30.25V51.1115L53.053 44.803C53.5694 44.2866 54.2697 43.9965 55 43.9965C55.7303 43.9965 56.4306 44.2866 56.947 44.803C57.4634 45.3194 57.7535 46.0197 57.7535 46.75C57.7535 47.4803 57.4634 48.1806 56.947 48.697V48.697Z" fill="#52459F" fill-opacity="0.68"/>
</svg>
