<svg width="202" height="52" viewBox="0 0 202 52" fill="none" xmlns="http://www.w3.org/2000/svg">
<path d="M19 10C15.8656 10.0102 12.838 11.1785 10.4643 13.294C8.645 14.914 7.32687 17.0249 6.98725 19.1432C3.00675 20.0514 0 23.635 0 27.9624C0 32.9893 4.0565 37 8.97987 37H30.1316C34.4423 37 38 33.49 38 29.0792C38 25.0635 35.0503 21.7916 31.2693 21.2394C30.6921 14.9066 25.3888 10 19 10ZM24.5908 26.8235L19.8408 31.7325C19.7304 31.8468 19.5994 31.9375 19.4551 31.9994C19.3109 32.0613 19.1562 32.0931 19 32.0931C18.8438 32.0931 18.6891 32.0613 18.5449 31.9994C18.4006 31.9375 18.2696 31.8468 18.1592 31.7325L13.4092 26.8235C13.2988 26.7093 13.2113 26.5739 13.1515 26.4248C13.0918 26.2757 13.061 26.1159 13.061 25.9545C13.061 25.7932 13.0918 25.6334 13.1515 25.4843C13.2113 25.3352 13.2988 25.1997 13.4092 25.0856C13.6322 24.8552 13.9347 24.7257 14.25 24.7257C14.4061 24.7257 14.5608 24.7575 14.705 24.8193C14.8493 24.881 14.9803 24.9715 15.0908 25.0856L17.8125 27.901V18.5909C17.8125 18.2654 17.9376 17.9533 18.1603 17.7231C18.383 17.4929 18.6851 17.3636 19 17.3636C19.3149 17.3636 19.617 17.4929 19.8397 17.7231C20.0624 17.9533 20.1875 18.2654 20.1875 18.5909V27.901L22.9092 25.0856C23.1322 24.8552 23.4347 24.7257 23.75 24.7257C24.0653 24.7257 24.3678 24.8552 24.5908 25.0856C24.8137 25.3161 24.939 25.6286 24.939 25.9545C24.939 26.2804 24.8137 26.593 24.5908 26.8235V26.8235Z" fill="#52459F"/>
<path d="M52.98 26.2C52.98 24.2773 53.4093 22.56 54.268 21.048C55.1453 19.5173 56.3307 18.332 57.824 17.492C59.336 16.6333 61.0253 16.204 62.892 16.204C65.076 16.204 66.9893 16.764 68.632 17.884C70.2747 19.004 71.4227 20.5533 72.076 22.532H67.568C67.12 21.5987 66.4853 20.8987 65.664 20.432C64.8613 19.9653 63.928 19.732 62.864 19.732C61.7253 19.732 60.708 20.0027 59.812 20.544C58.9347 21.0667 58.244 21.8133 57.74 22.784C57.2547 23.7547 57.012 24.8933 57.012 26.2C57.012 27.488 57.2547 28.6267 57.74 29.616C58.244 30.5867 58.9347 31.3427 59.812 31.884C60.708 32.4067 61.7253 32.668 62.864 32.668C63.928 32.668 64.8613 32.4347 65.664 31.968C66.4853 31.4827 67.12 30.7733 67.568 29.84H72.076C71.4227 31.8373 70.2747 33.396 68.632 34.516C67.008 35.6173 65.0947 36.168 62.892 36.168C61.0253 36.168 59.336 35.748 57.824 34.908C56.3307 34.0493 55.1453 32.864 54.268 31.352C53.4093 29.84 52.98 28.1227 52.98 26.2ZM79.3442 16.456V36H75.4242V16.456H79.3442ZM89.9652 36.196C88.6025 36.196 87.3705 35.9627 86.2692 35.496C85.1865 35.0293 84.3278 34.3573 83.6932 33.48C83.0585 32.6027 82.7318 31.5667 82.7132 30.372H86.9132C86.9692 31.1747 87.2492 31.8093 87.7532 32.276C88.2758 32.7427 88.9852 32.976 89.8812 32.976C90.7958 32.976 91.5145 32.7613 92.0372 32.332C92.5598 31.884 92.8212 31.3053 92.8212 30.596C92.8212 30.0173 92.6438 29.5413 92.2892 29.168C91.9345 28.7947 91.4865 28.5053 90.9452 28.3C90.4225 28.076 89.6945 27.8333 88.7612 27.572C87.4918 27.1987 86.4558 26.8347 85.6532 26.48C84.8692 26.1067 84.1878 25.556 83.6092 24.828C83.0492 24.0813 82.7692 23.092 82.7692 21.86C82.7692 20.7027 83.0585 19.6947 83.6372 18.836C84.2158 17.9773 85.0278 17.324 86.0732 16.876C87.1185 16.4093 88.3132 16.176 89.6572 16.176C91.6732 16.176 93.3065 16.6707 94.5572 17.66C95.8265 18.6307 96.5265 19.9933 96.6572 21.748H92.3452C92.3078 21.076 92.0185 20.5253 91.4772 20.096C90.9545 19.648 90.2545 19.424 89.3772 19.424C88.6118 19.424 87.9958 19.62 87.5292 20.012C87.0812 20.404 86.8572 20.9733 86.8572 21.72C86.8572 22.2427 87.0252 22.6813 87.3612 23.036C87.7158 23.372 88.1452 23.652 88.6492 23.876C89.1718 24.0813 89.8998 24.324 90.8332 24.604C92.1025 24.9773 93.1385 25.3507 93.9412 25.724C94.7438 26.0973 95.4345 26.6573 96.0132 27.404C96.5918 28.1507 96.8812 29.1307 96.8812 30.344C96.8812 31.3893 96.6105 32.36 96.0692 33.256C95.5278 34.152 94.7345 34.8707 93.6892 35.412C92.6438 35.9347 91.4025 36.196 89.9652 36.196ZM105.944 26.144C105.944 24.2027 106.364 22.476 107.204 20.964C108.044 19.4333 109.21 18.248 110.704 17.408C112.216 16.5493 113.924 16.12 115.828 16.12C118.161 16.12 120.158 16.736 121.82 17.968C123.481 19.2 124.592 20.88 125.152 23.008H119.888C119.496 22.1867 118.936 21.5613 118.208 21.132C117.498 20.7027 116.686 20.488 115.772 20.488C114.297 20.488 113.102 21.0013 112.188 22.028C111.273 23.0547 110.816 24.4267 110.816 26.144C110.816 27.8613 111.273 29.2333 112.188 30.26C113.102 31.2867 114.297 31.8 115.772 31.8C116.686 31.8 117.498 31.5853 118.208 31.156C118.936 30.7267 119.496 30.1013 119.888 29.28H125.152C124.592 31.408 123.481 33.088 121.82 34.32C120.158 35.5333 118.161 36.14 115.828 36.14C113.924 36.14 112.216 35.72 110.704 34.88C109.21 34.0213 108.044 32.836 107.204 31.324C106.364 29.812 105.944 28.0853 105.944 26.144ZM132.872 15.28V36H128.084V15.28H132.872ZM143.453 36.224C141.923 36.224 140.541 35.8973 139.309 35.244C138.096 34.5907 137.135 33.6573 136.425 32.444C135.735 31.2307 135.389 29.812 135.389 28.188C135.389 26.5827 135.744 25.1733 136.453 23.96C137.163 22.728 138.133 21.7853 139.365 21.132C140.597 20.4787 141.979 20.152 143.509 20.152C145.04 20.152 146.421 20.4787 147.653 21.132C148.885 21.7853 149.856 22.728 150.565 23.96C151.275 25.1733 151.629 26.5827 151.629 28.188C151.629 29.7933 151.265 31.212 150.537 32.444C149.828 33.6573 148.848 34.5907 147.597 35.244C146.365 35.8973 144.984 36.224 143.453 36.224ZM143.453 32.08C144.368 32.08 145.143 31.744 145.777 31.072C146.431 30.4 146.757 29.4387 146.757 28.188C146.757 26.9373 146.44 25.976 145.805 25.304C145.189 24.632 144.424 24.296 143.509 24.296C142.576 24.296 141.801 24.632 141.185 25.304C140.569 25.9573 140.261 26.9187 140.261 28.188C140.261 29.4387 140.56 30.4 141.157 31.072C141.773 31.744 142.539 32.08 143.453 32.08ZM169.598 20.376V36H164.81V33.872C164.324 34.5627 163.662 35.1227 162.822 35.552C162 35.9627 161.086 36.168 160.078 36.168C158.883 36.168 157.828 35.9067 156.914 35.384C155.999 34.8427 155.29 34.068 154.786 33.06C154.282 32.052 154.03 30.8667 154.03 29.504V20.376H158.79V28.86C158.79 29.9053 159.06 30.7173 159.602 31.296C160.143 31.8747 160.871 32.164 161.786 32.164C162.719 32.164 163.456 31.8747 163.998 31.296C164.539 30.7173 164.81 29.9053 164.81 28.86V20.376H169.598ZM172.085 28.16C172.085 26.5547 172.383 25.1453 172.981 23.932C173.597 22.7187 174.427 21.7853 175.473 21.132C176.518 20.4787 177.685 20.152 178.973 20.152C179.999 20.152 180.933 20.3667 181.773 20.796C182.631 21.2253 183.303 21.804 183.789 22.532V15.28H188.577V36H183.789V33.76C183.341 34.5067 182.697 35.104 181.857 35.552C181.035 36 180.074 36.224 178.973 36.224C177.685 36.224 176.518 35.8973 175.473 35.244C174.427 34.572 173.597 33.6293 172.981 32.416C172.383 31.184 172.085 29.7653 172.085 28.16ZM183.789 28.188C183.789 26.9933 183.453 26.0507 182.781 25.36C182.127 24.6693 181.325 24.324 180.373 24.324C179.421 24.324 178.609 24.6693 177.937 25.36C177.283 26.032 176.957 26.9653 176.957 28.16C176.957 29.3547 177.283 30.3067 177.937 31.016C178.609 31.7067 179.421 32.052 180.373 32.052C181.325 32.052 182.127 31.7067 182.781 31.016C183.453 30.3253 183.789 29.3827 183.789 28.188Z" fill="#52459F"/>
</svg>
