<svg width="19" height="20" viewBox="0 0 19 20" fill="none" xmlns="http://www.w3.org/2000/svg">
<path d="M4.29167 16H6.47917L12.7292 10.05L10.4896 7.9L4.29167 13.85V16ZM13.4583 9.35L14.5521 8.25C14.6562 8.15 14.7083 8.03333 14.7083 7.9C14.7083 7.76667 14.6562 7.65 14.5521 7.55L13.0937 6.15C12.9896 6.05 12.8681 6 12.7292 6C12.5903 6 12.4687 6.05 12.3646 6.15L11.2187 7.2L13.4583 9.35ZM2.20833 20C1.63542 20 1.14479 19.8043 0.736458 19.413C0.328819 19.021 0.125 18.55 0.125 18V4C0.125 3.45 0.328819 2.979 0.736458 2.587C1.14479 2.19567 1.63542 2 2.20833 2H6.58333C6.80903 1.4 7.18681 0.916667 7.71667 0.55C8.24583 0.183333 8.84028 0 9.5 0C10.1597 0 10.7545 0.183333 11.2844 0.55C11.8135 0.916667 12.191 1.4 12.4167 2H16.7917C17.3646 2 17.8552 2.19567 18.2635 2.587C18.6712 2.979 18.875 3.45 18.875 4V18C18.875 18.55 18.6712 19.021 18.2635 19.413C17.8552 19.8043 17.3646 20 16.7917 20H2.20833ZM9.5 3.25C9.72569 3.25 9.9125 3.179 10.0604 3.037C10.2076 2.89567 10.2812 2.71667 10.2812 2.5C10.2812 2.28333 10.2076 2.104 10.0604 1.962C9.9125 1.82067 9.72569 1.75 9.5 1.75C9.27431 1.75 9.08785 1.82067 8.94063 1.962C8.79271 2.104 8.71875 2.28333 8.71875 2.5C8.71875 2.71667 8.79271 2.89567 8.94063 3.037C9.08785 3.179 9.27431 3.25 9.5 3.25Z" fill="white"/>
</svg>
